<svg xmlns="http://www.w3.org/2000/svg" width="747.332" height="741.298" viewBox="0 0 747.332 741.298">
  <g id="Fundo_9" data-name="Fundo 9" transform="translate(338.797 -6033.622)">
    <g id="Elipse_11" data-name="Elipse 11" transform="translate(45.559 6207.263) rotate(45)" fill="none" stroke="rgba(255,215,0,0.4)" stroke-width="2">
      <circle cx="11.784" cy="11.784" r="11.784" stroke="none"/>
      <circle cx="11.784" cy="11.784" r="10.784" fill="none"/>
    </g>
    <g id="Elipse_12" data-name="Elipse 12" transform="translate(181.104 6473.911) rotate(45)" fill="none" stroke="rgba(255,215,0,0.3)" stroke-width="2">
      <circle cx="11.784" cy="11.784" r="11.784" stroke="none"/>
      <circle cx="11.784" cy="11.784" r="10.784" fill="none"/>
    </g>
    <g id="Elipse_13" data-name="Elipse 13" transform="translate(362.203 6410.582) rotate(45)" fill="none" stroke="rgba(255,215,0,0.4)" stroke-width="2">
      <circle cx="11.784" cy="11.784" r="11.784" stroke="none"/>
      <circle cx="11.784" cy="11.784" r="10.784" fill="none"/>
    </g>
    <g id="Elipse_14" data-name="Elipse 14" transform="translate(212.213 6216.151) rotate(45)" fill="none" stroke="rgba(255,215,0,0.4)" stroke-width="2">
      <circle cx="11.784" cy="11.784" r="11.784" stroke="none"/>
      <circle cx="11.784" cy="11.784" r="10.784" fill="none"/>
    </g>
    <g id="Elipse_18" data-name="Elipse 18" transform="translate(5.561 6078.383) rotate(45)" fill="none" stroke="rgba(255,215,0,0.4)" stroke-width="2">
      <circle cx="11.784" cy="11.784" r="11.784" stroke="none"/>
      <circle cx="11.784" cy="11.784" r="10.784" fill="none"/>
    </g>
    <g id="Elipse_19" data-name="Elipse 19" transform="translate(218.88 6349.476) rotate(45)" fill="none" stroke="rgba(255,215,0,0.4)" stroke-width="2">
      <circle cx="11.784" cy="11.784" r="11.784" stroke="none"/>
      <circle cx="11.784" cy="11.784" r="10.784" fill="none"/>
    </g>
    <g id="Elipse_20" data-name="Elipse 20" transform="translate(327.761 6551.684) rotate(45)" fill="none" stroke="rgba(255,215,0,0.3)" stroke-width="2">
      <circle cx="11.784" cy="11.784" r="11.784" stroke="none"/>
      <circle cx="11.784" cy="11.784" r="10.784" fill="none"/>
    </g>
    <path id="Caminho_32" data-name="Caminho 32" d="M0,0,98.115,52.011" transform="translate(10.005 6107.27) rotate(45)" fill="none" stroke="rgba(195,0,10,0.25)" stroke-width="2"/>
    <path id="Caminho_33" data-name="Caminho 33" d="M0,94.144,111.656,0" transform="translate(122.77 6154.733) rotate(45)" fill="none" stroke="rgba(195,0,10,0.25)" stroke-width="2"/>
    <path id="Caminho_34" data-name="Caminho 34" d="M0,18.762,200.816,0" transform="translate(67.157 6218.994) rotate(45)" fill="none" stroke="rgba(195,0,10,0.25)" stroke-width="2"/>
    <path id="Caminho_35" data-name="Caminho 35" d="M0,0,74.661,160.225" transform="translate(42.604 6234.898) rotate(45)" fill="none" stroke="rgba(195,0,10,0.25)" stroke-width="2"/>
    <path id="Caminho_36" data-name="Caminho 36" d="M88.11,0,0,119.281" transform="translate(-28.266 6161.889) rotate(45)" fill="none" stroke="rgba(195,0,10,0.2)" stroke-width="2"/>
    <path id="Caminho_39" data-name="Caminho 39" d="M0,43.564,365.6,0" transform="translate(-86.481 6225.743) rotate(45)" fill="none" stroke="rgba(195,0,10,0.2)" stroke-width="2"/>
    <path id="Caminho_40" data-name="Caminho 40" d="M0,72.607,184.506,0" transform="translate(40.965 6365.269) rotate(45)" fill="none" stroke="rgba(195,0,10,0.25)" stroke-width="2"/>
    <path id="Caminho_41" data-name="Caminho 41" d="M12.195,176.4,0,0" transform="translate(-2.173 6102.201) rotate(45)" fill="none" stroke="rgba(195,0,10,0.2)" stroke-width="2"/>
    <path id="Caminho_42" data-name="Caminho 42" d="M54.432,93.7,0,0" transform="translate(216.639 6377.207) rotate(45)" fill="none" stroke="rgba(195,0,10,0.2)" stroke-width="2"/>
    <path id="Caminho_43" data-name="Caminho 43" d="M265.163,81.648,0,0" transform="translate(48.66 6235.071) rotate(45)" fill="none" stroke="rgba(195,0,10,0.2)" stroke-width="2"/>
    <path id="Caminho_52" data-name="Caminho 52" d="M0,40.739,224.826,0" transform="translate(44.144 6066.814) rotate(45)" fill="none" stroke="rgba(195,0,10,0.25)" stroke-width="2"/>
    <path id="Caminho_53" data-name="Caminho 53" d="M0,0,82.135,74.249" transform="translate(212.411 6244.375) rotate(45)" fill="none" stroke="rgba(195,0,10,0.25)" stroke-width="2"/>
    <path id="Caminho_54" data-name="Caminho 54" d="M0,46,125.5,0" transform="translate(263.056 6334.977) rotate(45)" fill="none" stroke="rgba(195,0,10,0.25)" stroke-width="2"/>
    <path id="Caminho_57" data-name="Caminho 57" d="M0,39.172,139.581,0" transform="translate(218.291 6468.484) rotate(45)" fill="none" stroke="rgba(195,0,10,0.2)" stroke-width="2"/>
    <path id="Caminho_58" data-name="Caminho 58" d="M0,155.676,76.827,0" transform="translate(299.834 6379.904) rotate(45)" fill="none" stroke="rgba(195,0,10,0.2)" stroke-width="2"/>
    <path id="Caminho_59" data-name="Caminho 59" d="M70.456,104.277,0,0" transform="translate(357.733 6437.088) rotate(45)" fill="none" stroke="rgba(195,0,10,0.2)" stroke-width="2"/>
    <path id="Caminho_62" data-name="Caminho 62" d="M0,0,224.788,25.363" transform="translate(217.058 6239.729) rotate(45)" fill="none" stroke="rgba(195,0,10,0.25)" stroke-width="2"/>
    <path id="Caminho_71" data-name="Caminho 71" d="M0,291.849,483.495,0" transform="translate(-24.787 6225.698) rotate(45)" fill="none" stroke="rgba(195,0,10,0.2)" stroke-width="2"/>
    <g id="Elipse_29" data-name="Elipse 29" transform="translate(117.094 6295.932) rotate(-135)" fill="none" stroke="rgba(195,0,10,0.2)" stroke-width="1">
      <circle cx="13.927" cy="13.927" r="13.927" stroke="none"/>
      <circle cx="13.927" cy="13.927" r="13.427" fill="none"/>
    </g>
    <g id="Elipse_30" data-name="Elipse 30" transform="translate(100.023 6494.208) rotate(-135)" fill="none" stroke="rgba(195,0,10,0.2)" stroke-width="1">
      <circle cx="13.927" cy="13.927" r="13.927" stroke="none"/>
      <circle cx="13.927" cy="13.927" r="13.427" fill="none"/>
    </g>
    <g id="Elipse_31" data-name="Elipse 31" transform="translate(-8.963 6361.586) rotate(-135)" fill="none" stroke="rgba(195,0,10,0.2)" stroke-width="1">
      <circle cx="13.927" cy="13.927" r="13.927" stroke="none"/>
      <circle cx="13.927" cy="13.927" r="13.427" fill="none"/>
    </g>
    <g id="Elipse_34" data-name="Elipse 34" transform="translate(233.958 6436.432) rotate(-135)" fill="none" stroke="rgba(195,0,10,0.2)" stroke-width="1">
      <circle cx="13.927" cy="13.927" r="13.927" stroke="none"/>
      <circle cx="13.927" cy="13.927" r="13.427" fill="none"/>
    </g>
    <g id="Elipse_35" data-name="Elipse 35" transform="translate(172.243 6613.699) rotate(-135)" fill="none" stroke="rgba(195,0,10,0.2)" stroke-width="1">
      <circle cx="13.927" cy="13.927" r="13.927" stroke="none"/>
      <circle cx="13.927" cy="13.927" r="13.427" fill="none"/>
    </g>
    <path id="Caminho_78" data-name="Caminho 78" d="M206.494,3369l-32.63,110.073" transform="translate(-2231.321 8864.322) rotate(-135)" fill="none" stroke="rgba(249,183,0,0.1)" stroke-width="1"/>
    <path id="Caminho_79" data-name="Caminho 79" d="M110,3354l141.78,13.419" transform="translate(-2201.71 8912.112) rotate(-135)" fill="none" stroke="rgba(249,183,0,0.1)" stroke-width="1"/>
    <path id="Caminho_81" data-name="Caminho 81" d="M223.534,3419.93l-69.553-142.861" transform="translate(-2274.981 8932.08) rotate(-135)" fill="none" stroke="rgba(249,183,0,0.1)" stroke-width="1"/>
    <path id="Caminho_82" data-name="Caminho 82" d="M104.966,3404.406l76.423-128.724" transform="translate(-2246.119 8962.622) rotate(-135)" fill="none" stroke="rgba(249,183,0,0.1)" stroke-width="1"/>
    <path id="Caminho_84" data-name="Caminho 84" d="M179,3463.215l212.862-62.222" transform="translate(-2215.046 8841.822) rotate(-135)" fill="none" stroke="rgba(249,183,0,0.1)" stroke-width="1"/>
    <path id="Caminho_85" data-name="Caminho 85" d="M81,3425.5l154.33,16.235" transform="translate(-2140.81 8886.358) rotate(-135)" fill="none" stroke="rgba(249,183,0,0.1)" stroke-width="1"/>
    <path id="Caminho_86" data-name="Caminho 86" d="M73.5,3469.506,118.966,3357.9" transform="translate(-2177.229 8931.868) rotate(-135)" fill="none" stroke="rgba(249,183,0,0.1)" stroke-width="1"/>
    <path id="Caminho_87" data-name="Caminho 87" d="M29.5,3341.805l69.127,147.1" transform="translate(-2160.318 8968.283) rotate(-135)" fill="none" stroke="rgba(249,183,0,0.1)" stroke-width="1"/>
    <path id="Caminho_88" data-name="Caminho 88" d="M37,3334.5l108.781,31.173" transform="translate(-2169.29 8968.165) rotate(-135)" fill="none" stroke="rgba(249,183,0,0.1)" stroke-width="1"/>
    <g id="Elipse_15" data-name="Elipse 15" transform="translate(-123.319 6229.483) rotate(45)" fill="none" stroke="rgba(255,215,0,0.4)" stroke-width="2">
      <circle cx="11.784" cy="11.784" r="11.784" stroke="none"/>
      <circle cx="11.784" cy="11.784" r="10.784" fill="none"/>
    </g>
    <g id="Elipse_16" data-name="Elipse 16" transform="translate(-242.2 6401.694) rotate(45)" fill="none" stroke="rgba(255,215,0,0.4)" stroke-width="2">
      <circle cx="11.784" cy="11.784" r="11.784" stroke="none"/>
      <circle cx="11.784" cy="11.784" r="10.784" fill="none"/>
    </g>
    <g id="Elipse_17" data-name="Elipse 17" transform="translate(-19.993 6395.027) rotate(45)" fill="none" stroke="rgba(255,215,0,0.3)" stroke-width="2">
      <circle cx="11.784" cy="11.784" r="11.784" stroke="none"/>
      <circle cx="11.784" cy="11.784" r="10.784" fill="none"/>
    </g>
    <g id="Elipse_23" data-name="Elipse 23" transform="translate(-269.976 6213.929) rotate(45)" fill="none" stroke="rgba(255,215,0,0.4)" stroke-width="2">
      <circle cx="11.784" cy="11.784" r="11.784" stroke="none"/>
      <circle cx="11.784" cy="11.784" r="10.784" fill="none"/>
    </g>
    <path id="Caminho_37" data-name="Caminho 37" d="M0,0,33.511,184.638" transform="translate(-129.088 6255.06) rotate(45)" fill="none" stroke="rgba(195,0,10,0.25)" stroke-width="2"/>
    <path id="Caminho_38" data-name="Caminho 38" d="M0,146.528,138.445,0" transform="translate(-128.019 6314.671) rotate(45)" fill="none" stroke="rgba(195,0,10,0.25)" stroke-width="2"/>
    <path id="Caminho_47" data-name="Caminho 47" d="M130.777,103.436,0,0" transform="translate(-264.664 6242.05) rotate(45)" fill="none" stroke="rgba(195,0,10,0.25)" stroke-width="2"/>
    <path id="Caminho_48" data-name="Caminho 48" d="M94.45,0,0,81.521" transform="translate(-201.584 6178.97) rotate(45)" fill="none" stroke="rgba(195,0,10,0.25)" stroke-width="2"/>
    <path id="Caminho_51" data-name="Caminho 51" d="M93.428,0,0,268.718" transform="translate(-71.632 6034.521) rotate(45)" fill="none" stroke="rgba(195,0,10,0.2)" stroke-width="2"/>
    <g id="Elipse_26" data-name="Elipse 26" transform="translate(-70.678 6536.227) rotate(-135)" fill="none" stroke="rgba(195,0,10,0.2)" stroke-width="1">
      <circle cx="13.927" cy="13.927" r="13.927" stroke="none"/>
      <circle cx="13.927" cy="13.927" r="13.427" fill="none"/>
    </g>
    <g id="Elipse_27" data-name="Elipse 27" transform="translate(-99.566 6173.814) rotate(-135)" fill="none" stroke="rgba(195,0,10,0.2)" stroke-width="1">
      <circle cx="13.927" cy="13.927" r="13.927" stroke="none"/>
      <circle cx="13.927" cy="13.927" r="13.427" fill="none"/>
    </g>
    <g id="Elipse_28" data-name="Elipse 28" transform="translate(-140.271 6385.222) rotate(-135)" fill="none" stroke="rgba(195,0,10,0.2)" stroke-width="1">
      <circle cx="13.927" cy="13.927" r="13.927" stroke="none"/>
      <circle cx="13.927" cy="13.927" r="13.427" fill="none"/>
    </g>
    <g id="Elipse_32" data-name="Elipse 32" transform="translate(-240.066 6193.511) rotate(-135)" fill="none" stroke="rgba(195,0,10,0.2)" stroke-width="1">
      <circle cx="13.927" cy="13.927" r="13.927" stroke="none"/>
      <circle cx="13.927" cy="13.927" r="13.427" fill="none"/>
    </g>
    <g id="Elipse_33" data-name="Elipse 33" transform="translate(-276.833 6369.465) rotate(-135)" fill="none" stroke="rgba(195,0,10,0.2)" stroke-width="1">
      <circle cx="13.927" cy="13.927" r="13.927" stroke="none"/>
      <circle cx="13.927" cy="13.927" r="13.427" fill="none"/>
    </g>
    <path id="Caminho_74" data-name="Caminho 74" d="M159,3271.5l129.786,51.557" transform="translate(-2281.396 8932.412) rotate(-135)" fill="none" stroke="rgba(249,183,0,0.1)" stroke-width="1"/>
    <path id="Caminho_75" data-name="Caminho 75" d="M243,3332.551l82.852-72.129" transform="translate(-2339.012 8888.224) rotate(-135)" fill="none" stroke="rgba(249,183,0,0.1)" stroke-width="1"/>
    <path id="Caminho_76" data-name="Caminho 76" d="M300.5,3260.422l76.541,130.519" transform="translate(-2373.856 8853.38) rotate(-135)" fill="none" stroke="rgba(249,183,0,0.1)" stroke-width="1"/>
    <path id="Caminho_77" data-name="Caminho 77" d="M240.451,3307.587,343.493,3467.3" transform="translate(-2308.886 8861.187) rotate(-135)" fill="none" stroke="rgba(249,183,0,0.1)" stroke-width="1"/>
    <path id="Caminho_80" data-name="Caminho 80" d="M202,3400.089l55.088-92.04" transform="translate(-2285.305 8884.207) rotate(-135)" fill="none" stroke="rgba(249,183,0,0.1)" stroke-width="1"/>
    <path id="Caminho_83" data-name="Caminho 83" d="M305.65,3437.978l65.26-96.172" transform="translate(-2327.66 8800.941) rotate(-135)" fill="none" stroke="rgba(249,183,0,0.1)" stroke-width="1"/>
  </g>
</svg>
