<svg xmlns="http://www.w3.org/2000/svg" width="519.219" height="748.898" viewBox="0 0 519.219 748.898">
  <g id="Fundo_3" data-name="Fundo 3" transform="translate(310.21 -1632.303)">
    <g id="Elipse_27" data-name="Elipse 27" transform="translate(143.424 1948.938) rotate(-45)" fill="none" stroke="rgba(195,0,10,0.2)" stroke-width="1">
      <circle cx="13.702" cy="13.702" r="13.702" stroke="none"/>
      <circle cx="13.702" cy="13.702" r="13.202" fill="none"/>
    </g>
    <g id="Elipse_29" data-name="Elipse 29" transform="translate(23.282 2162.094) rotate(-45)" fill="none" stroke="rgba(195,0,10,0.2)" stroke-width="1">
      <circle cx="13.702" cy="13.702" r="13.702" stroke="none"/>
      <circle cx="13.702" cy="13.702" r="13.202" fill="none"/>
    </g>
    <g id="Elipse_32" data-name="Elipse 32" transform="translate(124.046 1810.71) rotate(-45)" fill="none" stroke="rgba(195,0,10,0.2)" stroke-width="1">
      <circle cx="13.702" cy="13.702" r="13.702" stroke="none"/>
      <circle cx="13.702" cy="13.702" r="13.202" fill="none"/>
    </g>
    <path id="Caminho_75" data-name="Caminho 75" d="M243,3331.385l81.512-70.962" transform="translate(-2567.15 -288.797) rotate(-45)" fill="none" stroke="rgba(249,183,0,0.1)" stroke-width="1"/>
    <path id="Caminho_76" data-name="Caminho 76" d="M300.5,3260.422l75.3,128.409" transform="translate(-2533.527 -322.42) rotate(-45)" fill="none" stroke="rgba(249,183,0,0.1)" stroke-width="1"/>
    <path id="Caminho_77" data-name="Caminho 77" d="M240.451,3307.587l101.375,157.132" transform="translate(-2541.061 -259.726) rotate(-45)" fill="none" stroke="rgba(249,183,0,0.1)" stroke-width="1"/>
    <path id="Caminho_78" data-name="Caminho 78" d="M205.967,3369l-32.1,108.293" transform="translate(-2544.085 -184.879) rotate(-45)" fill="none" stroke="rgba(249,183,0,0.1)" stroke-width="1"/>
    <path id="Caminho_80" data-name="Caminho 80" d="M202,3398.6l54.2-90.551" transform="translate(-2563.274 -236.972) rotate(-45)" fill="none" stroke="rgba(249,183,0,0.1)" stroke-width="1"/>
    <path id="Caminho_83" data-name="Caminho 83" d="M305.65,3436.422l64.2-94.617" transform="translate(-2482.927 -277.842) rotate(-45)" fill="none" stroke="rgba(249,183,0,0.1)" stroke-width="1"/>
    <path id="Caminho_84" data-name="Caminho 84" d="M179,3462.209l209.42-61.215" transform="translate(-2522.375 -169.174) rotate(-45)" fill="none" stroke="rgba(249,183,0,0.1)" stroke-width="1"/>
    <path id="Caminho_85" data-name="Caminho 85" d="M81,3425.5l151.834,15.973" transform="translate(-2565.35 -97.539) rotate(-45)" fill="none" stroke="rgba(249,183,0,0.1)" stroke-width="1"/>
    <g id="Elipse_11" data-name="Elipse 11" transform="translate(88.886 1862.49) rotate(90)" fill="none" stroke="rgba(255,215,0,0.3)" stroke-width="2">
      <circle cx="11.784" cy="11.784" r="11.784" stroke="none"/>
      <circle cx="11.784" cy="11.784" r="10.784" fill="none"/>
    </g>
    <g id="Elipse_13" data-name="Elipse 13" transform="translate(169.019 2230.16) rotate(90)" fill="none" stroke="rgba(255,215,0,0.3)" stroke-width="2">
      <circle cx="11.784" cy="11.784" r="11.784" stroke="none"/>
      <circle cx="11.784" cy="11.784" r="10.784" fill="none"/>
    </g>
    <g id="Elipse_14" data-name="Elipse 14" transform="translate(200.443 1986.618) rotate(90)" fill="none" stroke="rgba(255,215,0,0.3)" stroke-width="2">
      <circle cx="11.784" cy="11.784" r="11.784" stroke="none"/>
      <circle cx="11.784" cy="11.784" r="10.784" fill="none"/>
    </g>
    <g id="Elipse_18" data-name="Elipse 18" transform="translate(151.735 1743.075) rotate(90)" fill="none" stroke="rgba(255,215,0,0.3)" stroke-width="2">
      <circle cx="11.784" cy="11.784" r="11.784" stroke="none"/>
      <circle cx="11.784" cy="11.784" r="10.784" fill="none"/>
    </g>
    <g id="Elipse_19" data-name="Elipse 19" transform="translate(110.883 2085.606) rotate(90)" fill="none" stroke="rgba(255,215,0,0.3)" stroke-width="2">
      <circle cx="11.784" cy="11.784" r="11.784" stroke="none"/>
      <circle cx="11.784" cy="11.784" r="10.784" fill="none"/>
    </g>
    <g id="Elipse_20" data-name="Elipse 20" transform="translate(44.891 2305.579) rotate(90)" fill="none" stroke="rgba(255,215,0,0.3)" stroke-width="2">
      <circle cx="11.784" cy="11.784" r="11.784" stroke="none"/>
      <circle cx="11.784" cy="11.784" r="10.784" fill="none"/>
    </g>
    <g id="Elipse_24" data-name="Elipse 24" transform="translate(7.967 1632.303) rotate(90)" fill="none" stroke="rgba(255,215,0,0.3)" stroke-width="2">
      <circle cx="11.784" cy="11.784" r="11.784" stroke="none"/>
      <circle cx="11.784" cy="11.784" r="10.784" fill="none"/>
    </g>
    <path id="Caminho_32" data-name="Caminho 32" d="M0,0,98.115,52.011" transform="translate(134.451 1766.643) rotate(90)" fill="none" stroke="rgba(195,0,10,0.2)" stroke-width="2"/>
    <path id="Caminho_33" data-name="Caminho 33" d="M0,94.144,111.656,0" transform="translate(180.625 1879.942) rotate(90)" fill="none" stroke="rgba(195,0,10,0.2)" stroke-width="2"/>
    <path id="Caminho_34" data-name="Caminho 34" d="M0,18.762,200.816,0" transform="translate(95.862 1886.058) rotate(90)" fill="none" stroke="rgba(195,0,10,0.2)" stroke-width="2"/>
    <path id="Caminho_35" data-name="Caminho 35" d="M0,0,74.661,160.225" transform="translate(67.255 1879.942) rotate(90)" fill="none" stroke="rgba(195,0,10,0.2)" stroke-width="2"/>
    <path id="Caminho_36" data-name="Caminho 36" d="M88.11,0,0,119.281" transform="translate(68.768 1778.204) rotate(90)" fill="none" stroke="rgba(195,0,10,0.2)" stroke-width="2"/>
    <path id="Caminho_41" data-name="Caminho 41" d="M12.195,176.4,0,0" transform="translate(129.424 1754.448) rotate(90)" fill="none" stroke="rgba(195,0,10,0.2)" stroke-width="2"/>
    <path id="Caminho_42" data-name="Caminho 42" d="M54.432,93.7,0,0" transform="translate(89.688 2103.631) rotate(90)" fill="none" stroke="rgba(195,0,10,0.2)" stroke-width="2"/>
    <path id="Caminho_43" data-name="Caminho 43" d="M265.163,81.648,0,0" transform="translate(71.415 1884.347) rotate(90)" fill="none" stroke="rgba(195,0,10,0.2)" stroke-width="2"/>
    <path id="Caminho_46" data-name="Caminho 46" d="M93.172,0,0,131.777" transform="translate(135.583 1651.498) rotate(90)" fill="none" stroke="rgba(195,0,10,0.2)" stroke-width="2"/>
    <path id="Caminho_51" data-name="Caminho 51" d="M93.428,0,0,268.718" transform="translate(128.166 1657.477) rotate(90)" fill="none" stroke="rgba(195,0,10,0.2)" stroke-width="2"/>
    <path id="Caminho_52" data-name="Caminho 52" d="M0,40.739,224.826,0" transform="translate(187.196 1762.177) rotate(90)" fill="none" stroke="rgba(195,0,10,0.2)" stroke-width="2"/>
    <path id="Caminho_53" data-name="Caminho 53" d="M0,0,82.135,74.249" transform="translate(180.625 2006.715) rotate(90)" fill="none" stroke="rgba(195,0,10,0.2)" stroke-width="2"/>
    <path id="Caminho_54" data-name="Caminho 54" d="M0,46,125.5,0" transform="translate(152.371 2106.591) rotate(90)" fill="none" stroke="rgba(195,0,10,0.2)" stroke-width="2"/>
    <path id="Caminho_57" data-name="Caminho 57" d="M0,39.172,139.581,0" transform="translate(26.314 2169.341) rotate(90)" fill="none" stroke="rgba(195,0,10,0.2)" stroke-width="2"/>
    <path id="Caminho_58" data-name="Caminho 58" d="M0,155.676,76.827,0" transform="translate(146.609 2164.365) rotate(90)" fill="none" stroke="rgba(195,0,10,0.2)" stroke-width="2"/>
    <path id="Caminho_59" data-name="Caminho 59" d="M70.456,104.277,0,0" transform="translate(147.115 2245.742) rotate(90)" fill="none" stroke="rgba(195,0,10,0.2)" stroke-width="2"/>
    <path id="Caminho_62" data-name="Caminho 62" d="M0,0,224.788,25.363" transform="translate(187.196 2006.715) rotate(90)" fill="none" stroke="rgba(195,0,10,0.2)" stroke-width="2"/>
    <path id="Caminho_69" data-name="Caminho 69" d="M56.539,158.745,0,0" transform="translate(22.91 2323.72) rotate(90)" fill="none" stroke="rgba(195,0,10,0.2)" stroke-width="2"/>
    <g id="Elipse_26" data-name="Elipse 26" transform="translate(-213.127 1977.359) rotate(-45)" fill="none" stroke="rgba(195,0,10,0.2)" stroke-width="1">
      <circle cx="13.702" cy="13.702" r="13.702" stroke="none"/>
      <circle cx="13.702" cy="13.702" r="13.202" fill="none"/>
    </g>
    <g id="Elipse_28" data-name="Elipse 28" transform="translate(-64.564 1908.891) rotate(-45)" fill="none" stroke="rgba(195,0,10,0.2)" stroke-width="1">
      <circle cx="13.702" cy="13.702" r="13.702" stroke="none"/>
      <circle cx="13.702" cy="13.702" r="13.202" fill="none"/>
    </g>
    <g id="Elipse_30" data-name="Elipse 30" transform="translate(-171.788 2145.3) rotate(-45)" fill="none" stroke="rgba(195,0,10,0.2)" stroke-width="1">
      <circle cx="13.702" cy="13.702" r="13.702" stroke="none"/>
      <circle cx="13.702" cy="13.702" r="13.202" fill="none"/>
    </g>
    <g id="Elipse_31" data-name="Elipse 31" transform="translate(-41.311 2038.076) rotate(-45)" fill="none" stroke="rgba(195,0,10,0.2)" stroke-width="1">
      <circle cx="13.702" cy="13.702" r="13.702" stroke="none"/>
      <circle cx="13.702" cy="13.702" r="13.202" fill="none"/>
    </g>
    <g id="Elipse_33" data-name="Elipse 33" transform="translate(-49.063 1774.538) rotate(-45)" fill="none" stroke="rgba(195,0,10,0.2)" stroke-width="1">
      <circle cx="13.702" cy="13.702" r="13.702" stroke="none"/>
      <circle cx="13.702" cy="13.702" r="13.202" fill="none"/>
    </g>
    <g id="Elipse_34" data-name="Elipse 34" transform="translate(-114.946 2277.069) rotate(-45)" fill="none" stroke="rgba(195,0,10,0.2)" stroke-width="1">
      <circle cx="13.702" cy="13.702" r="13.702" stroke="none"/>
      <circle cx="13.702" cy="13.702" r="13.202" fill="none"/>
    </g>
    <g id="Elipse_35" data-name="Elipse 35" transform="translate(-289.347 2216.352) rotate(-45)" fill="none" stroke="rgba(195,0,10,0.2)" stroke-width="1">
      <circle cx="13.702" cy="13.702" r="13.702" stroke="none"/>
      <circle cx="13.702" cy="13.702" r="13.202" fill="none"/>
    </g>
    <path id="Caminho_74" data-name="Caminho 74" d="M159,3271.5l127.687,50.723" transform="translate(-2609.791 -233.2) rotate(-45)" fill="none" stroke="rgba(249,183,0,0.1)" stroke-width="1"/>
    <path id="Caminho_79" data-name="Caminho 79" d="M110,3354l139.487,13.2" transform="translate(-2590.202 -156.306) rotate(-45)" fill="none" stroke="rgba(249,183,0,0.1)" stroke-width="1"/>
    <path id="Caminho_81" data-name="Caminho 81" d="M222.409,3417.62l-68.428-140.551" transform="translate(-2609.47 -227.009) rotate(-45)" fill="none" stroke="rgba(249,183,0,0.1)" stroke-width="1"/>
    <path id="Caminho_82" data-name="Caminho 82" d="M104.966,3402.324l75.187-126.643" transform="translate(-2638.942 -199.159) rotate(-45)" fill="none" stroke="rgba(249,183,0,0.1)" stroke-width="1"/>
    <path id="Caminho_86" data-name="Caminho 86" d="M73.5,3467.7l44.731-109.8" transform="translate(-2609.265 -132.683) rotate(-45)" fill="none" stroke="rgba(249,183,0,0.1)" stroke-width="1"/>
    <path id="Caminho_87" data-name="Caminho 87" d="M29.5,3341.805l68.009,144.718" transform="translate(-2644.404 -116.364) rotate(-45)" fill="none" stroke="rgba(249,183,0,0.1)" stroke-width="1"/>
    <path id="Caminho_88" data-name="Caminho 88" d="M37,3334.5l107.022,30.669" transform="translate(-2644.291 -125.022) rotate(-45)" fill="none" stroke="rgba(249,183,0,0.1)" stroke-width="1"/>
    <g id="Elipse_12" data-name="Elipse 12" transform="translate(-3.818 2146.884) rotate(90)" fill="none" stroke="rgba(255,215,0,0.3)" stroke-width="2">
      <circle cx="11.784" cy="11.784" r="11.784" stroke="none"/>
      <circle cx="11.784" cy="11.784" r="10.784" fill="none"/>
    </g>
    <g id="Elipse_15" data-name="Elipse 15" transform="translate(-46.241 1758.788) rotate(90)" fill="none" stroke="rgba(255,215,0,0.3)" stroke-width="2">
      <circle cx="11.784" cy="11.784" r="11.784" stroke="none"/>
      <circle cx="11.784" cy="11.784" r="10.784" fill="none"/>
    </g>
    <g id="Elipse_16" data-name="Elipse 16" transform="translate(-252.074 1796.498) rotate(90)" fill="none" stroke="rgba(255,215,0,0.3)" stroke-width="2">
      <circle cx="11.784" cy="11.784" r="11.784" stroke="none"/>
      <circle cx="11.784" cy="11.784" r="10.784" fill="none"/>
    </g>
    <g id="Elipse_17" data-name="Elipse 17" transform="translate(-90.236 1948.908) rotate(90)" fill="none" stroke="rgba(255,215,0,0.3)" stroke-width="2">
      <circle cx="11.784" cy="11.784" r="11.784" stroke="none"/>
      <circle cx="11.784" cy="11.784" r="10.784" fill="none"/>
    </g>
    <g id="Elipse_22" data-name="Elipse 22" transform="translate(-286.642 1683.368) rotate(90)" fill="none" stroke="rgba(255,215,0,0.3)" stroke-width="2">
      <circle cx="11.784" cy="11.784" r="11.784" stroke="none"/>
      <circle cx="11.784" cy="11.784" r="10.784" fill="none"/>
    </g>
    <g id="Elipse_23" data-name="Elipse 23" transform="translate(-138.944 1644.087) rotate(90)" fill="none" stroke="rgba(255,215,0,0.3)" stroke-width="2">
      <circle cx="11.784" cy="11.784" r="11.784" stroke="none"/>
      <circle cx="11.784" cy="11.784" r="10.784" fill="none"/>
    </g>
    <path id="Caminho_37" data-name="Caminho 37" d="M0,0,33.511,184.638" transform="translate(-68.406 1772.793) rotate(90)" fill="none" stroke="rgba(195,0,10,0.2)" stroke-width="2"/>
    <path id="Caminho_38" data-name="Caminho 38" d="M0,146.528,138.445,0" transform="translate(-109.802 1815.701) rotate(90)" fill="none" stroke="rgba(195,0,10,0.2)" stroke-width="2"/>
    <path id="Caminho_39" data-name="Caminho 39" d="M0,43.564,365.6,0" transform="translate(-17.549 1782.191) rotate(90)" fill="none" stroke="rgba(195,0,10,0.2)" stroke-width="2"/>
    <path id="Caminho_40" data-name="Caminho 40" d="M0,72.607,184.506,0" transform="translate(-26.09 1970.968) rotate(90)" fill="none" stroke="rgba(195,0,10,0.2)" stroke-width="2"/>
    <path id="Caminho_45" data-name="Caminho 45" d="M0,0,103.255,50.4" transform="translate(-8.152 1655.871) rotate(90)" fill="none" stroke="rgba(195,0,10,0.2)" stroke-width="2"/>
    <path id="Caminho_47" data-name="Caminho 47" d="M130.777,103.436,0,0" transform="translate(-155.074 1667.727) rotate(90)" fill="none" stroke="rgba(195,0,10,0.2)" stroke-width="2"/>
    <path id="Caminho_48" data-name="Caminho 48" d="M94.45,0,0,81.521" transform="translate(-65.865 1667.727) rotate(90)" fill="none" stroke="rgba(195,0,10,0.2)" stroke-width="2"/>
    <path id="Caminho_49" data-name="Caminho 49" d="M93.192,0,0,23.047" transform="translate(-269.553 1705.312) rotate(90)" fill="none" stroke="rgba(195,0,10,0.2)" stroke-width="2"/>
    <path id="Caminho_50" data-name="Caminho 50" d="M67.473,0,0,221.722" transform="translate(-68.315 1699.333) rotate(90)" fill="none" stroke="rgba(195,0,10,0.2)" stroke-width="2"/>
  </g>
</svg>
