<svg xmlns="http://www.w3.org/2000/svg" width="152.082" height="140.155" viewBox="0 0 152.082 140.155">
  <g id="Grupo_286" data-name="Grupo 286" transform="translate(-593.659 -4409.331)">
    <path id="Icon_awesome-home" data-name="Icon awesome-home" d="M59.06,26.732,20.224,58.718V93.241a3.37,3.37,0,0,0,3.37,3.37l23.6-.061a3.37,3.37,0,0,0,3.353-3.37V73.019a3.37,3.37,0,0,1,3.37-3.37H67.4a3.37,3.37,0,0,1,3.37,3.37V93.165a3.37,3.37,0,0,0,3.37,3.381l23.6.065a3.37,3.37,0,0,0,3.37-3.37V58.7L62.283,26.732A2.568,2.568,0,0,0,59.06,26.732Zm61.345,21.74L102.8,33.957V4.781a2.528,2.528,0,0,0-2.528-2.528h-11.8a2.528,2.528,0,0,0-2.528,2.528V20.076L67.085,4.56a10.111,10.111,0,0,0-12.849,0L.916,48.473a2.528,2.528,0,0,0-.337,3.56l5.371,6.53a2.528,2.528,0,0,0,3.562.343L59.06,18.1a2.568,2.568,0,0,1,3.223,0l49.549,40.81a2.528,2.528,0,0,0,3.56-.337l5.371-6.53a2.528,2.528,0,0,0-.358-3.566Z" transform="translate(594.662 4408.077)" fill="#fff" stroke="#373737" stroke-width="2"/>
    <path id="União_1" data-name="União 1" d="M-3756.2,375.419h-44c-1.547,0-2.8-.751-2.8-1.678V363.677c0-.926,1.255-1.677,2.8-1.677h4.2v4.613c0,.231.314.419.7.419h1.4c.387,0,.7-.188.7-.419V362h5.6v4.613c0,.231.313.419.7.419h1.4c.388,0,.7-.188.7-.419V362h5.6v4.613c0,.231.314.419.7.419h1.4c.386,0,.7-.188.7-.419V362h5.6v4.613c0,.231.313.419.7.419h1.4c.387,0,.7-.188.7-.419V362h5.6v4.613c0,.231.314.419.7.419h1.4c.386,0,.7-.188.7-.419V362h7.569v4.613c0,.231.314.419.7.419h1.4c.388,0,.7-.188.7-.419V362h5.6v4.613c0,.231.313.419.7.419h1.4c.387,0,.7-.188.7-.419V362h5.6v4.613c0,.231.314.419.7.419h1.4c.387,0,.7-.188.7-.419V362h5.6v4.613c0,.231.313.419.7.419h1.4c.388,0,.7-.188.7-.419V362h5.6v4.613c0,.231.314.419.7.419h1.4c.386,0,.7-.188.7-.419V362h4.2c1.547,0,2.8.751,2.8,1.677v10.064c0,.927-1.255,1.678-2.8,1.678Z" transform="matrix(0.966, -0.259, 0.259, 0.966, 4230.153, 3201.957)" fill="#fff" stroke="#373737" stroke-width="1"/>
  </g>
</svg>
