<svg xmlns="http://www.w3.org/2000/svg" xmlns:xlink="http://www.w3.org/1999/xlink" width="201.68" height="155.621" viewBox="0 0 201.68 155.621">
  <defs>
    <clipPath id="clip-path">
      <rect width="133.024" height="10.812" fill="none"/>
    </clipPath>
  </defs>
  <g id="Grupo_284" data-name="Grupo 284" transform="translate(-577.16 -4421.943)">
    <g id="Grupo_283" data-name="Grupo 283" transform="translate(578.16 4487.391)">
      <path id="Icon_material-computer" data-name="Icon material-computer" d="M111.238,84.027A11.121,11.121,0,0,0,122.307,72.88l.056-55.733A11.168,11.168,0,0,0,111.238,6H22.248A11.168,11.168,0,0,0,11.124,17.147V72.88A11.168,11.168,0,0,0,22.248,84.027H0V95.173H133.486V84.027ZM22.248,17.147h88.991V72.88H22.248Z" transform="translate(0 -6)" fill="#fff" stroke="#C3000A" stroke-width="2"/>
      <g id="Repetição_de_grade_1" data-name="Repetição de grade 1" transform="translate(0.545 77.797)" clip-path="url(#clip-path)">
        <g transform="translate(-679.5 -4749)">
          <line id="Linha_36" data-name="Linha 36" x2="6" transform="translate(679.5 4749.5)" fill="none" stroke="#C3000A" stroke-width="1"/>
          <line id="Linha_37" data-name="Linha 37" y1="16" transform="translate(683.5 4749.5)" fill="none" stroke="#C3000A" stroke-width="1"/>
          <line id="Linha_38" data-name="Linha 38" x2="6" transform="translate(679.5 4753.5)" fill="none" stroke="#C3000A" stroke-width="1"/>
          <line id="Linha_39" data-name="Linha 39" x2="6" transform="translate(679.5 4756.5)" fill="none" stroke="#C3000A" stroke-width="1"/>
          <line id="Linha_40" data-name="Linha 40" x2="6" transform="translate(679.5 4759.5)" fill="none" stroke="#C3000A" stroke-width="1"/>
          <line id="Linha_41" data-name="Linha 41" x2="6" transform="translate(679.5 4762.5)" fill="none" stroke="#C3000A" stroke-width="1"/>
        </g>
        <g transform="translate(-674.5 -4749)">
          <line id="Linha_36-2" data-name="Linha 36" x2="6" transform="translate(679.5 4749.5)" fill="none" stroke="#C3000A" stroke-width="1"/>
          <line id="Linha_37-2" data-name="Linha 37" y1="16" transform="translate(683.5 4749.5)" fill="none" stroke="#C3000A" stroke-width="1"/>
          <line id="Linha_38-2" data-name="Linha 38" x2="6" transform="translate(679.5 4753.5)" fill="none" stroke="#C3000A" stroke-width="1"/>
          <line id="Linha_39-2" data-name="Linha 39" x2="6" transform="translate(679.5 4756.5)" fill="none" stroke="#C3000A" stroke-width="1"/>
          <line id="Linha_40-2" data-name="Linha 40" x2="6" transform="translate(679.5 4759.5)" fill="none" stroke="#C3000A" stroke-width="1"/>
          <line id="Linha_41-2" data-name="Linha 41" x2="6" transform="translate(679.5 4762.5)" fill="none" stroke="#C3000A" stroke-width="1"/>
        </g>
        <g transform="translate(-669.5 -4749)">
          <line id="Linha_36-3" data-name="Linha 36" x2="6" transform="translate(679.5 4749.5)" fill="none" stroke="#C3000A" stroke-width="1"/>
          <line id="Linha_37-3" data-name="Linha 37" y1="16" transform="translate(683.5 4749.5)" fill="none" stroke="#C3000A" stroke-width="1"/>
          <line id="Linha_38-3" data-name="Linha 38" x2="6" transform="translate(679.5 4753.5)" fill="none" stroke="#C3000A" stroke-width="1"/>
          <line id="Linha_39-3" data-name="Linha 39" x2="6" transform="translate(679.5 4756.5)" fill="none" stroke="#C3000A" stroke-width="1"/>
          <line id="Linha_40-3" data-name="Linha 40" x2="6" transform="translate(679.5 4759.5)" fill="none" stroke="#C3000A" stroke-width="1"/>
          <line id="Linha_41-3" data-name="Linha 41" x2="6" transform="translate(679.5 4762.5)" fill="none" stroke="#C3000A" stroke-width="1"/>
        </g>
        <g transform="translate(-664.5 -4749)">
          <line id="Linha_36-4" data-name="Linha 36" x2="6" transform="translate(679.5 4749.5)" fill="none" stroke="#C3000A" stroke-width="1"/>
          <line id="Linha_37-4" data-name="Linha 37" y1="16" transform="translate(683.5 4749.5)" fill="none" stroke="#C3000A" stroke-width="1"/>
          <line id="Linha_38-4" data-name="Linha 38" x2="6" transform="translate(679.5 4753.5)" fill="none" stroke="#C3000A" stroke-width="1"/>
          <line id="Linha_39-4" data-name="Linha 39" x2="6" transform="translate(679.5 4756.5)" fill="none" stroke="#C3000A" stroke-width="1"/>
          <line id="Linha_40-4" data-name="Linha 40" x2="6" transform="translate(679.5 4759.5)" fill="none" stroke="#C3000A" stroke-width="1"/>
          <line id="Linha_41-4" data-name="Linha 41" x2="6" transform="translate(679.5 4762.5)" fill="none" stroke="#C3000A" stroke-width="1"/>
        </g>
        <g transform="translate(-659.5 -4749)">
          <line id="Linha_36-5" data-name="Linha 36" x2="6" transform="translate(679.5 4749.5)" fill="none" stroke="#C3000A" stroke-width="1"/>
          <line id="Linha_37-5" data-name="Linha 37" y1="16" transform="translate(683.5 4749.5)" fill="none" stroke="#C3000A" stroke-width="1"/>
          <line id="Linha_38-5" data-name="Linha 38" x2="6" transform="translate(679.5 4753.5)" fill="none" stroke="#C3000A" stroke-width="1"/>
          <line id="Linha_39-5" data-name="Linha 39" x2="6" transform="translate(679.5 4756.5)" fill="none" stroke="#C3000A" stroke-width="1"/>
          <line id="Linha_40-5" data-name="Linha 40" x2="6" transform="translate(679.5 4759.5)" fill="none" stroke="#C3000A" stroke-width="1"/>
          <line id="Linha_41-5" data-name="Linha 41" x2="6" transform="translate(679.5 4762.5)" fill="none" stroke="#C3000A" stroke-width="1"/>
        </g>
        <g transform="translate(-654.5 -4749)">
          <line id="Linha_36-6" data-name="Linha 36" x2="6" transform="translate(679.5 4749.5)" fill="none" stroke="#C3000A" stroke-width="1"/>
          <line id="Linha_37-6" data-name="Linha 37" y1="16" transform="translate(683.5 4749.5)" fill="none" stroke="#C3000A" stroke-width="1"/>
          <line id="Linha_38-6" data-name="Linha 38" x2="6" transform="translate(679.5 4753.5)" fill="none" stroke="#C3000A" stroke-width="1"/>
          <line id="Linha_39-6" data-name="Linha 39" x2="6" transform="translate(679.5 4756.5)" fill="none" stroke="#C3000A" stroke-width="1"/>
          <line id="Linha_40-6" data-name="Linha 40" x2="6" transform="translate(679.5 4759.5)" fill="none" stroke="#C3000A" stroke-width="1"/>
          <line id="Linha_41-6" data-name="Linha 41" x2="6" transform="translate(679.5 4762.5)" fill="none" stroke="#C3000A" stroke-width="1"/>
        </g>
        <g transform="translate(-649.5 -4749)">
          <line id="Linha_36-7" data-name="Linha 36" x2="6" transform="translate(679.5 4749.5)" fill="none" stroke="#C3000A" stroke-width="1"/>
          <line id="Linha_37-7" data-name="Linha 37" y1="16" transform="translate(683.5 4749.5)" fill="none" stroke="#C3000A" stroke-width="1"/>
          <line id="Linha_38-7" data-name="Linha 38" x2="6" transform="translate(679.5 4753.5)" fill="none" stroke="#C3000A" stroke-width="1"/>
          <line id="Linha_39-7" data-name="Linha 39" x2="6" transform="translate(679.5 4756.5)" fill="none" stroke="#C3000A" stroke-width="1"/>
          <line id="Linha_40-7" data-name="Linha 40" x2="6" transform="translate(679.5 4759.5)" fill="none" stroke="#C3000A" stroke-width="1"/>
          <line id="Linha_41-7" data-name="Linha 41" x2="6" transform="translate(679.5 4762.5)" fill="none" stroke="#C3000A" stroke-width="1"/>
        </g>
        <g transform="translate(-644.5 -4749)">
          <line id="Linha_36-8" data-name="Linha 36" x2="6" transform="translate(679.5 4749.5)" fill="none" stroke="#C3000A" stroke-width="1"/>
          <line id="Linha_37-8" data-name="Linha 37" y1="16" transform="translate(683.5 4749.5)" fill="none" stroke="#C3000A" stroke-width="1"/>
          <line id="Linha_38-8" data-name="Linha 38" x2="6" transform="translate(679.5 4753.5)" fill="none" stroke="#C3000A" stroke-width="1"/>
          <line id="Linha_39-8" data-name="Linha 39" x2="6" transform="translate(679.5 4756.5)" fill="none" stroke="#C3000A" stroke-width="1"/>
          <line id="Linha_40-8" data-name="Linha 40" x2="6" transform="translate(679.5 4759.5)" fill="none" stroke="#C3000A" stroke-width="1"/>
          <line id="Linha_41-8" data-name="Linha 41" x2="6" transform="translate(679.5 4762.5)" fill="none" stroke="#C3000A" stroke-width="1"/>
        </g>
        <g transform="translate(-639.5 -4749)">
          <line id="Linha_36-9" data-name="Linha 36" x2="6" transform="translate(679.5 4749.5)" fill="none" stroke="#C3000A" stroke-width="1"/>
          <line id="Linha_37-9" data-name="Linha 37" y1="16" transform="translate(683.5 4749.5)" fill="none" stroke="#C3000A" stroke-width="1"/>
          <line id="Linha_38-9" data-name="Linha 38" x2="6" transform="translate(679.5 4753.5)" fill="none" stroke="#C3000A" stroke-width="1"/>
          <line id="Linha_39-9" data-name="Linha 39" x2="6" transform="translate(679.5 4756.5)" fill="none" stroke="#C3000A" stroke-width="1"/>
          <line id="Linha_40-9" data-name="Linha 40" x2="6" transform="translate(679.5 4759.5)" fill="none" stroke="#C3000A" stroke-width="1"/>
          <line id="Linha_41-9" data-name="Linha 41" x2="6" transform="translate(679.5 4762.5)" fill="none" stroke="#C3000A" stroke-width="1"/>
        </g>
        <g transform="translate(-634.5 -4749)">
          <line id="Linha_36-10" data-name="Linha 36" x2="6" transform="translate(679.5 4749.5)" fill="none" stroke="#C3000A" stroke-width="1"/>
          <line id="Linha_37-10" data-name="Linha 37" y1="16" transform="translate(683.5 4749.5)" fill="none" stroke="#C3000A" stroke-width="1"/>
          <line id="Linha_38-10" data-name="Linha 38" x2="6" transform="translate(679.5 4753.5)" fill="none" stroke="#C3000A" stroke-width="1"/>
          <line id="Linha_39-10" data-name="Linha 39" x2="6" transform="translate(679.5 4756.5)" fill="none" stroke="#C3000A" stroke-width="1"/>
          <line id="Linha_40-10" data-name="Linha 40" x2="6" transform="translate(679.5 4759.5)" fill="none" stroke="#C3000A" stroke-width="1"/>
          <line id="Linha_41-10" data-name="Linha 41" x2="6" transform="translate(679.5 4762.5)" fill="none" stroke="#C3000A" stroke-width="1"/>
        </g>
        <g transform="translate(-629.5 -4749)">
          <line id="Linha_36-11" data-name="Linha 36" x2="6" transform="translate(679.5 4749.5)" fill="none" stroke="#C3000A" stroke-width="1"/>
          <line id="Linha_37-11" data-name="Linha 37" y1="16" transform="translate(683.5 4749.5)" fill="none" stroke="#C3000A" stroke-width="1"/>
          <line id="Linha_38-11" data-name="Linha 38" x2="6" transform="translate(679.5 4753.5)" fill="none" stroke="#C3000A" stroke-width="1"/>
          <line id="Linha_39-11" data-name="Linha 39" x2="6" transform="translate(679.5 4756.5)" fill="none" stroke="#C3000A" stroke-width="1"/>
          <line id="Linha_40-11" data-name="Linha 40" x2="6" transform="translate(679.5 4759.5)" fill="none" stroke="#C3000A" stroke-width="1"/>
          <line id="Linha_41-11" data-name="Linha 41" x2="6" transform="translate(679.5 4762.5)" fill="none" stroke="#C3000A" stroke-width="1"/>
        </g>
        <g transform="translate(-624.5 -4749)">
          <line id="Linha_36-12" data-name="Linha 36" x2="6" transform="translate(679.5 4749.5)" fill="none" stroke="#C3000A" stroke-width="1"/>
          <line id="Linha_37-12" data-name="Linha 37" y1="16" transform="translate(683.5 4749.5)" fill="none" stroke="#C3000A" stroke-width="1"/>
          <line id="Linha_38-12" data-name="Linha 38" x2="6" transform="translate(679.5 4753.5)" fill="none" stroke="#C3000A" stroke-width="1"/>
          <line id="Linha_39-12" data-name="Linha 39" x2="6" transform="translate(679.5 4756.5)" fill="none" stroke="#C3000A" stroke-width="1"/>
          <line id="Linha_40-12" data-name="Linha 40" x2="6" transform="translate(679.5 4759.5)" fill="none" stroke="#C3000A" stroke-width="1"/>
          <line id="Linha_41-12" data-name="Linha 41" x2="6" transform="translate(679.5 4762.5)" fill="none" stroke="#C3000A" stroke-width="1"/>
        </g>
        <g transform="translate(-619.5 -4749)">
          <line id="Linha_36-13" data-name="Linha 36" x2="6" transform="translate(679.5 4749.5)" fill="none" stroke="#C3000A" stroke-width="1"/>
          <line id="Linha_37-13" data-name="Linha 37" y1="16" transform="translate(683.5 4749.5)" fill="none" stroke="#C3000A" stroke-width="1"/>
          <line id="Linha_38-13" data-name="Linha 38" x2="6" transform="translate(679.5 4753.5)" fill="none" stroke="#C3000A" stroke-width="1"/>
          <line id="Linha_39-13" data-name="Linha 39" x2="6" transform="translate(679.5 4756.5)" fill="none" stroke="#C3000A" stroke-width="1"/>
          <line id="Linha_40-13" data-name="Linha 40" x2="6" transform="translate(679.5 4759.5)" fill="none" stroke="#C3000A" stroke-width="1"/>
          <line id="Linha_41-13" data-name="Linha 41" x2="6" transform="translate(679.5 4762.5)" fill="none" stroke="#C3000A" stroke-width="1"/>
        </g>
        <g transform="translate(-614.5 -4749)">
          <line id="Linha_36-14" data-name="Linha 36" x2="6" transform="translate(679.5 4749.5)" fill="none" stroke="#C3000A" stroke-width="1"/>
          <line id="Linha_37-14" data-name="Linha 37" y1="16" transform="translate(683.5 4749.5)" fill="none" stroke="#C3000A" stroke-width="1"/>
          <line id="Linha_38-14" data-name="Linha 38" x2="6" transform="translate(679.5 4753.5)" fill="none" stroke="#C3000A" stroke-width="1"/>
          <line id="Linha_39-14" data-name="Linha 39" x2="6" transform="translate(679.5 4756.5)" fill="none" stroke="#C3000A" stroke-width="1"/>
          <line id="Linha_40-14" data-name="Linha 40" x2="6" transform="translate(679.5 4759.5)" fill="none" stroke="#C3000A" stroke-width="1"/>
          <line id="Linha_41-14" data-name="Linha 41" x2="6" transform="translate(679.5 4762.5)" fill="none" stroke="#C3000A" stroke-width="1"/>
        </g>
        <g transform="translate(-609.5 -4749)">
          <line id="Linha_36-15" data-name="Linha 36" x2="6" transform="translate(679.5 4749.5)" fill="none" stroke="#C3000A" stroke-width="1"/>
          <line id="Linha_37-15" data-name="Linha 37" y1="16" transform="translate(683.5 4749.5)" fill="none" stroke="#C3000A" stroke-width="1"/>
          <line id="Linha_38-15" data-name="Linha 38" x2="6" transform="translate(679.5 4753.5)" fill="none" stroke="#C3000A" stroke-width="1"/>
          <line id="Linha_39-15" data-name="Linha 39" x2="6" transform="translate(679.5 4756.5)" fill="none" stroke="#C3000A" stroke-width="1"/>
          <line id="Linha_40-15" data-name="Linha 40" x2="6" transform="translate(679.5 4759.5)" fill="none" stroke="#C3000A" stroke-width="1"/>
          <line id="Linha_41-15" data-name="Linha 41" x2="6" transform="translate(679.5 4762.5)" fill="none" stroke="#C3000A" stroke-width="1"/>
        </g>
        <g transform="translate(-604.5 -4749)">
          <line id="Linha_36-16" data-name="Linha 36" x2="6" transform="translate(679.5 4749.5)" fill="none" stroke="#C3000A" stroke-width="1"/>
          <line id="Linha_37-16" data-name="Linha 37" y1="16" transform="translate(683.5 4749.5)" fill="none" stroke="#C3000A" stroke-width="1"/>
          <line id="Linha_38-16" data-name="Linha 38" x2="6" transform="translate(679.5 4753.5)" fill="none" stroke="#C3000A" stroke-width="1"/>
          <line id="Linha_39-16" data-name="Linha 39" x2="6" transform="translate(679.5 4756.5)" fill="none" stroke="#C3000A" stroke-width="1"/>
          <line id="Linha_40-16" data-name="Linha 40" x2="6" transform="translate(679.5 4759.5)" fill="none" stroke="#C3000A" stroke-width="1"/>
          <line id="Linha_41-16" data-name="Linha 41" x2="6" transform="translate(679.5 4762.5)" fill="none" stroke="#C3000A" stroke-width="1"/>
        </g>
        <g transform="translate(-599.5 -4749)">
          <line id="Linha_36-17" data-name="Linha 36" x2="6" transform="translate(679.5 4749.5)" fill="none" stroke="#C3000A" stroke-width="1"/>
          <line id="Linha_37-17" data-name="Linha 37" y1="16" transform="translate(683.5 4749.5)" fill="none" stroke="#C3000A" stroke-width="1"/>
          <line id="Linha_38-17" data-name="Linha 38" x2="6" transform="translate(679.5 4753.5)" fill="none" stroke="#C3000A" stroke-width="1"/>
          <line id="Linha_39-17" data-name="Linha 39" x2="6" transform="translate(679.5 4756.5)" fill="none" stroke="#C3000A" stroke-width="1"/>
          <line id="Linha_40-17" data-name="Linha 40" x2="6" transform="translate(679.5 4759.5)" fill="none" stroke="#C3000A" stroke-width="1"/>
          <line id="Linha_41-17" data-name="Linha 41" x2="6" transform="translate(679.5 4762.5)" fill="none" stroke="#C3000A" stroke-width="1"/>
        </g>
        <g transform="translate(-594.5 -4749)">
          <line id="Linha_36-18" data-name="Linha 36" x2="6" transform="translate(679.5 4749.5)" fill="none" stroke="#C3000A" stroke-width="1"/>
          <line id="Linha_37-18" data-name="Linha 37" y1="16" transform="translate(683.5 4749.5)" fill="none" stroke="#C3000A" stroke-width="1"/>
          <line id="Linha_38-18" data-name="Linha 38" x2="6" transform="translate(679.5 4753.5)" fill="none" stroke="#C3000A" stroke-width="1"/>
          <line id="Linha_39-18" data-name="Linha 39" x2="6" transform="translate(679.5 4756.5)" fill="none" stroke="#C3000A" stroke-width="1"/>
          <line id="Linha_40-18" data-name="Linha 40" x2="6" transform="translate(679.5 4759.5)" fill="none" stroke="#C3000A" stroke-width="1"/>
          <line id="Linha_41-18" data-name="Linha 41" x2="6" transform="translate(679.5 4762.5)" fill="none" stroke="#C3000A" stroke-width="1"/>
        </g>
        <g transform="translate(-589.5 -4749)">
          <line id="Linha_36-19" data-name="Linha 36" x2="6" transform="translate(679.5 4749.5)" fill="none" stroke="#C3000A" stroke-width="1"/>
          <line id="Linha_37-19" data-name="Linha 37" y1="16" transform="translate(683.5 4749.5)" fill="none" stroke="#C3000A" stroke-width="1"/>
          <line id="Linha_38-19" data-name="Linha 38" x2="6" transform="translate(679.5 4753.5)" fill="none" stroke="#C3000A" stroke-width="1"/>
          <line id="Linha_39-19" data-name="Linha 39" x2="6" transform="translate(679.5 4756.5)" fill="none" stroke="#C3000A" stroke-width="1"/>
          <line id="Linha_40-19" data-name="Linha 40" x2="6" transform="translate(679.5 4759.5)" fill="none" stroke="#C3000A" stroke-width="1"/>
          <line id="Linha_41-19" data-name="Linha 41" x2="6" transform="translate(679.5 4762.5)" fill="none" stroke="#C3000A" stroke-width="1"/>
        </g>
        <g transform="translate(-584.5 -4749)">
          <line id="Linha_36-20" data-name="Linha 36" x2="6" transform="translate(679.5 4749.5)" fill="none" stroke="#C3000A" stroke-width="1"/>
          <line id="Linha_37-20" data-name="Linha 37" y1="16" transform="translate(683.5 4749.5)" fill="none" stroke="#C3000A" stroke-width="1"/>
          <line id="Linha_38-20" data-name="Linha 38" x2="6" transform="translate(679.5 4753.5)" fill="none" stroke="#C3000A" stroke-width="1"/>
          <line id="Linha_39-20" data-name="Linha 39" x2="6" transform="translate(679.5 4756.5)" fill="none" stroke="#C3000A" stroke-width="1"/>
          <line id="Linha_40-20" data-name="Linha 40" x2="6" transform="translate(679.5 4759.5)" fill="none" stroke="#C3000A" stroke-width="1"/>
          <line id="Linha_41-20" data-name="Linha 41" x2="6" transform="translate(679.5 4762.5)" fill="none" stroke="#C3000A" stroke-width="1"/>
        </g>
        <g transform="translate(-579.5 -4749)">
          <line id="Linha_36-21" data-name="Linha 36" x2="6" transform="translate(679.5 4749.5)" fill="none" stroke="#C3000A" stroke-width="1"/>
          <line id="Linha_37-21" data-name="Linha 37" y1="16" transform="translate(683.5 4749.5)" fill="none" stroke="#C3000A" stroke-width="1"/>
          <line id="Linha_38-21" data-name="Linha 38" x2="6" transform="translate(679.5 4753.5)" fill="none" stroke="#C3000A" stroke-width="1"/>
          <line id="Linha_39-21" data-name="Linha 39" x2="6" transform="translate(679.5 4756.5)" fill="none" stroke="#C3000A" stroke-width="1"/>
          <line id="Linha_40-21" data-name="Linha 40" x2="6" transform="translate(679.5 4759.5)" fill="none" stroke="#C3000A" stroke-width="1"/>
          <line id="Linha_41-21" data-name="Linha 41" x2="6" transform="translate(679.5 4762.5)" fill="none" stroke="#C3000A" stroke-width="1"/>
        </g>
        <g transform="translate(-574.5 -4749)">
          <line id="Linha_36-22" data-name="Linha 36" x2="6" transform="translate(679.5 4749.5)" fill="none" stroke="#C3000A" stroke-width="1"/>
          <line id="Linha_37-22" data-name="Linha 37" y1="16" transform="translate(683.5 4749.5)" fill="none" stroke="#C3000A" stroke-width="1"/>
          <line id="Linha_38-22" data-name="Linha 38" x2="6" transform="translate(679.5 4753.5)" fill="none" stroke="#C3000A" stroke-width="1"/>
          <line id="Linha_39-22" data-name="Linha 39" x2="6" transform="translate(679.5 4756.5)" fill="none" stroke="#C3000A" stroke-width="1"/>
          <line id="Linha_40-22" data-name="Linha 40" x2="6" transform="translate(679.5 4759.5)" fill="none" stroke="#C3000A" stroke-width="1"/>
          <line id="Linha_41-22" data-name="Linha 41" x2="6" transform="translate(679.5 4762.5)" fill="none" stroke="#C3000A" stroke-width="1"/>
        </g>
        <g transform="translate(-569.5 -4749)">
          <line id="Linha_36-23" data-name="Linha 36" x2="6" transform="translate(679.5 4749.5)" fill="none" stroke="#C3000A" stroke-width="1"/>
          <line id="Linha_37-23" data-name="Linha 37" y1="16" transform="translate(683.5 4749.5)" fill="none" stroke="#C3000A" stroke-width="1"/>
          <line id="Linha_38-23" data-name="Linha 38" x2="6" transform="translate(679.5 4753.5)" fill="none" stroke="#C3000A" stroke-width="1"/>
          <line id="Linha_39-23" data-name="Linha 39" x2="6" transform="translate(679.5 4756.5)" fill="none" stroke="#C3000A" stroke-width="1"/>
          <line id="Linha_40-23" data-name="Linha 40" x2="6" transform="translate(679.5 4759.5)" fill="none" stroke="#C3000A" stroke-width="1"/>
          <line id="Linha_41-23" data-name="Linha 41" x2="6" transform="translate(679.5 4762.5)" fill="none" stroke="#C3000A" stroke-width="1"/>
        </g>
        <g transform="translate(-564.5 -4749)">
          <line id="Linha_36-24" data-name="Linha 36" x2="6" transform="translate(679.5 4749.5)" fill="none" stroke="#C3000A" stroke-width="1"/>
          <line id="Linha_37-24" data-name="Linha 37" y1="16" transform="translate(683.5 4749.5)" fill="none" stroke="#C3000A" stroke-width="1"/>
          <line id="Linha_38-24" data-name="Linha 38" x2="6" transform="translate(679.5 4753.5)" fill="none" stroke="#C3000A" stroke-width="1"/>
          <line id="Linha_39-24" data-name="Linha 39" x2="6" transform="translate(679.5 4756.5)" fill="none" stroke="#C3000A" stroke-width="1"/>
          <line id="Linha_40-24" data-name="Linha 40" x2="6" transform="translate(679.5 4759.5)" fill="none" stroke="#C3000A" stroke-width="1"/>
          <line id="Linha_41-24" data-name="Linha 41" x2="6" transform="translate(679.5 4762.5)" fill="none" stroke="#C3000A" stroke-width="1"/>
        </g>
        <g transform="translate(-559.5 -4749)">
          <line id="Linha_36-25" data-name="Linha 36" x2="6" transform="translate(679.5 4749.5)" fill="none" stroke="#C3000A" stroke-width="1"/>
          <line id="Linha_37-25" data-name="Linha 37" y1="16" transform="translate(683.5 4749.5)" fill="none" stroke="#C3000A" stroke-width="1"/>
          <line id="Linha_38-25" data-name="Linha 38" x2="6" transform="translate(679.5 4753.5)" fill="none" stroke="#C3000A" stroke-width="1"/>
          <line id="Linha_39-25" data-name="Linha 39" x2="6" transform="translate(679.5 4756.5)" fill="none" stroke="#C3000A" stroke-width="1"/>
          <line id="Linha_40-25" data-name="Linha 40" x2="6" transform="translate(679.5 4759.5)" fill="none" stroke="#C3000A" stroke-width="1"/>
          <line id="Linha_41-25" data-name="Linha 41" x2="6" transform="translate(679.5 4762.5)" fill="none" stroke="#C3000A" stroke-width="1"/>
        </g>
        <g transform="translate(-554.5 -4749)">
          <line id="Linha_36-26" data-name="Linha 36" x2="6" transform="translate(679.5 4749.5)" fill="none" stroke="#C3000A" stroke-width="1"/>
          <line id="Linha_37-26" data-name="Linha 37" y1="16" transform="translate(683.5 4749.5)" fill="none" stroke="#C3000A" stroke-width="1"/>
          <line id="Linha_38-26" data-name="Linha 38" x2="6" transform="translate(679.5 4753.5)" fill="none" stroke="#C3000A" stroke-width="1"/>
          <line id="Linha_39-26" data-name="Linha 39" x2="6" transform="translate(679.5 4756.5)" fill="none" stroke="#C3000A" stroke-width="1"/>
          <line id="Linha_40-26" data-name="Linha 40" x2="6" transform="translate(679.5 4759.5)" fill="none" stroke="#C3000A" stroke-width="1"/>
          <line id="Linha_41-26" data-name="Linha 41" x2="6" transform="translate(679.5 4762.5)" fill="none" stroke="#C3000A" stroke-width="1"/>
        </g>
        <g transform="translate(-549.5 -4749)">
          <line id="Linha_36-27" data-name="Linha 36" x2="6" transform="translate(679.5 4749.5)" fill="none" stroke="#C3000A" stroke-width="1"/>
          <line id="Linha_37-27" data-name="Linha 37" y1="16" transform="translate(683.5 4749.5)" fill="none" stroke="#C3000A" stroke-width="1"/>
          <line id="Linha_38-27" data-name="Linha 38" x2="6" transform="translate(679.5 4753.5)" fill="none" stroke="#C3000A" stroke-width="1"/>
          <line id="Linha_39-27" data-name="Linha 39" x2="6" transform="translate(679.5 4756.5)" fill="none" stroke="#C3000A" stroke-width="1"/>
          <line id="Linha_40-27" data-name="Linha 40" x2="6" transform="translate(679.5 4759.5)" fill="none" stroke="#C3000A" stroke-width="1"/>
          <line id="Linha_41-27" data-name="Linha 41" x2="6" transform="translate(679.5 4762.5)" fill="none" stroke="#C3000A" stroke-width="1"/>
        </g>
      </g>
    </g>
    <path id="Icon_awesome-tablet-alt" data-name="Icon awesome-tablet-alt" d="M61.08,0H7.33A7.331,7.331,0,0,0,0,7.33V70.853a7.331,7.331,0,0,0,7.33,7.33H61.08a7.331,7.331,0,0,0,7.33-7.33V7.33A7.331,7.331,0,0,0,61.08,0ZM34.2,73.3a4.886,4.886,0,1,1,4.886-4.886A4.881,4.881,0,0,1,34.2,73.3ZM61.08,56.8a1.838,1.838,0,0,1-1.832,1.832H9.162A1.838,1.838,0,0,1,7.33,56.8V9.162A1.838,1.838,0,0,1,9.162,7.33H59.248A1.838,1.838,0,0,1,61.08,9.162Z" transform="translate(674.225 4422.943)" fill="#fff" stroke="#C3000A" stroke-width="2"/>
    <path id="Icon_material-phone-iphone" data-name="Icon material-phone-iphone" d="M40.815,1.5H15.432A7.935,7.935,0,0,0,7.5,9.432V63.37A7.935,7.935,0,0,0,15.432,71.3H40.815a7.935,7.935,0,0,0,7.932-7.932V9.432A7.935,7.935,0,0,0,40.815,1.5ZM28.123,68.129a4.759,4.759,0,1,1,4.759-4.759A4.753,4.753,0,0,1,28.123,68.129ZM42.4,55.438H13.846V11.018H42.4Z" transform="translate(729.093 4472.217)" fill="#fff" stroke="#C3000A" stroke-width="2"/>
  </g>
</svg>
