<svg xmlns="http://www.w3.org/2000/svg" width="229.219" height="172.568" viewBox="0 0 229.219 172.568">
  <g id="Grupo_285" data-name="Grupo 285" transform="translate(-913.781 -4495.257)">
    <g id="Icon_ionic-logo-game-controller-b" data-name="Icon ionic-logo-game-controller-b" transform="translate(912.216 4624.434)">
      <path id="Caminho_109" data-name="Caminho 109" d="M10.322,14.386a2.191,2.191,0,1,0,2.18,2.191A2.184,2.184,0,0,0,10.322,14.386Z" transform="translate(3.576 4.627)" fill="#fff" stroke="#373737" stroke-width="1"/>
      <path id="Caminho_110" data-name="Caminho 110" d="M51.309,24.017c-2.395-10-4.925-15.306-10-16.808a10.076,10.076,0,0,0-2.9-.452c-3.118,0-5.3,1.66-10.855,1.66S19.817,6.757,16.7,6.757a9.964,9.964,0,0,0-2.9.452c-5.072,1.5-7.6,6.823-10,16.808s-1.954,17.214.87,18.559a3.3,3.3,0,0,0,1.412.316c2.451,0,5.094-2.688,7.647-5.874,2.9-3.626,3.626-3.728,12.459-3.728h2.745c8.822,0,9.556.09,12.459,3.728,2.542,3.185,5.2,5.874,7.647,5.874a3.332,3.332,0,0,0,1.412-.316C53.263,41.22,53.692,34,51.309,24.017Zm-37.4,1.66A4.473,4.473,0,1,1,18.337,21.2,4.459,4.459,0,0,1,13.909,25.677Zm19.53-2.2a2.27,2.27,0,1,1,2.27-2.27A2.271,2.271,0,0,1,33.439,23.474ZM38.4,28.433a2.265,2.265,0,1,1,2.27-2.259A2.268,2.268,0,0,1,38.4,28.433Zm0-9.918a2.27,2.27,0,1,1,2.27-2.27A2.271,2.271,0,0,1,38.4,18.516Zm4.959,4.959a2.27,2.27,0,1,1,2.27-2.27A2.271,2.271,0,0,1,43.357,23.474Z" fill="#fff" stroke="#373737" stroke-width="1"/>
    </g>
    <path id="Icon_ionic-logo-game-controller-a" data-name="Icon ionic-logo-game-controller-a" d="M46.09,10.266H16.638A14.018,14.018,0,0,0,2.25,24.485,14.14,14.14,0,0,0,16.638,38.86H46.077A14.14,14.14,0,0,0,60.465,24.485,14,14,0,0,0,46.09,10.266Zm-22,15.688a.709.709,0,0,1-.676.689H18.887V31.2a.738.738,0,0,1-.754.637H15.351a.6.6,0,0,1-.624-.585V26.642H10.165a.738.738,0,0,1-.637-.754V23.107a.6.6,0,0,1,.585-.624h4.614V17.96a.633.633,0,0,1,.6-.676H18.2a.709.709,0,0,1,.689.676v4.523H23.41a.633.633,0,0,1,.676.6ZM39.656,27.1a2.5,2.5,0,1,1,2.534-2.5A2.521,2.521,0,0,1,39.656,27.1ZM45.18,32.53a2.489,2.489,0,1,1,2.534-2.482A2.51,2.51,0,0,1,45.18,32.53Zm0-10.879a2.489,2.489,0,1,1,2.534-2.482A2.519,2.519,0,0,1,45.18,21.651ZM50.717,27.1a2.5,2.5,0,1,1,2.534-2.5A2.51,2.51,0,0,1,50.717,27.1Z" transform="translate(1071.605 4624.695)" fill="#fff" stroke="#373737" stroke-width="1"/>
    <g id="Icon_ionic-ios-desktop" data-name="Icon ionic-ios-desktop" transform="translate(962.823 4491.757)">
      <path id="Caminho_111" data-name="Caminho 111" d="M57.878,38.372a1.237,1.237,0,0,0-1.02-1.044l-5.415-.461c-2.865-.753-4.978-3.934-5.415-6.872l-.291-1.87H23.4l-.291,1.845c-.461,2.938-2.55,6.119-5.415,6.872l-5.415.461a1.325,1.325,0,0,0-1.02,1.044A1.245,1.245,0,0,0,12.5,39.756H56.64A1.227,1.227,0,0,0,57.878,38.372Z" transform="translate(22.073 57.961)" fill="#fff" stroke="#373737" stroke-width="2"/>
      <path id="Caminho_112" data-name="Caminho 112" d="M109.307,6.2a5.865,5.865,0,0,0-4.128-1.7H8.126A5.823,5.823,0,0,0,4,6.2,5.914,5.914,0,0,0,2.25,10.328V76.373A5.87,5.87,0,0,0,4,80.5a5.753,5.753,0,0,0,4.079,1.7H105.2a5.711,5.711,0,0,0,4.079-1.7,5.914,5.914,0,0,0,1.748-4.128V10.328A5.788,5.788,0,0,0,109.307,6.2ZM56.641,76.373a1.943,1.943,0,1,1,1.943-1.943A1.948,1.948,0,0,1,56.641,76.373Zm49.51-9.713h-99a.974.974,0,0,1-.971-.971V11.3A2.922,2.922,0,0,1,9.1,8.385h95.111a2.922,2.922,0,0,1,2.914,2.914V65.689A.974.974,0,0,1,106.15,66.661Z" transform="translate(0 0)" fill="#fff" stroke="#373737" stroke-width="2"/>
    </g>
    <path id="Icon_awesome-gamepad" data-name="Icon awesome-gamepad" d="M33.75,6.75H11.25a11.25,11.25,0,1,0,8.03,19.125h6.434A11.249,11.249,0,1,0,33.75,6.75ZM18,19.406a.846.846,0,0,1-.844.844H13.5v3.656a.846.846,0,0,1-.844.844H9.844A.846.846,0,0,1,9,23.906V20.25H5.344a.846.846,0,0,1-.844-.844V16.594a.846.846,0,0,1,.844-.844H9V12.094a.846.846,0,0,1,.844-.844h2.813a.846.846,0,0,1,.844.844V15.75h3.656a.846.846,0,0,1,.844.844Zm12.938,4.781a3.375,3.375,0,1,1,3.375-3.375A3.376,3.376,0,0,1,30.938,24.188Zm5.625-5.625a3.375,3.375,0,1,1,3.375-3.375A3.376,3.376,0,0,1,36.563,18.563Z" transform="translate(999.464 4631.258)" fill="#fff" stroke="#373737" stroke-width="1"/>
    <g id="Retângulo_58" data-name="Retângulo 58" transform="translate(1091 4496)" fill="#fff" stroke="#373737" stroke-width="2">
      <rect width="52" height="93" stroke="none"/>
      <rect x="1" y="1" width="50" height="91" fill="none"/>
    </g>
    <g id="Elipse_45" data-name="Elipse 45" transform="translate(1112 4516)" fill="#373737" stroke="#373737" stroke-width="1">
      <circle cx="5" cy="5" r="5" stroke="none"/>
      <circle cx="5" cy="5" r="4.5" fill="none"/>
    </g>
    <path id="Caminho_113" data-name="Caminho 113" d="M4742.768,4270.8s2.643-14.583,14.373-19.444,25.871,1.116,31.858-3.464c14.324-10.958,11.066-20.922,11.066-20.922" transform="translate(-3803.936 362)" fill="none" stroke="#373737" stroke-width="1"/>
    <path id="Caminho_114" data-name="Caminho 114" d="M4824.96,4276.008s-7.262-5.218-5.1-13.428,13.741-13.415,13.741-19.412c0-12.19-8.638-15.922-8.638-15.922" transform="translate(-3803 362)" fill="none" stroke="#373737" stroke-width="1"/>
    <path id="Caminho_115" data-name="Caminho 115" d="M4905.962,4272.961a17.34,17.34,0,0,0-2.62-19.091c-7.953-9.513-26.22-2.2-40.6-8.892s-16.928-17.865-16.928-17.865" transform="translate(-3803 362)" fill="none" stroke="#373737" stroke-width="1"/>
  </g>
</svg>
