<svg xmlns="http://www.w3.org/2000/svg" width="452.466" height="1076.956" viewBox="0 0 452.466 1076.956">
  <g id="Fundo_4" data-name="Fundo 4" transform="translate(-1112.627 -1876.164)">
    <g id="Elipse_27" data-name="Elipse 27" transform="translate(1244.917 2510.659) rotate(90)" fill="none" stroke="rgba(195,0,10,0.2)" stroke-width="1">
      <circle cx="15.941" cy="15.941" r="15.941" stroke="none"/>
      <circle cx="15.941" cy="15.941" r="15.441" fill="none"/>
    </g>
    <g id="Elipse_30" data-name="Elipse 30" transform="translate(1340.237 2091.327) rotate(90)" fill="none" stroke="rgba(195,0,10,0.2)" stroke-width="1">
      <circle cx="15.941" cy="15.941" r="15.941" stroke="none"/>
      <circle cx="15.941" cy="15.941" r="15.441" fill="none"/>
    </g>
    <g id="Elipse_31" data-name="Elipse 31" transform="translate(1322.144 2285.492) rotate(90)" fill="none" stroke="rgba(195,0,10,0.2)" stroke-width="1">
      <circle cx="15.941" cy="15.941" r="15.941" stroke="none"/>
      <circle cx="15.941" cy="15.941" r="15.441" fill="none"/>
    </g>
    <g id="Elipse_32" data-name="Elipse 32" transform="translate(1374.221 2609.078) rotate(90)" fill="none" stroke="rgba(195,0,10,0.2)" stroke-width="1">
      <circle cx="15.941" cy="15.941" r="15.941" stroke="none"/>
      <circle cx="15.941" cy="15.941" r="15.441" fill="none"/>
    </g>
    <g id="Elipse_35" data-name="Elipse 35" transform="translate(1388.95 1876.164) rotate(90)" fill="none" stroke="rgba(195,0,10,0.2)" stroke-width="1">
      <circle cx="15.941" cy="15.941" r="15.941" stroke="none"/>
      <circle cx="15.941" cy="15.941" r="15.441" fill="none"/>
    </g>
    <path id="Caminho_77" data-name="Caminho 77" d="M240.451,3307.587,358.393,3490.4" transform="translate(4727.801 2160.035) rotate(90)" fill="none" stroke="rgba(249,183,0,0.1)" stroke-width="1"/>
    <path id="Caminho_78" data-name="Caminho 78" d="M211.213,3369l-37.348,125.991" transform="translate(4658.679 2085.09) rotate(90)" fill="none" stroke="rgba(249,183,0,0.1)" stroke-width="1"/>
    <path id="Caminho_79" data-name="Caminho 79" d="M110,3354l162.282,15.36" transform="translate(4675.563 2013.209) rotate(90)" fill="none" stroke="rgba(249,183,0,0.1)" stroke-width="1"/>
    <path id="Caminho_80" data-name="Caminho 80" d="M202,3413.4l63.054-105.349" transform="translate(4727.279 2116.757) rotate(90)" fill="none" stroke="rgba(249,183,0,0.1)" stroke-width="1"/>
    <path id="Caminho_81" data-name="Caminho 81" d="M233.592,3440.589l-79.611-163.52" transform="translate(4762.15 2062.711) rotate(90)" fill="none" stroke="rgba(249,183,0,0.1)" stroke-width="1"/>
    <path id="Caminho_82" data-name="Caminho 82" d="M104.966,3423.02l87.474-147.339" transform="translate(4763.711 2007.543) rotate(90)" fill="none" stroke="rgba(249,183,0,0.1)" stroke-width="1"/>
    <path id="Caminho_83" data-name="Caminho 83" d="M305.65,3451.885l74.7-110.08" transform="translate(4689.287 2233.418) rotate(90)" fill="none" stroke="rgba(249,183,0,0.1)" stroke-width="1"/>
    <path id="Caminho_84" data-name="Caminho 84" d="M179,3472.213l243.643-71.219" transform="translate(4622.67 2090.87) rotate(90)" fill="none" stroke="rgba(249,183,0,0.1)" stroke-width="1"/>
    <path id="Caminho_86" data-name="Caminho 86" d="M73.5,3485.645,125.541,3357.9" transform="translate(4671.174 1972.128) rotate(90)" fill="none" stroke="rgba(249,183,0,0.1)" stroke-width="1"/>
    <path id="Caminho_87" data-name="Caminho 87" d="M29.5,3341.805l79.123,168.368" transform="translate(4689.287 1922.605) rotate(90)" fill="none" stroke="rgba(249,183,0,0.1)" stroke-width="1"/>
    <path id="Caminho_88" data-name="Caminho 88" d="M37,3334.5l124.512,35.681" transform="translate(4697.51 1931.046) rotate(90)" fill="none" stroke="rgba(249,183,0,0.1)" stroke-width="1"/>
    <g id="Elipse_10" data-name="Elipse 10" transform="matrix(-0.259, 0.966, -0.966, -0.259, 1382.997, 2781.676)" fill="none" stroke="rgba(255,215,0,0.3)" stroke-width="2">
      <circle cx="11.86" cy="11.86" r="11.86" stroke="none"/>
      <circle cx="11.86" cy="11.86" r="10.86" fill="none"/>
    </g>
    <g id="Elipse_12" data-name="Elipse 12" transform="matrix(-0.259, 0.966, -0.966, -0.259, 1308.746, 2521.126)" fill="none" stroke="rgba(255,215,0,0.3)" stroke-width="2">
      <circle cx="11.86" cy="11.86" r="11.86" stroke="none"/>
      <circle cx="11.86" cy="11.86" r="10.86" fill="none"/>
    </g>
    <g id="Elipse_15" data-name="Elipse 15" transform="matrix(-0.259, 0.966, -0.966, -0.259, 1368.596, 2132.798)" fill="none" stroke="rgba(255,215,0,0.3)" stroke-width="2">
      <circle cx="11.86" cy="11.86" r="11.86" stroke="none"/>
      <circle cx="11.86" cy="11.86" r="10.86" fill="none"/>
    </g>
    <g id="Elipse_17" data-name="Elipse 17" transform="matrix(-0.259, 0.966, -0.966, -0.259, 1276.306, 2306.158)" fill="none" stroke="rgba(255,215,0,0.3)" stroke-width="2">
      <circle cx="11.86" cy="11.86" r="11.86" stroke="none"/>
      <circle cx="11.86" cy="11.86" r="10.86" fill="none"/>
    </g>
    <g id="Elipse_20" data-name="Elipse 20" transform="matrix(-0.259, 0.966, -0.966, -0.259, 1314.76, 2688.085)" fill="none" stroke="rgba(255,215,0,0.3)" stroke-width="2">
      <circle cx="11.86" cy="11.86" r="11.86" stroke="none"/>
      <circle cx="11.86" cy="11.86" r="10.86" fill="none"/>
    </g>
    <g id="Elipse_23" data-name="Elipse 23" transform="matrix(-0.259, 0.966, -0.966, -0.259, 1308.354, 1997.148)" fill="none" stroke="rgba(255,215,0,0.3)" stroke-width="2">
      <circle cx="11.86" cy="11.86" r="11.86" stroke="none"/>
      <circle cx="11.86" cy="11.86" r="10.86" fill="none"/>
    </g>
    <path id="Caminho_35" data-name="Caminho 35" d="M2770.108-129l75.14,161.253" transform="matrix(-0.259, 0.966, -0.966, -0.259, 2039.728, -428.966)" fill="none" stroke="rgba(195,0,10,0.2)" stroke-width="2"/>
    <path id="Caminho_36" data-name="Caminho 36" d="M2794.033-129,2705.358-8.949" transform="matrix(-0.259, 0.966, -0.966, -0.259, 2050.94, -464.93)" fill="none" stroke="rgba(195,0,10,0.2)" stroke-width="2"/>
    <path id="Caminho_37" data-name="Caminho 37" d="M2701.914-42.655l33.726,185.822" transform="matrix(-0.259, 0.966, -0.966, -0.259, 2001.507, -480.248)" fill="none" stroke="rgba(195,0,10,0.2)" stroke-width="2"/>
    <path id="Caminho_38" data-name="Caminho 38" d="M2729.222,131.158,2868.555-16.309" transform="matrix(-0.259, 0.966, -0.966, -0.259, 1982.604, -468.878)" fill="none" stroke="rgba(195,0,10,0.2)" stroke-width="2"/>
    <path id="Caminho_39" data-name="Caminho 39" d="M2707.895-31.179l367.942-43.844" transform="matrix(-0.259, 0.966, -0.966, -0.259, 2018.782, -472.02)" fill="none" stroke="rgba(195,0,10,0.2)" stroke-width="2"/>
    <path id="Caminho_40" data-name="Caminho 40" d="M2828.04,3.486l185.69-73.073" transform="matrix(-0.259, 0.966, -0.966, -0.259, 1997.652, -405.375)" fill="none" stroke="rgba(195,0,10,0.2)" stroke-width="2"/>
    <path id="Caminho_42" data-name="Caminho 42" d="M2967.253-48.971l-54.781-94.3" transform="matrix(-0.259, 0.966, -0.966, -0.259, 2026.325, -346.879)" fill="none" stroke="rgba(195,0,10,0.2)" stroke-width="2"/>
    <path id="Caminho_43" data-name="Caminho 43" d="M3039.774-49.471l-266.864-82.172" transform="matrix(-0.259, 0.966, -0.966, -0.259, 2040.793, -426.993)" fill="none" stroke="rgba(195,0,10,0.2)" stroke-width="2"/>
    <path id="Caminho_45" data-name="Caminho 45" d="M-32.5,262,71.418,312.718" transform="matrix(-0.259, 0.966, -0.966, -0.259, 1677.09, 2141.875)" fill="none" stroke="rgba(195,0,10,0.2)" stroke-width="2"/>
    <path id="Caminho_47" data-name="Caminho 47" d="M106.661,459.6-24.954,355.5" transform="matrix(-0.259, 0.966, -0.966, -0.259, 1623.449, 2132.043)" fill="none" stroke="rgba(195,0,10,0.2)" stroke-width="2"/>
    <path id="Caminho_48" data-name="Caminho 48" d="M70.1,301.239l-95.056,82.044" transform="matrix(-0.259, 0.966, -0.966, -0.259, 1657.756, 2141.235)" fill="none" stroke="rgba(195,0,10,0.2)" stroke-width="2"/>
    <path id="Caminho_50" data-name="Caminho 50" d="M63.066,301.239-4.839,524.383" transform="matrix(-0.259, 0.966, -0.966, -0.259, 1652.347, 2151.892)" fill="none" stroke="rgba(195,0,10,0.2)" stroke-width="2"/>
    <path id="Caminho_51" data-name="Caminho 51" d="M62.549,175.239-31.478,445.681" transform="matrix(-0.259, 0.966, -0.966, -0.259, 1725.652, 2155.502)" fill="none" stroke="rgba(195,0,10,0.2)" stroke-width="2"/>
    <path id="Caminho_56" data-name="Caminho 56" d="M3055.286-84.075l59.934-74" transform="matrix(-0.259, 0.966, -0.966, -0.259, 2013.43, -265.503)" fill="none" stroke="rgba(195,0,10,0.2)" stroke-width="2"/>
    <path id="Caminho_57" data-name="Caminho 57" d="M2954.293-63.516l140.476-39.423" transform="matrix(-0.259, 0.966, -0.966, -0.259, 1997.385, -329.464)" fill="none" stroke="rgba(195,0,10,0.2)" stroke-width="2"/>
    <path id="Caminho_58" data-name="Caminho 58" d="M2951.77-22.824l77.32-156.675" transform="matrix(-0.259, 0.966, -0.966, -0.259, 2041.018, -320.345)" fill="none" stroke="rgba(195,0,10,0.2)" stroke-width="2"/>
    <path id="Caminho_59" data-name="Caminho 59" d="M3073.825-74.875l-70.908-104.946" transform="matrix(-0.259, 0.966, -0.966, -0.259, 2033.239, -290.594)" fill="none" stroke="rgba(195,0,10,0.2)" stroke-width="2"/>
    <path id="Caminho_60" data-name="Caminho 60" d="M3165.259-159.877,2953.7-34.232" transform="matrix(-0.259, 0.966, -0.966, -0.259, 2029.445, -321.23)" fill="none" stroke="rgba(195,0,10,0.2)" stroke-width="2"/>
    <path id="Caminho_64" data-name="Caminho 64" d="M3100.954-146.96l117.856-45.49" transform="matrix(-0.259, 0.966, -0.966, -0.259, 2031.81, -231.976)" fill="none" stroke="rgba(195,0,10,0.2)" stroke-width="2"/>
    <g id="Elipse_5" data-name="Elipse 5" transform="matrix(-0.259, 0.966, -0.966, -0.259, 1496.802, 2931.581)" fill="none" stroke="gold" stroke-width="1">
      <circle cx="11.149" cy="11.149" r="11.149" stroke="none"/>
      <circle cx="11.149" cy="11.149" r="10.649" fill="none"/>
    </g>
    <g id="Elipse_7" data-name="Elipse 7" transform="matrix(-0.259, 0.966, -0.966, -0.259, 1503.512, 2725.623)" fill="none" stroke="gold" stroke-width="1">
      <circle cx="11.149" cy="11.149" r="11.149" stroke="none"/>
      <circle cx="11.149" cy="11.149" r="10.649" fill="none"/>
    </g>
    <g id="Elipse_28" data-name="Elipse 28" transform="translate(1456.967 2314.021) rotate(90)" fill="none" stroke="rgba(195,0,10,0.2)" stroke-width="1">
      <circle cx="15.941" cy="15.941" r="15.941" stroke="none"/>
      <circle cx="15.941" cy="15.941" r="15.441" fill="none"/>
    </g>
    <path id="Caminho_74" data-name="Caminho 74" d="M159,3271.5l148.554,59.013" transform="translate(4768.418 2068.36) rotate(90)" fill="none" stroke="rgba(249,183,0,0.1)" stroke-width="1"/>
    <g id="Elipse_11" data-name="Elipse 11" transform="matrix(-0.259, 0.966, -0.966, -0.259, 1472.943, 2268.807)" fill="none" stroke="rgba(255,215,0,0.3)" stroke-width="2">
      <circle cx="11.86" cy="11.86" r="11.86" stroke="none"/>
      <circle cx="11.86" cy="11.86" r="10.86" fill="none"/>
    </g>
    <g id="Elipse_13" data-name="Elipse 13" transform="matrix(-0.259, 0.966, -0.966, -0.259, 1455.072, 2647.1)" fill="none" stroke="rgba(255,215,0,0.3)" stroke-width="2">
      <circle cx="11.86" cy="11.86" r="11.86" stroke="none"/>
      <circle cx="11.86" cy="11.86" r="10.86" fill="none"/>
    </g>
    <g id="Elipse_19" data-name="Elipse 19" transform="matrix(-0.259, 0.966, -0.966, -0.259, 1436.211, 2491.433)" fill="none" stroke="rgba(255,215,0,0.3)" stroke-width="2">
      <circle cx="11.86" cy="11.86" r="11.86" stroke="none"/>
      <circle cx="11.86" cy="11.86" r="10.86" fill="none"/>
    </g>
    <g id="Elipse_21" data-name="Elipse 21" transform="matrix(-0.259, 0.966, -0.966, -0.259, 1403.986, 2929.404)" fill="none" stroke="rgba(255,215,0,0.3)" stroke-width="2">
      <circle cx="11.86" cy="11.86" r="11.86" stroke="none"/>
      <circle cx="11.86" cy="11.86" r="10.86" fill="none"/>
    </g>
    <g id="Elipse_24" data-name="Elipse 24" transform="matrix(-0.259, 0.966, -0.966, -0.259, 1454.239, 2023.959)" fill="none" stroke="rgba(255,215,0,0.3)" stroke-width="2">
      <circle cx="11.86" cy="11.86" r="11.86" stroke="none"/>
      <circle cx="11.86" cy="11.86" r="10.86" fill="none"/>
    </g>
    <path id="Caminho_34" data-name="Caminho 34" d="M2774-128.32,2976.1-147.2" transform="matrix(-0.259, 0.966, -0.966, -0.259, 2049.365, -424.041)" fill="none" stroke="rgba(195,0,10,0.2)" stroke-width="2"/>
    <path id="Caminho_54" data-name="Caminho 54" d="M2914.356-136.876l126.307-46.29" transform="matrix(-0.259, 0.966, -0.966, -0.259, 2048.442, -339.818)" fill="none" stroke="rgba(195,0,10,0.2)" stroke-width="2"/>
    <path id="Caminho_55" data-name="Caminho 55" d="M3008.03-184.14l125.645,33.281" transform="matrix(-0.259, 0.966, -0.966, -0.259, 2034.896, -287.073)" fill="none" stroke="rgba(195,0,10,0.2)" stroke-width="2"/>
    <path id="Caminho_63" data-name="Caminho 63" d="M3008.03-179.4l262.693-16.852" transform="matrix(-0.259, 0.966, -0.966, -0.259, 2047.181, -283.781)" fill="none" stroke="rgba(195,0,10,0.2)" stroke-width="2"/>
    <path id="Caminho_65" data-name="Caminho 65" d="M3252.785-195.151l-210.277-28.178" transform="matrix(-0.259, 0.966, -0.966, -0.259, 2051.713, -261.817)" fill="none" stroke="rgba(195,0,10,0.2)" stroke-width="2"/>
    <g id="Elipse_29" data-name="Elipse 29" transform="translate(1165.439 2238.217) rotate(90)" fill="none" stroke="rgba(195,0,10,0.2)" stroke-width="1">
      <circle cx="15.941" cy="15.941" r="15.941" stroke="none"/>
      <circle cx="15.941" cy="15.941" r="15.441" fill="none"/>
    </g>
    <g id="Elipse_34" data-name="Elipse 34" transform="translate(1186.426 2029.687) rotate(90)" fill="none" stroke="rgba(195,0,10,0.2)" stroke-width="1">
      <circle cx="15.941" cy="15.941" r="15.941" stroke="none"/>
      <circle cx="15.941" cy="15.941" r="15.441" fill="none"/>
    </g>
    <path id="Caminho_85" data-name="Caminho 85" d="M81,3425.5l176.648,18.583" transform="translate(4595.088 1980.569) rotate(90)" fill="none" stroke="rgba(249,183,0,0.1)" stroke-width="1"/>
    <g id="Elipse_16" data-name="Elipse 16" transform="matrix(-0.259, 0.966, -0.966, -0.259, 1158.679, 2115.841)" fill="none" stroke="rgba(255,215,0,0.3)" stroke-width="2">
      <circle cx="11.86" cy="11.86" r="11.86" stroke="none"/>
      <circle cx="11.86" cy="11.86" r="10.86" fill="none"/>
    </g>
    <g id="Elipse_22" data-name="Elipse 22" transform="matrix(-0.259, 0.966, -0.966, -0.259, 1154.543, 1996.862)" fill="none" stroke="rgba(255,215,0,0.3)" stroke-width="2">
      <circle cx="11.86" cy="11.86" r="11.86" stroke="none"/>
      <circle cx="11.86" cy="11.86" r="10.86" fill="none"/>
    </g>
    <path id="Caminho_49" data-name="Caminho 49" d="M92.756,429.983l-93.79,23.195" transform="matrix(-0.259, 0.966, -0.966, -0.259, 1580.504, 2134.932)" fill="none" stroke="rgba(195,0,10,0.2)" stroke-width="2"/>
  </g>
</svg>
