<svg xmlns="http://www.w3.org/2000/svg" width="669.614" height="510.653" viewBox="0 0 669.614 510.653">
  <g id="Fundo_2" data-name="Fundo 2" transform="translate(-939.075 -447.739)">
    <g id="Elipse_27" data-name="Elipse 27" transform="matrix(-0.966, 0.259, -0.259, -0.966, 1100.191, 673.568)" fill="none" stroke="rgba(195,0,10,0.2)" stroke-width="1">
      <circle cx="13.702" cy="13.702" r="13.702" stroke="none"/>
      <circle cx="13.702" cy="13.702" r="13.202" fill="none"/>
    </g>
    <g id="Elipse_28" data-name="Elipse 28" transform="matrix(-0.966, 0.259, -0.259, -0.966, 1260.291, 812.244)" fill="none" stroke="rgba(195,0,10,0.2)" stroke-width="1">
      <circle cx="13.702" cy="13.702" r="13.702" stroke="none"/>
      <circle cx="13.702" cy="13.702" r="13.202" fill="none"/>
    </g>
    <g id="Elipse_29" data-name="Elipse 29" transform="matrix(-0.966, 0.259, -0.259, -0.966, 1310.815, 549.041)" fill="none" stroke="rgba(195,0,10,0.2)" stroke-width="1">
      <circle cx="13.702" cy="13.702" r="13.702" stroke="none"/>
      <circle cx="13.702" cy="13.702" r="13.202" fill="none"/>
    </g>
    <g id="Elipse_31" data-name="Elipse 31" transform="matrix(-0.966, 0.259, -0.259, -0.966, 1304.746, 688.74)" fill="none" stroke="rgba(195,0,10,0.2)" stroke-width="1">
      <circle cx="13.702" cy="13.702" r="13.702" stroke="none"/>
      <circle cx="13.702" cy="13.702" r="13.202" fill="none"/>
    </g>
    <g id="Elipse_32" data-name="Elipse 32" transform="matrix(-0.966, 0.259, -0.259, -0.966, 1047.859, 802.966)" fill="none" stroke="rgba(195,0,10,0.2)" stroke-width="1">
      <circle cx="13.702" cy="13.702" r="13.702" stroke="none"/>
      <circle cx="13.702" cy="13.702" r="13.202" fill="none"/>
    </g>
    <g id="Elipse_33" data-name="Elipse 33" transform="matrix(-0.966, 0.259, -0.259, -0.966, 1179.689, 920.846)" fill="none" stroke="rgba(195,0,10,0.2)" stroke-width="1">
      <circle cx="13.702" cy="13.702" r="13.702" stroke="none"/>
      <circle cx="13.702" cy="13.702" r="13.202" fill="none"/>
    </g>
    <path id="Caminho_74" data-name="Caminho 74" d="M159,3271.5l127.687,50.723" transform="matrix(-0.966, 0.259, -0.259, -0.966, 2393.476, 3939.963)" fill="none" stroke="rgba(249,183,0,0.1)" stroke-width="1"/>
    <path id="Caminho_75" data-name="Caminho 75" d="M243,3331.385l81.512-70.962" transform="matrix(-0.966, 0.259, -0.259, -0.966, 2328.75, 3966.791)" fill="none" stroke="rgba(249,183,0,0.1)" stroke-width="1"/>
    <path id="Caminho_76" data-name="Caminho 76" d="M300.5,3260.422l75.3,128.409" transform="matrix(-0.966, 0.259, -0.259, -0.966, 2282.82, 3979.098)" fill="none" stroke="rgba(249,183,0,0.1)" stroke-width="1"/>
    <path id="Caminho_77" data-name="Caminho 77" d="M240.451,3307.587l101.375,157.132" transform="matrix(-0.966, 0.259, -0.259, -0.966, 2320.69, 3928.57)" fill="none" stroke="rgba(249,183,0,0.1)" stroke-width="1"/>
    <path id="Caminho_78" data-name="Caminho 78" d="M205.967,3369l-32.1,108.293" transform="matrix(-0.966, 0.259, -0.259, -0.966, 2360.734, 3865.263)" fill="none" stroke="rgba(249,183,0,0.1)" stroke-width="1"/>
    <path id="Caminho_79" data-name="Caminho 79" d="M110,3354l139.487,13.2" transform="matrix(-0.966, 0.259, -0.259, -0.966, 2414.959, 3863.576)" fill="none" stroke="rgba(249,183,0,0.1)" stroke-width="1"/>
    <path id="Caminho_80" data-name="Caminho 80" d="M202,3398.6l54.2-90.551" transform="matrix(-0.966, 0.259, -0.259, -0.966, 2351.306, 3919.971)" fill="none" stroke="rgba(249,183,0,0.1)" stroke-width="1"/>
    <path id="Caminho_81" data-name="Caminho 81" d="M222.409,3417.62l-68.428-140.551" transform="matrix(-0.966, 0.259, -0.259, -0.966, 2396.293, 3934.44)" fill="none" stroke="rgba(249,183,0,0.1)" stroke-width="1"/>
    <path id="Caminho_83" data-name="Caminho 83" d="M305.65,3436.422l64.2-94.617" transform="matrix(-0.966, 0.259, -0.259, -0.966, 2261.287, 3915.191)" fill="none" stroke="rgba(249,183,0,0.1)" stroke-width="1"/>
    <path id="Caminho_84" data-name="Caminho 84" d="M179,3462.209l209.42-61.215" transform="matrix(-0.966, 0.259, -0.259, -0.966, 2349.785, 3840.807)" fill="none" stroke="rgba(249,183,0,0.1)" stroke-width="1"/>
    <path id="Caminho_85" data-name="Caminho 85" d="M81,3425.5l151.834,15.973" transform="matrix(-0.966, 0.259, -0.259, -0.966, 2422.82, 3800.256)" fill="none" stroke="rgba(249,183,0,0.1)" stroke-width="1"/>
    <g id="Elipse_11" data-name="Elipse 11" transform="translate(1330.314 846.834) rotate(180)" fill="none" stroke="rgba(255,215,0,0.3)" stroke-width="2">
      <circle cx="11.784" cy="11.784" r="11.784" stroke="none"/>
      <circle cx="11.784" cy="11.784" r="10.784" fill="none"/>
    </g>
    <g id="Elipse_12" data-name="Elipse 12" transform="translate(1045.92 754.131) rotate(180)" fill="none" stroke="rgba(255,215,0,0.3)" stroke-width="2">
      <circle cx="11.784" cy="11.784" r="11.784" stroke="none"/>
      <circle cx="11.784" cy="11.784" r="10.784" fill="none"/>
    </g>
    <g id="Elipse_13" data-name="Elipse 13" transform="translate(962.644 926.967) rotate(180)" fill="none" stroke="rgba(255,215,0,0.3)" stroke-width="2">
      <circle cx="11.784" cy="11.784" r="11.784" stroke="none"/>
      <circle cx="11.784" cy="11.784" r="10.784" fill="none"/>
    </g>
    <g id="Elipse_14" data-name="Elipse 14" transform="translate(1206.186 958.392) rotate(180)" fill="none" stroke="rgba(255,215,0,0.3)" stroke-width="2">
      <circle cx="11.784" cy="11.784" r="11.784" stroke="none"/>
      <circle cx="11.784" cy="11.784" r="10.784" fill="none"/>
    </g>
    <g id="Elipse_17" data-name="Elipse 17" transform="translate(1243.896 667.712) rotate(180)" fill="none" stroke="rgba(255,215,0,0.3)" stroke-width="2">
      <circle cx="11.784" cy="11.784" r="11.784" stroke="none"/>
      <circle cx="11.784" cy="11.784" r="10.784" fill="none"/>
    </g>
    <g id="Elipse_19" data-name="Elipse 19" transform="translate(1107.197 868.831) rotate(180)" fill="none" stroke="rgba(255,215,0,0.3)" stroke-width="2">
      <circle cx="11.784" cy="11.784" r="11.784" stroke="none"/>
      <circle cx="11.784" cy="11.784" r="10.784" fill="none"/>
    </g>
    <path id="Caminho_32" data-name="Caminho 32" d="M0,0,98.115,52.011" transform="translate(1426.16 892.4) rotate(180)" fill="none" stroke="rgba(195,0,10,0.2)" stroke-width="2"/>
    <path id="Caminho_33" data-name="Caminho 33" d="M0,94.144,111.656,0" transform="translate(1312.861 938.574) rotate(180)" fill="none" stroke="rgba(195,0,10,0.2)" stroke-width="2"/>
    <path id="Caminho_34" data-name="Caminho 34" d="M0,18.762,200.816,0" transform="translate(1306.746 853.812) rotate(180)" fill="none" stroke="rgba(195,0,10,0.2)" stroke-width="2"/>
    <path id="Caminho_35" data-name="Caminho 35" d="M0,0,74.661,160.225" transform="translate(1312.861 825.204) rotate(180)" fill="none" stroke="rgba(195,0,10,0.2)" stroke-width="2"/>
    <path id="Caminho_36" data-name="Caminho 36" d="M88.11,0,0,119.281" transform="translate(1414.6 826.717) rotate(180)" fill="none" stroke="rgba(195,0,10,0.2)" stroke-width="2"/>
    <path id="Caminho_38" data-name="Caminho 38" d="M0,146.528,138.445,0" transform="translate(1377.103 648.147) rotate(180)" fill="none" stroke="rgba(195,0,10,0.2)" stroke-width="2"/>
    <path id="Caminho_39" data-name="Caminho 39" d="M0,43.564,365.6,0" transform="translate(1410.613 740.401) rotate(180)" fill="none" stroke="rgba(195,0,10,0.2)" stroke-width="2"/>
    <path id="Caminho_40" data-name="Caminho 40" d="M0,72.607,184.506,0" transform="translate(1221.836 731.859) rotate(180)" fill="none" stroke="rgba(195,0,10,0.2)" stroke-width="2"/>
    <path id="Caminho_42" data-name="Caminho 42" d="M54.432,93.7,0,0" transform="translate(1089.173 847.638) rotate(180)" fill="none" stroke="rgba(195,0,10,0.2)" stroke-width="2"/>
    <path id="Caminho_43" data-name="Caminho 43" d="M265.163,81.648,0,0" transform="translate(1308.457 829.364) rotate(180)" fill="none" stroke="rgba(195,0,10,0.2)" stroke-width="2"/>
    <path id="Caminho_52" data-name="Caminho 52" d="M0,40.739,224.826,0" transform="translate(1430.627 945.145) rotate(180)" fill="none" stroke="rgba(195,0,10,0.2)" stroke-width="2"/>
    <path id="Caminho_53" data-name="Caminho 53" d="M0,0,82.135,74.249" transform="translate(1186.089 938.574) rotate(180)" fill="none" stroke="rgba(195,0,10,0.2)" stroke-width="2"/>
    <path id="Caminho_54" data-name="Caminho 54" d="M0,46,125.5,0" transform="translate(1086.213 910.32) rotate(180)" fill="none" stroke="rgba(195,0,10,0.2)" stroke-width="2"/>
    <path id="Caminho_58" data-name="Caminho 58" d="M0,155.676,76.827,0" transform="translate(1028.438 904.558) rotate(180)" fill="none" stroke="rgba(195,0,10,0.2)" stroke-width="2"/>
    <path id="Caminho_62" data-name="Caminho 62" d="M0,0,224.788,25.363" transform="translate(1186.089 945.145) rotate(180)" fill="none" stroke="rgba(195,0,10,0.2)" stroke-width="2"/>
    <g id="Elipse_26" data-name="Elipse 26" transform="matrix(-0.966, 0.259, -0.259, -0.966, 1423.185, 827.231)" fill="none" stroke="rgba(195,0,10,0.2)" stroke-width="1">
      <circle cx="13.702" cy="13.702" r="13.702" stroke="none"/>
      <circle cx="13.702" cy="13.702" r="13.202" fill="none"/>
    </g>
    <g id="Elipse_30" data-name="Elipse 30" transform="matrix(-0.966, 0.259, -0.259, -0.966, 1471.354, 661.12)" fill="none" stroke="rgba(195,0,10,0.2)" stroke-width="1">
      <circle cx="13.702" cy="13.702" r="13.702" stroke="none"/>
      <circle cx="13.702" cy="13.702" r="13.202" fill="none"/>
    </g>
    <g id="Elipse_34" data-name="Elipse 34" transform="matrix(-0.966, 0.259, -0.259, -0.966, 1488.013, 518.584)" fill="none" stroke="rgba(195,0,10,0.2)" stroke-width="1">
      <circle cx="13.702" cy="13.702" r="13.702" stroke="none"/>
      <circle cx="13.702" cy="13.702" r="13.202" fill="none"/>
    </g>
    <g id="Elipse_35" data-name="Elipse 35" transform="matrix(-0.966, 0.259, -0.259, -0.966, 1608.688, 658.366)" fill="none" stroke="rgba(195,0,10,0.2)" stroke-width="1">
      <circle cx="13.702" cy="13.702" r="13.702" stroke="none"/>
      <circle cx="13.702" cy="13.702" r="13.202" fill="none"/>
    </g>
    <path id="Caminho_82" data-name="Caminho 82" d="M104.966,3402.324l75.187-126.643" transform="matrix(-0.966, 0.259, -0.259, -0.966, 2435.742, 3925.058)" fill="none" stroke="rgba(249,183,0,0.1)" stroke-width="1"/>
    <path id="Caminho_86" data-name="Caminho 86" d="M73.5,3467.7l44.731-109.8" transform="matrix(-0.966, 0.259, -0.259, -0.966, 2443.279, 3852.649)" fill="none" stroke="rgba(249,183,0,0.1)" stroke-width="1"/>
    <path id="Caminho_87" data-name="Caminho 87" d="M29.5,3341.805l68.009,144.718" transform="matrix(-0.966, 0.259, -0.259, -0.966, 2481.87, 3856.087)" fill="none" stroke="rgba(249,183,0,0.1)" stroke-width="1"/>
    <path id="Caminho_88" data-name="Caminho 88" d="M37,3334.5l107.022,30.669" transform="matrix(-0.966, 0.259, -0.259, -0.966, 2477.443, 3863.527)" fill="none" stroke="rgba(249,183,0,0.1)" stroke-width="1"/>
    <g id="Elipse_15" data-name="Elipse 15" transform="translate(1434.016 711.707) rotate(180)" fill="none" stroke="rgba(255,215,0,0.3)" stroke-width="2">
      <circle cx="11.784" cy="11.784" r="11.784" stroke="none"/>
      <circle cx="11.784" cy="11.784" r="10.784" fill="none"/>
    </g>
    <g id="Elipse_16" data-name="Elipse 16" transform="translate(1396.306 505.875) rotate(180)" fill="none" stroke="rgba(255,215,0,0.3)" stroke-width="2">
      <circle cx="11.784" cy="11.784" r="11.784" stroke="none"/>
      <circle cx="11.784" cy="11.784" r="10.784" fill="none"/>
    </g>
    <g id="Elipse_18" data-name="Elipse 18" transform="translate(1449.729 909.684) rotate(180)" fill="none" stroke="rgba(255,215,0,0.3)" stroke-width="2">
      <circle cx="11.784" cy="11.784" r="11.784" stroke="none"/>
      <circle cx="11.784" cy="11.784" r="10.784" fill="none"/>
    </g>
    <g id="Elipse_22" data-name="Elipse 22" transform="translate(1509.436 471.307) rotate(180)" fill="none" stroke="rgba(255,215,0,0.3)" stroke-width="2">
      <circle cx="11.784" cy="11.784" r="11.784" stroke="none"/>
      <circle cx="11.784" cy="11.784" r="10.784" fill="none"/>
    </g>
    <g id="Elipse_23" data-name="Elipse 23" transform="translate(1548.717 619.004) rotate(180)" fill="none" stroke="rgba(255,215,0,0.3)" stroke-width="2">
      <circle cx="11.784" cy="11.784" r="11.784" stroke="none"/>
      <circle cx="11.784" cy="11.784" r="10.784" fill="none"/>
    </g>
    <g id="Elipse_24" data-name="Elipse 24" transform="translate(1560.501 765.915) rotate(180)" fill="none" stroke="rgba(255,215,0,0.3)" stroke-width="2">
      <circle cx="11.784" cy="11.784" r="11.784" stroke="none"/>
      <circle cx="11.784" cy="11.784" r="10.784" fill="none"/>
    </g>
    <g id="Elipse_25" data-name="Elipse 25" transform="translate(1566 938.751) rotate(180)" fill="none" stroke="rgba(255,215,0,0.3)" stroke-width="2">
      <circle cx="11.784" cy="11.784" r="11.784" stroke="none"/>
      <circle cx="11.784" cy="11.784" r="10.784" fill="none"/>
    </g>
    <path id="Caminho_37" data-name="Caminho 37" d="M0,0,33.511,184.638" transform="translate(1420.011 689.543) rotate(180)" fill="none" stroke="rgba(195,0,10,0.2)" stroke-width="2"/>
    <path id="Caminho_41" data-name="Caminho 41" d="M12.195,176.4,0,0" transform="translate(1438.355 887.373) rotate(180)" fill="none" stroke="rgba(195,0,10,0.2)" stroke-width="2"/>
    <path id="Caminho_44" data-name="Caminho 44" d="M96.588,20.99,0,0" transform="translate(1544.723 922.345) rotate(180)" fill="none" stroke="rgba(195,0,10,0.2)" stroke-width="2"/>
    <path id="Caminho_45" data-name="Caminho 45" d="M0,0,103.255,50.4" transform="translate(1536.933 749.797) rotate(180)" fill="none" stroke="rgba(195,0,10,0.2)" stroke-width="2"/>
    <path id="Caminho_46" data-name="Caminho 46" d="M93.172,0,0,131.777" transform="translate(1541.306 893.532) rotate(180)" fill="none" stroke="rgba(195,0,10,0.2)" stroke-width="2"/>
    <path id="Caminho_47" data-name="Caminho 47" d="M130.777,103.436,0,0" transform="translate(1525.076 602.875) rotate(180)" fill="none" stroke="rgba(195,0,10,0.2)" stroke-width="2"/>
    <path id="Caminho_48" data-name="Caminho 48" d="M94.45,0,0,81.521" transform="translate(1525.076 692.084) rotate(180)" fill="none" stroke="rgba(195,0,10,0.2)" stroke-width="2"/>
    <path id="Caminho_49" data-name="Caminho 49" d="M93.192,0,0,23.047" transform="translate(1487.492 488.396) rotate(180)" fill="none" stroke="rgba(195,0,10,0.2)" stroke-width="2"/>
    <path id="Caminho_50" data-name="Caminho 50" d="M67.473,0,0,221.722" transform="translate(1493.471 689.634) rotate(180)" fill="none" stroke="rgba(195,0,10,0.2)" stroke-width="2"/>
    <path id="Caminho_51" data-name="Caminho 51" d="M93.428,0,0,268.718" transform="translate(1535.326 886.115) rotate(180)" fill="none" stroke="rgba(195,0,10,0.2)" stroke-width="2"/>
  </g>
</svg>
