<svg xmlns="http://www.w3.org/2000/svg" width="637.599" height="838.147" viewBox="0 0 637.599 838.147">
  <g id="Fundo_8" data-name="Fundo 8" transform="translate(-1090.761 -5342.449)">
    <g id="Elipse_10" data-name="Elipse 10" transform="translate(1221.684 6160.054) rotate(120)" fill="none" stroke="rgba(255,215,0,0.3)" stroke-width="2">
      <circle cx="11.86" cy="11.86" r="11.86" stroke="none"/>
      <circle cx="11.86" cy="11.86" r="10.86" fill="none"/>
    </g>
    <g id="Elipse_12" data-name="Elipse 12" transform="translate(1217.397 5889.165) rotate(120)" fill="none" stroke="rgba(255,215,0,0.3)" stroke-width="2">
      <circle cx="11.86" cy="11.86" r="11.86" stroke="none"/>
      <circle cx="11.86" cy="11.86" r="10.86" fill="none"/>
    </g>
    <g id="Elipse_13" data-name="Elipse 13" transform="translate(1326.134 6048.719) rotate(120)" fill="none" stroke="rgba(255,215,0,0.3)" stroke-width="2">
      <circle cx="11.86" cy="11.86" r="11.86" stroke="none"/>
      <circle cx="11.86" cy="11.86" r="10.86" fill="none"/>
    </g>
    <g id="Elipse_15" data-name="Elipse 15" transform="translate(1375.715 5529.56) rotate(120)" fill="none" stroke="rgba(255,215,0,0.3)" stroke-width="2">
      <circle cx="11.86" cy="11.86" r="11.86" stroke="none"/>
      <circle cx="11.86" cy="11.86" r="10.86" fill="none"/>
    </g>
    <g id="Elipse_16" data-name="Elipse 16" transform="translate(1177.34 5458.85) rotate(120)" fill="none" stroke="rgba(255,215,0,0.3)" stroke-width="2">
      <circle cx="11.86" cy="11.86" r="11.86" stroke="none"/>
      <circle cx="11.86" cy="11.86" r="10.86" fill="none"/>
    </g>
    <g id="Elipse_17" data-name="Elipse 17" transform="translate(1241.7 5673.126) rotate(120)" fill="none" stroke="rgba(255,215,0,0.3)" stroke-width="2">
      <circle cx="11.86" cy="11.86" r="11.86" stroke="none"/>
      <circle cx="11.86" cy="11.86" r="10.86" fill="none"/>
    </g>
    <g id="Elipse_19" data-name="Elipse 19" transform="translate(1348.204 5893.474) rotate(120)" fill="none" stroke="rgba(255,215,0,0.3)" stroke-width="2">
      <circle cx="11.86" cy="11.86" r="11.86" stroke="none"/>
      <circle cx="11.86" cy="11.86" r="10.86" fill="none"/>
    </g>
    <g id="Elipse_20" data-name="Elipse 20" transform="translate(1179.994 6051.991) rotate(120)" fill="none" stroke="rgba(255,215,0,0.3)" stroke-width="2">
      <circle cx="11.86" cy="11.86" r="11.86" stroke="none"/>
      <circle cx="11.86" cy="11.86" r="10.86" fill="none"/>
    </g>
    <g id="Elipse_23" data-name="Elipse 23" transform="translate(1352.635 5382.939) rotate(120)" fill="none" stroke="rgba(255,215,0,0.3)" stroke-width="2">
      <circle cx="11.86" cy="11.86" r="11.86" stroke="none"/>
      <circle cx="11.86" cy="11.86" r="10.86" fill="none"/>
    </g>
    <path id="Caminho_34" data-name="Caminho 34" d="M2774-128.32,2976.1-147.2" transform="translate(2695.047 3236.038) rotate(120)" fill="none" stroke="rgba(195,0,10,0.2)" stroke-width="2"/>
    <path id="Caminho_35" data-name="Caminho 35" d="M2770.108-129l75.14,161.253" transform="translate(2687.013 3228.787) rotate(120)" fill="none" stroke="rgba(195,0,10,0.2)" stroke-width="2"/>
    <path id="Caminho_36" data-name="Caminho 36" d="M2794.033-129,2705.358-8.949" transform="translate(2707.151 3196.95) rotate(120)" fill="none" stroke="rgba(195,0,10,0.2)" stroke-width="2"/>
    <path id="Caminho_37" data-name="Caminho 37" d="M2701.914-42.655l33.726,185.822" transform="translate(2663.367 3169.359) rotate(120)" fill="none" stroke="rgba(195,0,10,0.2)" stroke-width="2"/>
    <path id="Caminho_38" data-name="Caminho 38" d="M2729.222,131.158,2868.555-16.309" transform="translate(2642.166 3175.45) rotate(120)" fill="none" stroke="rgba(195,0,10,0.2)" stroke-width="2"/>
    <path id="Caminho_39" data-name="Caminho 39" d="M2707.895-31.179l367.942-43.844" transform="translate(2677.924 3181.779) rotate(120)" fill="none" stroke="rgba(195,0,10,0.2)" stroke-width="2"/>
    <path id="Caminho_40" data-name="Caminho 40" d="M2828.04,3.486l185.69-73.073" transform="translate(2640.266 3240.685) rotate(120)" fill="none" stroke="rgba(195,0,10,0.2)" stroke-width="2"/>
    <path id="Caminho_42" data-name="Caminho 42" d="M2967.253-48.971l-54.781-94.3" transform="translate(2652.82 3304.608) rotate(120)" fill="none" stroke="rgba(195,0,10,0.2)" stroke-width="2"/>
    <path id="Caminho_43" data-name="Caminho 43" d="M3039.774-49.471l-266.864-82.172" transform="translate(2687.53 3230.968) rotate(120)" fill="none" stroke="rgba(195,0,10,0.2)" stroke-width="2"/>
    <path id="Caminho_45" data-name="Caminho 45" d="M-32.5,262,71.418,312.718" transform="translate(1671.349 5618.171) rotate(120)" fill="none" stroke="rgba(195,0,10,0.2)" stroke-width="2"/>
    <path id="Caminho_47" data-name="Caminho 47" d="M106.661,459.6-24.954,355.5" transform="translate(1622.08 5594.791) rotate(120)" fill="none" stroke="rgba(195,0,10,0.2)" stroke-width="2"/>
    <path id="Caminho_48" data-name="Caminho 48" d="M70.1,301.239l-95.056,82.044" transform="translate(1652.838 5612.549) rotate(120)" fill="none" stroke="rgba(195,0,10,0.2)" stroke-width="2"/>
    <path id="Caminho_51" data-name="Caminho 51" d="M62.549,175.239-31.478,445.681" transform="translate(1714.729 5643.902) rotate(120)" fill="none" stroke="rgba(195,0,10,0.2)" stroke-width="2"/>
    <path id="Caminho_53" data-name="Caminho 53" d="M2850.791-201.149l82.662,74.726" transform="translate(2699.886 3290.378) rotate(120)" fill="none" stroke="rgba(195,0,10,0.2)" stroke-width="2"/>
    <path id="Caminho_54" data-name="Caminho 54" d="M2914.356-136.876l126.307-46.29" transform="translate(2672.357 3317.152) rotate(120)" fill="none" stroke="rgba(195,0,10,0.2)" stroke-width="2"/>
    <path id="Caminho_55" data-name="Caminho 55" d="M3008.03-184.14l125.645,33.281" transform="translate(2645.62 3364.594) rotate(120)" fill="none" stroke="rgba(195,0,10,0.2)" stroke-width="2"/>
    <path id="Caminho_56" data-name="Caminho 56" d="M3055.286-84.075l59.934-74" transform="translate(2619.303 3379.874) rotate(120)" fill="none" stroke="rgba(195,0,10,0.2)" stroke-width="2"/>
    <path id="Caminho_57" data-name="Caminho 57" d="M2954.293-63.516l140.476-39.423" transform="translate(2620.359 3313.939) rotate(120)" fill="none" stroke="rgba(195,0,10,0.2)" stroke-width="2"/>
    <path id="Caminho_58" data-name="Caminho 58" d="M2951.77-22.824l77.32-156.675" transform="translate(2660.146 3334.041) rotate(120)" fill="none" stroke="rgba(195,0,10,0.2)" stroke-width="2"/>
    <path id="Caminho_59" data-name="Caminho 59" d="M3073.825-74.875l-70.908-104.946" transform="translate(2644.932 3360.765) rotate(120)" fill="none" stroke="rgba(195,0,10,0.2)" stroke-width="2"/>
    <path id="Caminho_60" data-name="Caminho 60" d="M3165.259-159.877,2953.7-34.232" transform="translate(2649.197 3330.19) rotate(120)" fill="none" stroke="rgba(195,0,10,0.2)" stroke-width="2"/>
    <path id="Caminho_62" data-name="Caminho 62" d="M2850.791-205.331l226.23,25.526" transform="translate(2701.991 3291.594) rotate(120)" fill="none" stroke="rgba(195,0,10,0.2)" stroke-width="2"/>
    <g id="Elipse_26" data-name="Elipse 26" transform="translate(1119.543 5862.541) rotate(-90)" fill="none" stroke="rgba(195,0,10,0.2)" stroke-width="1">
      <circle cx="14.391" cy="14.391" r="14.391" stroke="none"/>
      <circle cx="14.391" cy="14.391" r="13.891" fill="none"/>
    </g>
    <g id="Elipse_27" data-name="Elipse 27" transform="translate(1363.236 5576.633) rotate(-90)" fill="none" stroke="rgba(195,0,10,0.2)" stroke-width="1">
      <circle cx="14.391" cy="14.391" r="14.391" stroke="none"/>
      <circle cx="14.391" cy="14.391" r="13.891" fill="none"/>
    </g>
    <g id="Elipse_28" data-name="Elipse 28" transform="translate(1179.027 5701.358) rotate(-90)" fill="none" stroke="rgba(195,0,10,0.2)" stroke-width="1">
      <circle cx="14.391" cy="14.391" r="14.391" stroke="none"/>
      <circle cx="14.391" cy="14.391" r="13.891" fill="none"/>
    </g>
    <g id="Elipse_30" data-name="Elipse 30" transform="translate(1274.97 5956.563) rotate(-90)" fill="none" stroke="rgba(195,0,10,0.2)" stroke-width="1">
      <circle cx="14.391" cy="14.391" r="14.391" stroke="none"/>
      <circle cx="14.391" cy="14.391" r="13.891" fill="none"/>
    </g>
    <g id="Elipse_31" data-name="Elipse 31" transform="translate(1292.239 5780.03) rotate(-90)" fill="none" stroke="rgba(195,0,10,0.2)" stroke-width="1">
      <circle cx="14.391" cy="14.391" r="14.391" stroke="none"/>
      <circle cx="14.391" cy="14.391" r="13.891" fill="none"/>
    </g>
    <g id="Elipse_32" data-name="Elipse 32" transform="translate(1246.187 5488.366) rotate(-90)" fill="none" stroke="rgba(195,0,10,0.2)" stroke-width="1">
      <circle cx="14.391" cy="14.391" r="14.391" stroke="none"/>
      <circle cx="14.391" cy="14.391" r="13.891" fill="none"/>
    </g>
    <g id="Elipse_33" data-name="Elipse 33" transform="translate(1090.761 5590.065) rotate(-90)" fill="none" stroke="rgba(195,0,10,0.2)" stroke-width="1">
      <circle cx="14.391" cy="14.391" r="14.391" stroke="none"/>
      <circle cx="14.391" cy="14.391" r="13.891" fill="none"/>
    </g>
    <g id="Elipse_35" data-name="Elipse 35" transform="translate(1240.431 6096.639) rotate(-90)" fill="none" stroke="rgba(195,0,10,0.2)" stroke-width="1">
      <circle cx="14.391" cy="14.391" r="14.391" stroke="none"/>
      <circle cx="14.391" cy="14.391" r="13.891" fill="none"/>
    </g>
    <path id="Caminho_74" data-name="Caminho 74" d="M159,3271.5l134.109,53.274" transform="translate(-2137.565 5992.758) rotate(-90)" fill="none" stroke="rgba(249,183,0,0.1)" stroke-width="1"/>
    <path id="Caminho_75" data-name="Caminho 75" d="M243,3334.954l85.612-74.532" transform="translate(-2147.745 5915.575) rotate(-90)" fill="none" stroke="rgba(249,183,0,0.1)" stroke-width="1"/>
    <path id="Caminho_76" data-name="Caminho 76" d="M300.5,3260.422l79.09,134.867" transform="translate(-2147.745 5862.742) rotate(-90)" fill="none" stroke="rgba(249,183,0,0.1)" stroke-width="1"/>
    <path id="Caminho_77" data-name="Caminho 77" d="M240.451,3307.587l106.474,165.035" transform="translate(-2104.407 5917.917) rotate(-90)" fill="none" stroke="rgba(249,183,0,0.1)" stroke-width="1"/>
    <path id="Caminho_78" data-name="Caminho 78" d="M207.581,3369l-33.717,113.74" transform="translate(-2047.978 5979.1) rotate(-90)" fill="none" stroke="rgba(249,183,0,0.1)" stroke-width="1"/>
    <path id="Caminho_79" data-name="Caminho 79" d="M110,3354l146.5,13.866" transform="translate(-2061.761 6037.781) rotate(-90)" fill="none" stroke="rgba(249,183,0,0.1)" stroke-width="1"/>
    <path id="Caminho_80" data-name="Caminho 80" d="M202,3403.155l56.923-95.105" transform="translate(-2103.982 5953.248) rotate(-90)" fill="none" stroke="rgba(249,183,0,0.1)" stroke-width="1"/>
    <path id="Caminho_81" data-name="Caminho 81" d="M225.851,3424.688l-71.87-147.62" transform="translate(-2132.449 5997.37) rotate(-90)" fill="none" stroke="rgba(249,183,0,0.1)" stroke-width="1"/>
    <path id="Caminho_82" data-name="Caminho 82" d="M104.966,3408.693l78.968-133.012" transform="translate(-2133.724 6042.407) rotate(-90)" fill="none" stroke="rgba(249,183,0,0.1)" stroke-width="1"/>
    <path id="Caminho_83" data-name="Caminho 83" d="M305.65,3441.181l67.434-99.376" transform="translate(-2072.966 5858.01) rotate(-90)" fill="none" stroke="rgba(249,183,0,0.1)" stroke-width="1"/>
    <path id="Caminho_86" data-name="Caminho 86" d="M73.5,3473.223,120.481,3357.9" transform="translate(-2058.179 6071.319) rotate(-90)" fill="none" stroke="rgba(249,183,0,0.1)" stroke-width="1"/>
    <path id="Caminho_87" data-name="Caminho 87" d="M29.5,3341.805l71.429,152" transform="translate(-2072.966 6111.748) rotate(-90)" fill="none" stroke="rgba(249,183,0,0.1)" stroke-width="1"/>
    <path id="Caminho_88" data-name="Caminho 88" d="M37,3334.5l112.4,32.211" transform="translate(-2079.678 6104.857) rotate(-90)" fill="none" stroke="rgba(249,183,0,0.1)" stroke-width="1"/>
    <g id="Elipse_11" data-name="Elipse 11" transform="translate(1441.306 5687.941) rotate(120)" fill="none" stroke="rgba(255,215,0,0.3)" stroke-width="2">
      <circle cx="11.86" cy="11.86" r="11.86" stroke="none"/>
      <circle cx="11.86" cy="11.86" r="10.86" fill="none"/>
    </g>
    <g id="Elipse_14" data-name="Elipse 14" transform="translate(1476.075 5852.266) rotate(120)" fill="none" stroke="rgba(255,215,0,0.3)" stroke-width="2">
      <circle cx="11.86" cy="11.86" r="11.86" stroke="none"/>
      <circle cx="11.86" cy="11.86" r="10.86" fill="none"/>
    </g>
    <g id="Elipse_18" data-name="Elipse 18" transform="translate(1556.175 5615.488) rotate(120)" fill="none" stroke="rgba(255,215,0,0.3)" stroke-width="2">
      <circle cx="11.86" cy="11.86" r="11.86" stroke="none"/>
      <circle cx="11.86" cy="11.86" r="10.86" fill="none"/>
    </g>
    <g id="Elipse_24" data-name="Elipse 24" transform="translate(1486.61 5446.595) rotate(120)" fill="none" stroke="rgba(255,215,0,0.3)" stroke-width="2">
      <circle cx="11.86" cy="11.86" r="11.86" stroke="none"/>
      <circle cx="11.86" cy="11.86" r="10.86" fill="none"/>
    </g>
    <g id="Elipse_25" data-name="Elipse 25" transform="translate(1640.019 5528.775) rotate(120)" fill="none" stroke="rgba(255,215,0,0.3)" stroke-width="2">
      <circle cx="11.86" cy="11.86" r="11.86" stroke="none"/>
      <circle cx="11.86" cy="11.86" r="10.86" fill="none"/>
    </g>
    <path id="Caminho_32" data-name="Caminho 32" d="M2698-171.761l98.744,52.345" transform="translate(2729.502 3204.915) rotate(120)" fill="none" stroke="rgba(195,0,10,0.2)" stroke-width="2"/>
    <path id="Caminho_33" data-name="Caminho 33" d="M2771.333-106.4l112.372-94.748" transform="translate(2723.95 3248.698) rotate(120)" fill="none" stroke="rgba(195,0,10,0.2)" stroke-width="2"/>
    <path id="Caminho_41" data-name="Caminho 41" d="M2702.511,8.969l-12.273-177.531" transform="translate(2730.146 3200.078) rotate(120)" fill="none" stroke="rgba(195,0,10,0.2)" stroke-width="2"/>
    <path id="Caminho_44" data-name="Caminho 44" d="M59.75,173.305l-97.208-21.125" transform="translate(1728.075 5647.594) rotate(120)" fill="none" stroke="rgba(195,0,10,0.2)" stroke-width="2"/>
    <path id="Caminho_46" data-name="Caminho 46" d="M58.486,171.239-35.283,303.861" transform="translate(1718.836 5643.719) rotate(120)" fill="none" stroke="rgba(195,0,10,0.2)" stroke-width="2"/>
    <path id="Caminho_52" data-name="Caminho 52" d="M2695.157-164.331l226.268-41" transform="translate(2747.228 3213.242) rotate(120)" fill="none" stroke="rgba(195,0,10,0.2)" stroke-width="2"/>
    <path id="Caminho_67" data-name="Caminho 67" d="M2860.813-176.849l-53.433-100.41" transform="translate(2750.82 3290.646) rotate(120)" fill="none" stroke="rgba(195,0,10,0.2)" stroke-width="2"/>
    <path id="Caminho_68" data-name="Caminho 68" d="M2898.371-277.259l-173.2,148.79-95.015-84.314" transform="translate(2802.334 3201.422) rotate(120)" fill="none" stroke="rgba(195,0,10,0.2)" stroke-width="2"/>
    <g id="Elipse_29" data-name="Elipse 29" transform="translate(1432.314 5824.164) rotate(-90)" fill="none" stroke="rgba(195,0,10,0.2)" stroke-width="1">
      <circle cx="14.391" cy="14.391" r="14.391" stroke="none"/>
      <circle cx="14.391" cy="14.391" r="13.891" fill="none"/>
    </g>
    <g id="Elipse_34" data-name="Elipse 34" transform="translate(1415.045 6012.21) rotate(-90)" fill="none" stroke="rgba(195,0,10,0.2)" stroke-width="1">
      <circle cx="14.391" cy="14.391" r="14.391" stroke="none"/>
      <circle cx="14.391" cy="14.391" r="13.891" fill="none"/>
    </g>
    <path id="Caminho_84" data-name="Caminho 84" d="M179,3465.288l219.952-64.294" transform="translate(-2018.582 5974.381) rotate(-90)" fill="none" stroke="rgba(249,183,0,0.1)" stroke-width="1"/>
    <path id="Caminho_85" data-name="Caminho 85" d="M81,3425.5l159.471,16.776" transform="translate(-1996.064 6064.428) rotate(-90)" fill="none" stroke="rgba(249,183,0,0.1)" stroke-width="1"/>
  </g>
</svg>
