<svg xmlns="http://www.w3.org/2000/svg" width="527.279" height="749.231" viewBox="0 0 527.279 749.231"><defs><style>.a,.b,.c,.d,.f{fill:none;}.a,.d{stroke:rgba(195,0,10,0.2);}.b{stroke:rgba(249,183,0,0.1);}.c{stroke:rgba(255,215,0,0.3);}.c,.d{stroke-width:2px;}.e{stroke:none;}</style></defs><g transform="matrix(-0.966, 0.259, -0.259, -0.966, 1219.034, 3545.36)"><g class="a" transform="translate(228.344 3121.237) rotate(-60)"><circle class="e" cx="13.702" cy="13.702" r="13.702"/><circle class="f" cx="13.702" cy="13.702" r="13.202"/></g><g class="a" transform="translate(17.077 3136.386) rotate(-60)"><circle class="e" cx="13.702" cy="13.702" r="13.702"/><circle class="f" cx="13.702" cy="13.702" r="13.202"/></g><g class="a" transform="translate(167.464 3358.225) rotate(-60)"><circle class="e" cx="13.702" cy="13.702" r="13.702"/><circle class="f" cx="13.702" cy="13.702" r="13.202"/></g><g class="a" transform="translate(-25.306 3392.491) rotate(-60)"><circle class="e" cx="13.702" cy="13.702" r="13.702"/><circle class="f" cx="13.702" cy="13.702" r="13.202"/></g><g class="a" transform="translate(72.975 3255.15) rotate(-60)"><circle class="e" cx="13.702" cy="13.702" r="13.702"/><circle class="f" cx="13.702" cy="13.702" r="13.202"/></g><g class="a" transform="translate(173.851 2992.734) rotate(-60)"><circle class="e" cx="13.702" cy="13.702" r="13.702"/><circle class="f" cx="13.702" cy="13.702" r="13.202"/></g><g class="a" transform="translate(-2.722 3002.598) rotate(-60)"><circle class="e" cx="13.702" cy="13.702" r="13.702"/><circle class="f" cx="13.702" cy="13.702" r="13.202"/></g><g class="a" transform="translate(63.703 3505.059) rotate(-60)"><circle class="e" cx="13.702" cy="13.702" r="13.702"/><circle class="f" cx="13.702" cy="13.702" r="13.202"/></g><path class="b" d="M159,3271.5l127.687,50.723" transform="translate(-2995.836 1726.038) rotate(-60)"/><path class="b" d="M243,3331.385l81.512-70.962" transform="translate(-2969.038 1661.299) rotate(-60)"/><path class="b" d="M300.5,3260.422l75.3,128.409" transform="translate(-2945.263 1620.12) rotate(-60)"/><path class="b" d="M240.451,3307.587l101.375,157.132" transform="translate(-2936.313 1682.626) rotate(-60)"/><path class="b" d="M205.967,3369l-32.1,108.293" transform="translate(-2919.863 1755.707) rotate(-60)"/><path class="b" d="M110,3354l139.487,13.2" transform="translate(-2957.013 1795.241) rotate(-60)"/><path class="b" d="M202,3398.6l54.2-90.551" transform="translate(-2951.881 1710.355) rotate(-60)"/><path class="b" d="M222.409,3417.62l-68.428-140.551" transform="translate(-2993.924 1731.934) rotate(-60)"/><path class="b" d="M104.966,3402.324l75.187-126.643" transform="translate(-3015.184 1766.464) rotate(-60)"/><path class="b" d="M305.65,3436.422l64.2-94.617" transform="translate(-2884.849 1650.082) rotate(-60)"/><path class="b" d="M179,3462.209l209.42-61.215" transform="translate(-2894.828 1765.257) rotate(-60)"/><path class="b" d="M81,3425.5l151.834,15.973" transform="translate(-2917.798 1845.574) rotate(-60)"/><path class="b" d="M73.5,3467.7l44.731-109.8" transform="translate(-2969.313 1822.994) rotate(-60)"/><path class="b" d="M29.5,3341.805l68.009,144.718" transform="translate(-2999.031 1847.851) rotate(-60)"/><g class="c" transform="translate(168.081 3370.354) rotate(150)"><circle class="e" cx="11.86" cy="11.86" r="11.86"/><circle class="f" cx="11.86" cy="11.86" r="10.86"/></g><g class="c" transform="translate(116.03 3530.048) rotate(150)"><circle class="e" cx="11.86" cy="11.86" r="11.86"/><circle class="f" cx="11.86" cy="11.86" r="10.86"/></g><g class="c" transform="translate(190.469 3200.396) rotate(150)"><circle class="e" cx="11.86" cy="11.86" r="11.86"/><circle class="f" cx="11.86" cy="11.86" r="10.86"/></g><g class="c" transform="translate(54.025 3039.972) rotate(150)"><circle class="e" cx="11.86" cy="11.86" r="11.86"/><circle class="f" cx="11.86" cy="11.86" r="10.86"/></g><g class="c" transform="translate(2.625 3257.721) rotate(150)"><circle class="e" cx="11.86" cy="11.86" r="11.86"/><circle class="f" cx="11.86" cy="11.86" r="10.86"/></g><g class="c" transform="translate(303.787 3365.042) rotate(150)"><circle class="e" cx="11.86" cy="11.86" r="11.86"/><circle class="f" cx="11.86" cy="11.86" r="10.86"/></g><g class="c" transform="translate(135.232 2952.916) rotate(150)"><circle class="e" cx="11.86" cy="11.86" r="11.86"/><circle class="f" cx="11.86" cy="11.86" r="10.86"/></g><g class="c" transform="translate(243.791 3061.879) rotate(150)"><circle class="e" cx="11.86" cy="11.86" r="11.86"/><circle class="f" cx="11.86" cy="11.86" r="10.86"/></g><g class="c" transform="translate(327.988 3183.994) rotate(150)"><circle class="e" cx="11.86" cy="11.86" r="11.86"/><circle class="f" cx="11.86" cy="11.86" r="10.86"/></g><path class="d" d="M2698-171.761l98.744,52.345" transform="translate(2525.203 1864.088) rotate(150)"/><path class="d" d="M2771.333-106.4l112.372-94.748" transform="translate(2498.504 1899.229) rotate(150)"/><path class="d" d="M2774-128.32,2976.1-147.2" transform="translate(2479.804 1873.814) rotate(150)"/><path class="d" d="M2770.108-129l75.14,161.253" transform="translate(2476.471 1863.517) rotate(150)"/><path class="d" d="M2794.033-129,2705.358-8.949" transform="translate(2509.83 1846.015) rotate(150)"/><path class="d" d="M2701.914-42.655l33.726,185.822" transform="translate(2485.707 1800.229) rotate(150)"/><path class="d" d="M2729.222,131.158,2868.555-16.309" transform="translate(2464.301 1794.902) rotate(150)"/><path class="d" d="M2707.895-31.179l367.942-43.844" transform="translate(2492.104 1818.262) rotate(150)"/><path class="d" d="M2828.04,3.486l185.69-73.073" transform="translate(2430.037 1850.447) rotate(150)"/><path class="d" d="M2702.511,8.969l-12.273-177.531" transform="translate(2528.181 1860.221) rotate(150)"/><path class="d" d="M3039.774-49.471l-266.864-82.172" transform="translate(2475.829 1865.665) rotate(150)"/><path class="d" d="M-32.5,262,71.418,312.718" transform="translate(402.188 3424.952) rotate(150)"/><path class="d" d="M58.486,171.239-35.283,303.861" transform="translate(430.539 3470.821) rotate(150)"/><path class="d" d="M106.661,459.6-24.954,355.5" transform="translate(371.211 3380.07) rotate(150)"/><path class="d" d="M70.1,301.239l-95.056,82.044" transform="translate(388.969 3410.828) rotate(150)"/><path class="d" d="M92.756,429.983l-93.79,23.195" transform="translate(338.802 3351.746) rotate(150)"/><path class="d" d="M63.066,301.239-4.839,524.383" transform="translate(377.609 3414.539) rotate(150)"/><path class="d" d="M62.549,175.239-31.478,445.681" transform="translate(426.891 3468.926) rotate(150)"/><path class="d" d="M2695.157-164.331l226.268-41" transform="translate(2536.391 1880.162) rotate(150)"/><path class="d" d="M2850.791-201.149l82.662,74.726" transform="translate(2456.824 1923.293) rotate(150)"/><path class="d" d="M2850.791-205.331l226.23,25.526" transform="translate(2458.039 1925.399) rotate(150)"/><path class="d" d="M128.631,429.983-1.034,433.965" transform="translate(602.344 2825.908) rotate(57)"/><path class="d" d="M130.017,429.983-1.034,462.757" transform="translate(517.761 2704.318) rotate(57)"/><path class="d" d="M2914.356-136.876l126.307-46.29" transform="translate(2419.597 1932.716) rotate(150)"/><g class="a" transform="translate(-108.703 3240.972) rotate(-60)"><circle class="e" cx="13.702" cy="13.702" r="13.702"/><circle class="f" cx="13.702" cy="13.702" r="13.202"/></g><g class="a" transform="translate(-120.469 3491.548) rotate(-60)"><circle class="e" cx="13.702" cy="13.702" r="13.702"/><circle class="f" cx="13.702" cy="13.702" r="13.202"/></g><path class="b" d="M37,3334.5l107.022,30.669" transform="translate(-3001.162 1839.459) rotate(-60)"/><g class="c" transform="translate(-15.313 3501.8) rotate(150)"><circle class="e" cx="11.86" cy="11.86" r="11.86"/><circle class="f" cx="11.86" cy="11.86" r="10.86"/></g></g></svg>