<svg xmlns="http://www.w3.org/2000/svg" width="476.1" height="706.2" viewBox="0 0 476 706"><g fill="none" data-name="Fundo 6" transform="translate(-1051 -3816)"><g stroke="rgba(255,215,0,0.3)" stroke-width="2" data-name="Elipse 12" transform="rotate(90 -1508 2831)"><circle cx="11.8" cy="11.8" r="11.8" stroke="none"/><circle cx="11.8" cy="11.8" r="10.8"/></g><g stroke="rgba(255,215,0,0.4)" stroke-width="2" data-name="Elipse 15" transform="rotate(90 -1335 2616)"><circle cx="11.8" cy="11.8" r="11.8" stroke="none"/><circle cx="11.8" cy="11.8" r="10.8"/></g><g stroke="rgba(255,215,0,0.4)" stroke-width="2" data-name="Elipse 16" transform="rotate(90 -1457 2532)"><circle cx="11.8" cy="11.8" r="11.8" stroke="none"/><circle cx="11.8" cy="11.8" r="10.8"/></g><g stroke="rgba(255,215,0,0.3)" stroke-width="2" data-name="Elipse 17" transform="rotate(90 -1452 2689)"><circle cx="11.8" cy="11.8" r="11.8" stroke="none"/><circle cx="11.8" cy="11.8" r="10.8"/></g><g stroke="rgba(255,215,0,0.3)" stroke-width="2" data-name="Elipse 20" transform="rotate(90 -1563 2935)"><circle cx="11.8" cy="11.8" r="11.8" stroke="none"/><circle cx="11.8" cy="11.8" r="10.8"/></g><g stroke="rgba(255,215,0,0.4)" stroke-width="2" data-name="Elipse 23" transform="rotate(90 -1324 2512)"><circle cx="11.8" cy="11.8" r="11.8" stroke="none"/><circle cx="11.8" cy="11.8" r="10.8"/></g><path stroke="rgba(195,0,10,0.25)" stroke-width="2" d="m1394 4073-160 74" data-name="Caminho 35"/><path stroke="rgba(195,0,10,0.2)" stroke-width="2" d="m1396 4059-119-88" data-name="Caminho 36"/><path stroke="rgba(195,0,10,0.25)" stroke-width="2" d="m1259 3966-185 33" data-name="Caminho 37"/><path stroke="rgba(195,0,10,0.25)" stroke-width="2" d="m1071 4008 146 139" data-name="Caminho 38"/><path stroke="rgba(195,0,10,0.2)" stroke-width="2" d="m1266 3975 43 366" data-name="Caminho 39"/><path stroke="rgba(195,0,10,0.25)" stroke-width="2" d="m1228 4164 73 184" data-name="Caminho 40"/><path stroke="rgba(195,0,10,0.2)" stroke-width="2" d="m1280 3959 176-12" data-name="Caminho 41"/><path stroke="rgba(195,0,10,0.2)" stroke-width="2" d="m1323 4351 94-55" data-name="Caminho 42"/><path stroke="rgba(195,0,10,0.2)" stroke-width="2" d="m1317 4342 81-265" data-name="Caminho 43"/><path stroke="rgba(195,0,10,0.25)" stroke-width="2" d="m1069 3991 103-131" data-name="Caminho 47"/><path stroke="rgba(195,0,10,0.25)" stroke-width="2" d="m1261 3955-81-95" data-name="Caminho 48"/><path stroke="rgba(195,0,10,0.2)" stroke-width="2" d="m1455 3944-269-94" data-name="Caminho 51"/><path stroke="rgba(195,0,10,0.2)" stroke-width="2" d="m1314 4362 39 140" data-name="Caminho 57"/><path stroke="rgba(195,0,10,0.2)" stroke-width="2" d="m1318 4357 156 77" data-name="Caminho 58"/><path stroke="rgba(195,0,10,0.2)" stroke-width="2" d="m1061 4019 292 483" data-name="Caminho 71"/><g stroke="rgba(195,0,10,0.2)" data-name="Elipse 26" transform="rotate(-90 2653 1552)"><circle cx="13.9" cy="13.9" r="13.9" stroke="none"/><circle cx="13.9" cy="13.9" r="13.4"/></g><g stroke="rgba(195,0,10,0.2)" data-name="Elipse 27" transform="rotate(-90 2633 1296)"><circle cx="13.9" cy="13.9" r="13.9" stroke="none"/><circle cx="13.9" cy="13.9" r="13.4"/></g><g stroke="rgba(195,0,10,0.2)" data-name="Elipse 28" transform="rotate(-90 2604 1445)"><circle cx="13.9" cy="13.9" r="13.9" stroke="none"/><circle cx="13.9" cy="13.9" r="13.4"/></g><g stroke="rgba(195,0,10,0.2)" data-name="Elipse 30" transform="rotate(-90 2774 1523)"><circle cx="13.9" cy="13.9" r="13.9" stroke="none"/><circle cx="13.9" cy="13.9" r="13.4"/></g><g stroke="rgba(195,0,10,0.2)" data-name="Elipse 31" transform="rotate(-90 2697 1429)"><circle cx="13.9" cy="13.9" r="13.9" stroke="none"/><circle cx="13.9" cy="13.9" r="13.4"/></g><g stroke="rgba(195,0,10,0.2)" data-name="Elipse 32" transform="rotate(-90 2534 1310)"><circle cx="13.9" cy="13.9" r="13.9" stroke="none"/><circle cx="13.9" cy="13.9" r="13.4"/></g><g stroke="rgba(195,0,10,0.2)" data-name="Elipse 33" transform="rotate(-90 2508 1434)"><circle cx="13.9" cy="13.9" r="13.9" stroke="none"/><circle cx="13.9" cy="13.9" r="13.4"/></g><g stroke="rgba(195,0,10,0.2)" data-name="Elipse 35" transform="rotate(-90 2825 1607)"><circle cx="13.9" cy="13.9" r="13.9" stroke="none"/><circle cx="13.9" cy="13.9" r="13.4"/></g><path stroke="rgba(249,183,0,0.1)" d="m1115 4178 52-130" data-name="Caminho 74"/><path stroke="rgba(249,183,0,0.1)" d="m1167 4022-73-83" data-name="Caminho 75"/><path stroke="rgba(249,183,0,0.1)" d="m1094 3915 131-77" data-name="Caminho 76"/><path stroke="rgba(249,183,0,0.1)" d="m1182 4027 160-104" data-name="Caminho 77"/><path stroke="rgba(249,183,0,0.1)" d="m1296 4118 110 32" data-name="Caminho 78"/><path stroke="rgba(249,183,0,0.1)" d="m1268 4269 14-142" data-name="Caminho 79"/><path stroke="rgba(249,183,0,0.1)" d="m1275 4098-92-55" data-name="Caminho 80"/><path stroke="rgba(249,183,0,0.1)" d="m1268 4118-143 69" data-name="Caminho 81"/><path stroke="rgba(249,183,0,0.1)" d="m1252 4278-129-76" data-name="Caminho 82"/><path stroke="rgba(249,183,0,0.1)" d="m1342 3905-96-65" data-name="Caminho 83"/><path stroke="rgba(249,183,0,0.1)" d="m1418 4141-63-213" data-name="Caminho 84"/><path stroke="rgba(249,183,0,0.1)" d="m1387 4337-112-46" data-name="Caminho 86"/><path stroke="rgba(249,183,0,0.1)" d="m1246 4418 147-69" data-name="Caminho 87"/><path stroke="rgba(249,183,0,0.1)" d="m1232 4404 31-108" data-name="Caminho 88"/><g stroke="rgba(255,215,0,0.4)" stroke-width="2" data-name="Elipse 11" transform="rotate(90 -1320 2736)"><circle cx="11.8" cy="11.8" r="11.8" stroke="none"/><circle cx="11.8" cy="11.8" r="10.8"/></g><g stroke="rgba(255,215,0,0.4)" stroke-width="2" data-name="Elipse 13" transform="rotate(90 -1463 2959)"><circle cx="11.8" cy="11.8" r="11.8" stroke="none"/><circle cx="11.8" cy="11.8" r="10.8"/></g><g stroke="rgba(255,215,0,0.4)" stroke-width="2" data-name="Elipse 14" transform="rotate(90 -1326 2853)"><circle cx="11.8" cy="11.8" r="11.8" stroke="none"/><circle cx="11.8" cy="11.8" r="10.8"/></g><g stroke="rgba(255,215,0,0.4)" stroke-width="2" data-name="Elipse 18" transform="rotate(90 -1229 2707)"><circle cx="11.8" cy="11.8" r="11.8" stroke="none"/><circle cx="11.8" cy="11.8" r="10.8"/></g><g stroke="rgba(255,215,0,0.4)" stroke-width="2" data-name="Elipse 19" transform="rotate(90 -1420 2858)"><circle cx="11.8" cy="11.8" r="11.8" stroke="none"/><circle cx="11.8" cy="11.8" r="10.8"/></g><path stroke="rgba(195,0,10,0.25)" stroke-width="2" d="m1461 3959-52 98" data-name="Caminho 32"/><path stroke="rgba(195,0,10,0.25)" stroke-width="2" d="m1413 4073 95 111" data-name="Caminho 33"/><path stroke="rgba(195,0,10,0.25)" stroke-width="2" d="m1404 4079 19 201" data-name="Caminho 34"/><path stroke="rgba(195,0,10,0.25)" stroke-width="2" d="m1473 3955 41 225" data-name="Caminho 52"/><path stroke="rgba(195,0,10,0.25)" stroke-width="2" d="m1508 4199-75 83" data-name="Caminho 53"/><path stroke="rgba(195,0,10,0.25)" stroke-width="2" d="m1433 4299 46 126" data-name="Caminho 54"/><path stroke="rgba(195,0,10,0.2)" stroke-width="2" d="m1370 4509 104-71" data-name="Caminho 59"/><path stroke="rgba(195,0,10,0.25)" stroke-width="2" d="m1514 4199-25 225" data-name="Caminho 62"/><g stroke="rgba(195,0,10,0.2)" data-name="Elipse 29" transform="rotate(-90 2786 1382)"><circle cx="13.9" cy="13.9" r="13.9" stroke="none"/><circle cx="13.9" cy="13.9" r="13.4"/></g><g stroke="rgba(195,0,10,0.2)" data-name="Elipse 34" transform="rotate(-90 2869 1482)"><circle cx="13.9" cy="13.9" r="13.9" stroke="none"/><circle cx="13.9" cy="13.9" r="13.4"/></g><path stroke="rgba(249,183,0,0.1)" d="m1401 4323 16-155" data-name="Caminho 85"/></g></svg>