<svg xmlns="http://www.w3.org/2000/svg" width="747.3" height="741.3" viewBox="0 0 747 741"><g fill="none" data-name="Fundo 9" transform="translate(339 -6034)"><g stroke="rgba(255,215,0,0.4)" stroke-width="2" data-name="Elipse 11" transform="rotate(45 -7470 3159)"><circle cx="11.8" cy="11.8" r="11.8" stroke="none"/><circle cx="11.8" cy="11.8" r="10.8"/></g><g stroke="rgba(255,215,0,0.3)" stroke-width="2" data-name="Elipse 12" transform="rotate(45 -7724 3456)"><circle cx="11.8" cy="11.8" r="11.8" stroke="none"/><circle cx="11.8" cy="11.8" r="10.8"/></g><g stroke="rgba(255,215,0,0.4)" stroke-width="2" data-name="Elipse 13" transform="rotate(45 -7557 3643)"><circle cx="11.8" cy="11.8" r="11.8" stroke="none"/><circle cx="11.8" cy="11.8" r="10.8"/></g><g stroke="rgba(255,215,0,0.4)" stroke-width="2" data-name="Elipse 14" transform="rotate(45 -7397 3364)"><circle cx="11.8" cy="11.8" r="11.8" stroke="none"/><circle cx="11.8" cy="11.8" r="10.8"/></g><g stroke="rgba(255,215,0,0.4)" stroke-width="2" data-name="Elipse 18" transform="rotate(45 -7334 3046)"><circle cx="11.8" cy="11.8" r="11.8" stroke="none"/><circle cx="11.8" cy="11.8" r="10.8"/></g><g stroke="rgba(255,215,0,0.4)" stroke-width="2" data-name="Elipse 19" transform="rotate(45 -7555 3439)"><circle cx="11.8" cy="11.8" r="11.8" stroke="none"/><circle cx="11.8" cy="11.8" r="10.8"/></g><g stroke="rgba(255,215,0,0.3)" stroke-width="2" data-name="Elipse 20" transform="rotate(45 -7745 3671)"><circle cx="11.8" cy="11.8" r="11.8" stroke="none"/><circle cx="11.8" cy="11.8" r="10.8"/></g><path stroke="rgba(195,0,10,0.25)" stroke-width="2" d="m10 6107 33 106" data-name="Caminho 32"/><path stroke="rgba(195,0,10,0.25)" stroke-width="2" d="m56 6221 146 13" data-name="Caminho 33"/><path stroke="rgba(195,0,10,0.25)" stroke-width="2" d="m54 6232 155 129" data-name="Caminho 34"/><path stroke="rgba(195,0,10,0.25)" stroke-width="2" d="m43 6235-61 166" data-name="Caminho 35"/><path stroke="rgba(195,0,10,0.2)" stroke-width="2" d="m34 6224-147 22" data-name="Caminho 36"/><path stroke="rgba(195,0,10,0.2)" stroke-width="2" d="m-117 6257 289 227" data-name="Caminho 39"/><path stroke="rgba(195,0,10,0.25)" stroke-width="2" d="m-10 6417 181 79" data-name="Caminho 40"/><path stroke="rgba(195,0,10,0.2)" stroke-width="2" d="m-118 6236 116-134" data-name="Caminho 41"/><path stroke="rgba(195,0,10,0.2)" stroke-width="2" d="m189 6482 28-105" data-name="Caminho 42"/><path stroke="rgba(195,0,10,0.2)" stroke-width="2" d="M178 6480 49 6235" data-name="Caminho 43"/><path stroke="rgba(195,0,10,0.25)" stroke-width="2" d="m15 6096 188 130" data-name="Caminho 52"/><path stroke="rgba(195,0,10,0.25)" stroke-width="2" d="m212 6244 6 111" data-name="Caminho 53"/><path stroke="rgba(195,0,10,0.25)" stroke-width="2" d="m231 6368 121 56" data-name="Caminho 54"/><path stroke="rgba(195,0,10,0.2)" stroke-width="2" d="m191 6496 126 71" data-name="Caminho 57"/><path stroke="rgba(195,0,10,0.2)" stroke-width="2" d="m190 6490 164-56" data-name="Caminho 58"/><path stroke="rgba(195,0,10,0.2)" stroke-width="2" d="m334 6561 24-124" data-name="Caminho 59"/><path stroke="rgba(195,0,10,0.25)" stroke-width="2" d="m217 6240 141 177" data-name="Caminho 62"/><path stroke="rgba(195,0,10,0.2)" stroke-width="2" d="m-231 6432 548 136" data-name="Caminho 71"/><g stroke="rgba(195,0,10,0.2)" data-name="Elipse 29" transform="rotate(-135 1362 3124)"><circle cx="13.9" cy="13.9" r="13.9" stroke="none"/><circle cx="13.9" cy="13.9" r="13.4"/></g><g stroke="rgba(195,0,10,0.2)" data-name="Elipse 30" transform="rotate(-135 1395 3226)"><circle cx="13.9" cy="13.9" r="13.9" stroke="none"/><circle cx="13.9" cy="13.9" r="13.4"/></g><g stroke="rgba(195,0,10,0.2)" data-name="Elipse 31" transform="rotate(-135 1313 3183)"><circle cx="13.9" cy="13.9" r="13.9" stroke="none"/><circle cx="13.9" cy="13.9" r="13.4"/></g><g stroke="rgba(195,0,10,0.2)" data-name="Elipse 34" transform="rotate(-135 1450 3170)"><circle cx="13.9" cy="13.9" r="13.9" stroke="none"/><circle cx="13.9" cy="13.9" r="13.4"/></g><g stroke="rgba(195,0,10,0.2)" data-name="Elipse 35" transform="rotate(-135 1456 3271)"><circle cx="13.9" cy="13.9" r="13.9" stroke="none"/><circle cx="13.9" cy="13.9" r="13.4"/></g><path stroke="rgba(249,183,0,0.1)" d="m5 6336 101-55" data-name="Caminho 78"/><path stroke="rgba(249,183,0,0.1)" d="M92 6463 1 6353" data-name="Caminho 79"/><path stroke="rgba(249,183,0,0.1)" d="m-15 6356-52 150" data-name="Caminho 81"/><path stroke="rgba(249,183,0,0.1)" d="m87 6481-145 37" data-name="Caminho 82"/><path stroke="rgba(249,183,0,0.1)" d="m107 6266-194-106" data-name="Caminho 84"/><path stroke="rgba(249,183,0,0.1)" d="m224 6407-98-121" data-name="Caminho 85"/><path stroke="rgba(249,183,0,0.1)" d="m224 6427-111 46" data-name="Caminho 86"/><path stroke="rgba(249,183,0,0.1)" d="m182 6584 55-152" data-name="Caminho 87"/><path stroke="rgba(249,183,0,0.1)" d="m162 6584-54-99" data-name="Caminho 88"/><g stroke="rgba(255,215,0,0.4)" stroke-width="2" data-name="Elipse 15" transform="rotate(45 -7581 2966)"><circle cx="11.8" cy="11.8" r="11.8" stroke="none"/><circle cx="11.8" cy="11.8" r="10.8"/></g><g stroke="rgba(255,215,0,0.4)" stroke-width="2" data-name="Elipse 16" transform="rotate(45 -7849 2908)"><circle cx="11.8" cy="11.8" r="11.8" stroke="none"/><circle cx="11.8" cy="11.8" r="10.8"/></g><g stroke="rgba(255,215,0,0.3)" stroke-width="2" data-name="Elipse 17" transform="rotate(45 -7729 3173)"><circle cx="11.8" cy="11.8" r="11.8" stroke="none"/><circle cx="11.8" cy="11.8" r="10.8"/></g><g stroke="rgba(255,215,0,0.4)" stroke-width="2" data-name="Elipse 23" transform="rotate(45 -7636 2781)"><circle cx="11.8" cy="11.8" r="11.8" stroke="none"/><circle cx="11.8" cy="11.8" r="10.8"/></g><path stroke="rgba(195,0,10,0.25)" stroke-width="2" d="m-129 6255-107 154" data-name="Caminho 37"/><path stroke="rgba(195,0,10,0.25)" stroke-width="2" d="m-232 6418 202-5" data-name="Caminho 38"/><path stroke="rgba(195,0,10,0.25)" stroke-width="2" d="m-245 6408-20-166" data-name="Caminho 47"/><path stroke="rgba(195,0,10,0.25)" stroke-width="2" d="m-135 6246-124-9" data-name="Caminho 48"/><path stroke="rgba(195,0,10,0.2)" stroke-width="2" d="m-6 6101-256 124" data-name="Caminho 51"/><g stroke="rgba(195,0,10,0.2)" data-name="Elipse 26" transform="rotate(-135 1318 3283)"><circle cx="13.9" cy="13.9" r="13.9" stroke="none"/><circle cx="13.9" cy="13.9" r="13.4"/></g><g stroke="rgba(195,0,10,0.2)" data-name="Elipse 27" transform="rotate(-135 1229 3108)"><circle cx="13.9" cy="13.9" r="13.9" stroke="none"/><circle cx="13.9" cy="13.9" r="13.4"/></g><g stroke="rgba(195,0,10,0.2)" data-name="Elipse 28" transform="rotate(-135 1252 3222)"><circle cx="13.9" cy="13.9" r="13.9" stroke="none"/><circle cx="13.9" cy="13.9" r="13.4"/></g><g stroke="rgba(195,0,10,0.2)" data-name="Elipse 32" transform="rotate(-135 1163 3146)"><circle cx="13.9" cy="13.9" r="13.9" stroke="none"/><circle cx="13.9" cy="13.9" r="13.4"/></g><g stroke="rgba(195,0,10,0.2)" data-name="Elipse 33" transform="rotate(-135 1181 3242)"><circle cx="13.9" cy="13.9" r="13.9" stroke="none"/><circle cx="13.9" cy="13.9" r="13.4"/></g><path stroke="rgba(249,183,0,0.1)" d="m-81 6507-55-129" data-name="Caminho 74"/><path stroke="rgba(249,183,0,0.1)" d="m-154 6360-110-8" data-name="Caminho 75"/><path stroke="rgba(249,183,0,0.1)" d="m-281 6335 38-146" data-name="Caminho 76"/><path stroke="rgba(249,183,0,0.1)" d="m-140 6352 40-185" data-name="Caminho 77"/><path stroke="rgba(249,183,0,0.1)" d="m-24 6337-104 26" data-name="Caminho 80"/><path stroke="rgba(249,183,0,0.1)" d="m-113 6154-114 22" data-name="Caminho 83"/></g></svg>