<svg xmlns="http://www.w3.org/2000/svg" width="527.3" height="749.2" viewBox="0 0 527 749"><g fill="none" data-name="Fundo 5" transform="rotate(165 376 1853)"><g stroke="rgba(195,0,10,0.2)" data-name="Elipse 27" transform="rotate(-60 2817 1363)"><circle cx="13.7" cy="13.7" r="13.7" stroke="none"/><circle cx="13.7" cy="13.7" r="13.2"/></g><g stroke="rgba(195,0,10,0.2)" data-name="Elipse 28" transform="rotate(-60 2725 1553)"><circle cx="13.7" cy="13.7" r="13.7" stroke="none"/><circle cx="13.7" cy="13.7" r="13.2"/></g><g stroke="rgba(195,0,10,0.2)" data-name="Elipse 29" transform="rotate(-60 2992 1534)"><circle cx="13.7" cy="13.7" r="13.7" stroke="none"/><circle cx="13.7" cy="13.7" r="13.2"/></g><g stroke="rgba(195,0,10,0.2)" data-name="Elipse 30" transform="rotate(-60 2925 1718)"><circle cx="13.7" cy="13.7" r="13.7" stroke="none"/><circle cx="13.7" cy="13.7" r="13.2"/></g><g stroke="rgba(195,0,10,0.2)" data-name="Elipse 31" transform="rotate(-60 2856 1564)"><circle cx="13.7" cy="13.7" r="13.7" stroke="none"/><circle cx="13.7" cy="13.7" r="13.2"/></g><g stroke="rgba(195,0,10,0.2)" data-name="Elipse 32" transform="rotate(-60 2679 1346)"><circle cx="13.7" cy="13.7" r="13.7" stroke="none"/><circle cx="13.7" cy="13.7" r="13.2"/></g><g stroke="rgba(195,0,10,0.2)" data-name="Elipse 33" transform="rotate(-60 2599 1504)"><circle cx="13.7" cy="13.7" r="13.7" stroke="none"/><circle cx="13.7" cy="13.7" r="13.2"/></g><g stroke="rgba(195,0,10,0.2)" data-name="Elipse 34" transform="rotate(-60 3067 1697)"><circle cx="13.7" cy="13.7" r="13.7" stroke="none"/><circle cx="13.7" cy="13.7" r="13.2"/></g><path stroke="rgba(249,183,0,0.1)" d="m-83 3224 108-85" data-name="Caminho 74"/><path stroke="rgba(249,183,0,0.1)" d="m38 3117-21-107" data-name="Caminho 75"/><path stroke="rgba(249,183,0,0.1)" d="m29 2990 148-1" data-name="Caminho 76"/><path stroke="rgba(249,183,0,0.1)" d="m48 3128 187-9" data-name="Caminho 77"/><path stroke="rgba(249,183,0,0.1)" d="m101 3262 77 82" data-name="Caminho 78"/><path stroke="rgba(249,183,0,0.1)" d="m3 3377 81-114" data-name="Caminho 79"/><path stroke="rgba(249,183,0,0.1)" d="m92 3235-51-92" data-name="Caminho 80"/><path stroke="rgba(249,183,0,0.1)" d="m77 3248-156-11" data-name="Caminho 81"/><path stroke="rgba(249,183,0,0.1)" d="m-16 3377-72-129" data-name="Caminho 82"/><path stroke="rgba(249,183,0,0.1)" d="m244 3104-50-103" data-name="Caminho 83"/><path stroke="rgba(249,183,0,0.1)" d="m193 3341 52-212" data-name="Caminho 84"/><path stroke="rgba(249,183,0,0.1)" d="m89 3488 90-123" data-name="Caminho 85"/><path stroke="rgba(249,183,0,0.1)" d="m71 3493-73-93" data-name="Caminho 86"/><path stroke="rgba(249,183,0,0.1)" d="m-90 3493 159 14" data-name="Caminho 87"/><g stroke="rgba(255,215,0,0.3)" stroke-width="2" data-name="Elipse 11" transform="rotate(150 -368 1708)"><circle cx="11.9" cy="11.9" r="11.9" stroke="none"/><circle cx="11.9" cy="11.9" r="10.9"/></g><g stroke="rgba(255,215,0,0.3)" stroke-width="2" data-name="Elipse 14" transform="rotate(150 -415 1781)"><circle cx="11.9" cy="11.9" r="11.9" stroke="none"/><circle cx="11.9" cy="11.9" r="10.9"/></g><g stroke="rgba(255,215,0,0.3)" stroke-width="2" data-name="Elipse 15" transform="rotate(150 -334 1626)"><circle cx="11.9" cy="11.9" r="11.9" stroke="none"/><circle cx="11.9" cy="11.9" r="10.9"/></g><g stroke="rgba(255,215,0,0.3)" stroke-width="2" data-name="Elipse 16" transform="rotate(150 -380 1527)"><circle cx="11.9" cy="11.9" r="11.9" stroke="none"/><circle cx="11.9" cy="11.9" r="10.9"/></g><g stroke="rgba(255,215,0,0.3)" stroke-width="2" data-name="Elipse 17" transform="rotate(150 -435 1629)"><circle cx="11.9" cy="11.9" r="11.9" stroke="none"/><circle cx="11.9" cy="11.9" r="10.9"/></g><g stroke="rgba(255,215,0,0.3)" stroke-width="2" data-name="Elipse 18" transform="rotate(150 -299 1723)"><circle cx="11.9" cy="11.9" r="11.9" stroke="none"/><circle cx="11.9" cy="11.9" r="10.9"/></g><g stroke="rgba(255,215,0,0.3)" stroke-width="2" data-name="Elipse 22" transform="rotate(150 -328 1495)"><circle cx="11.9" cy="11.9" r="11.9" stroke="none"/><circle cx="11.9" cy="11.9" r="10.9"/></g><g stroke="rgba(255,215,0,0.3)" stroke-width="2" data-name="Elipse 23" transform="rotate(150 -288 1564)"><circle cx="11.9" cy="11.9" r="11.9" stroke="none"/><circle cx="11.9" cy="11.9" r="10.9"/></g><g stroke="rgba(255,215,0,0.3)" stroke-width="2" data-name="Elipse 24" transform="rotate(150 -263 1636)"><circle cx="11.9" cy="11.9" r="11.9" stroke="none"/><circle cx="11.9" cy="11.9" r="10.9"/></g><path stroke="rgba(195,0,10,0.2)" stroke-width="2" d="m275 3362-112 4" data-name="Caminho 32"/><path stroke="rgba(195,0,10,0.2)" stroke-width="2" d="m152 3377-50 138" data-name="Caminho 33"/><path stroke="rgba(195,0,10,0.2)" stroke-width="2" d="m142 3372-166 117" data-name="Caminho 34"/><path stroke="rgba(195,0,10,0.2)" stroke-width="2" d="M142 3360-4 3258" data-name="Caminho 35"/><path stroke="rgba(195,0,10,0.2)" stroke-width="2" d="m155 3355 16-149" data-name="Caminho 36"/><path stroke="rgba(195,0,10,0.2)" stroke-width="2" d="M167 3188 45 3044" data-name="Caminho 37"/><path stroke="rgba(195,0,10,0.2)" stroke-width="2" d="m35 3046-47 197" data-name="Caminho 38"/><path stroke="rgba(195,0,10,0.2)" stroke-width="2" d="m163 3199-297 222" data-name="Caminho 39"/><path stroke="rgba(195,0,10,0.2)" stroke-width="2" d="m-21 3261-124 157" data-name="Caminho 40"/><path stroke="rgba(195,0,10,0.2)" stroke-width="2" d="m183 3204 100 147" data-name="Caminho 41"/><path stroke="rgba(195,0,10,0.2)" stroke-width="2" d="m-132 3428 272-62" data-name="Caminho 43"/><path stroke="rgba(195,0,10,0.2)" stroke-width="2" d="m299 3182-115 8" data-name="Caminho 45"/><path stroke="rgba(195,0,10,0.2)" stroke-width="2" d="m294 3352 15-162" data-name="Caminho 46"/><path stroke="rgba(195,0,10,0.2)" stroke-width="2" d="m49 3035 166 25" data-name="Caminho 47"/><path stroke="rgba(195,0,10,0.2)" stroke-width="2" d="m178 3185 41-119" data-name="Caminho 48"/><path stroke="rgba(195,0,10,0.2)" stroke-width="2" d="m43 3026 70-67" data-name="Caminho 49"/><path stroke="rgba(195,0,10,0.2)" stroke-width="2" d="m172 3185-52-227" data-name="Caminho 50"/><path stroke="rgba(195,0,10,0.2)" stroke-width="2" d="m285 3348-54-281" data-name="Caminho 51"/><path stroke="rgba(195,0,10,0.2)" stroke-width="2" d="m284 3370-175 149" data-name="Caminho 52"/><path stroke="rgba(195,0,10,0.2)" stroke-width="2" d="m89 3523-109-23" data-name="Caminho 53"/><path stroke="rgba(195,0,10,0.2)" stroke-width="2" d="m92 3529-209 91" data-name="Caminho 62"/><path stroke="rgba(195,0,10,0.2)" stroke-width="2" d="m312 3168-74-107" data-name="Caminho 70"/><path stroke="rgba(195,0,10,0.2)" stroke-width="2" d="m228 3048-99-93" data-name="Caminho 72"/><path stroke="rgba(195,0,10,0.2)" stroke-width="2" d="m-36 3508-86 104" data-name="Caminho 54"/><g stroke="rgba(195,0,10,0.2)" data-name="Elipse 26" transform="rotate(-60 2752 1715)"><circle cx="13.7" cy="13.7" r="13.7" stroke="none"/><circle cx="13.7" cy="13.7" r="13.2"/></g><g stroke="rgba(195,0,10,0.2)" data-name="Elipse 35" transform="rotate(-60 2964 1850)"><circle cx="13.7" cy="13.7" r="13.7" stroke="none"/><circle cx="13.7" cy="13.7" r="13.2"/></g><path stroke="rgba(249,183,0,0.1)" d="m-95 3475 80-78" data-name="Caminho 88"/><g stroke="rgba(255,215,0,0.3)" stroke-width="2" data-name="Elipse 19" transform="rotate(150 -477 1749)"><circle cx="11.9" cy="11.9" r="11.9" stroke="none"/><circle cx="11.9" cy="11.9" r="10.9"/></g></g></svg>