<svg class="graph-bottom-hero" xmlns="http://www.w3.org/2000/svg" width="669.6" height="510.7" viewBox="0 0 670 511"><defs><style>.a,.b,.c,.d,.f{fill:none}.a,.d{stroke:rgba(195,0,10,.2)}.b{stroke:rgba(249,183,0,.1)}.c{stroke:rgba(255,215,0,.3)}.c,.d{stroke-width:2px}.e{stroke:none}</style></defs><g transform="translate(-939 -448)"><g class="a" transform="rotate(165 506 409)"><circle cx="13.7" cy="13.7" r="13.7" class="e"/><circle cx="13.7" cy="13.7" r="13.2" class="f"/></g><g class="a" transform="rotate(165 577 489)"><circle cx="13.7" cy="13.7" r="13.7" class="e"/><circle cx="13.7" cy="13.7" r="13.2" class="f"/></g><g class="a" transform="rotate(165 619 361)"><circle cx="13.7" cy="13.7" r="13.7" class="e"/><circle cx="13.7" cy="13.7" r="13.2" class="f"/></g><g class="a" transform="rotate(165 607 430)"><circle cx="13.7" cy="13.7" r="13.7" class="e"/><circle cx="13.7" cy="13.7" r="13.2" class="f"/></g><g class="a" transform="rotate(165 471 470)"><circle cx="13.7" cy="13.7" r="13.7" class="e"/><circle cx="13.7" cy="13.7" r="13.2" class="f"/></g><g class="a" transform="rotate(165 529 538)"><circle cx="13.7" cy="13.7" r="13.7" class="e"/><circle cx="13.7" cy="13.7" r="13.2" class="f"/></g><path d="M1393 821l-137-16M1231 812l-60 89M1148 907l-106-104M1232 796l-139-126M1289 664l3-113M1440 652l-138 23M1276 689l-29 102M1296 691l103 118M1076 675l-38 108M1280 543l-186 113M1457 512l-150 24" class="b"/><g class="c" transform="rotate(180 665 423)"><circle cx="11.8" cy="11.8" r="11.8" class="e"/><circle cx="11.8" cy="11.8" r="10.8" class="f"/></g><g class="c" transform="rotate(180 523 377)"><circle cx="11.8" cy="11.8" r="11.8" class="e"/><circle cx="11.8" cy="11.8" r="10.8" class="f"/></g><g class="c" transform="rotate(180 481 463)"><circle cx="11.8" cy="11.8" r="11.8" class="e"/><circle cx="11.8" cy="11.8" r="10.8" class="f"/></g><g class="c" transform="rotate(180 603 479)"><circle cx="11.8" cy="11.8" r="11.8" class="e"/><circle cx="11.8" cy="11.8" r="10.8" class="f"/></g><g class="c" transform="rotate(180 622 334)"><circle cx="11.8" cy="11.8" r="11.8" class="e"/><circle cx="11.8" cy="11.8" r="10.8" class="f"/></g><g class="c" transform="rotate(180 554 434)"><circle cx="11.8" cy="11.8" r="11.8" class="e"/><circle cx="11.8" cy="11.8" r="10.8" class="f"/></g><path d="M1426 892l-98-52M1313 844l-112 95M1307 835l-201 19M1313 825l-75-160M1326 827l89-120M1377 502l-138 146M1411 697l-366 43M1222 659l-185 73M1035 754l54 94M1043 748l265 81M1431 904l-225 41M1186 939l-82-75M1086 864l-125 46M1028 749l-76 156M1186 945l-225-25" class="d"/><g class="a" transform="rotate(165 657 507)"><circle cx="13.7" cy="13.7" r="13.7" class="e"/><circle cx="13.7" cy="13.7" r="13.2" class="f"/></g><g class="a" transform="rotate(165 692 427)"><circle cx="13.7" cy="13.7" r="13.7" class="e"/><circle cx="13.7" cy="13.7" r="13.2" class="f"/></g><g class="a" transform="rotate(165 710 357)"><circle cx="13.7" cy="13.7" r="13.7" class="e"/><circle cx="13.7" cy="13.7" r="13.2" class="f"/></g><g class="a" transform="rotate(165 761 435)"><circle cx="13.7" cy="13.7" r="13.7" class="e"/><circle cx="13.7" cy="13.7" r="13.2" class="f"/></g><path d="M1453 666l-40 141M1474 522l-15 118M1588 636l-103-123M1578 652l-111-2" class="b"/><g class="c" transform="rotate(180 717 356)"><circle cx="11.8" cy="11.8" r="11.8" class="e"/><circle cx="11.8" cy="11.8" r="10.8" class="f"/></g><g class="c" transform="rotate(180 698 253)"><circle cx="11.8" cy="11.8" r="11.8" class="e"/><circle cx="11.8" cy="11.8" r="10.8" class="f"/></g><g class="c" transform="rotate(180 725 455)"><circle cx="11.8" cy="11.8" r="11.8" class="e"/><circle cx="11.8" cy="11.8" r="10.8" class="f"/></g><g class="c" transform="rotate(180 755 236)"><circle cx="11.8" cy="11.8" r="11.8" class="e"/><circle cx="11.8" cy="11.8" r="10.8" class="f"/></g><g class="c" transform="rotate(180 774 310)"><circle cx="11.8" cy="11.8" r="11.8" class="e"/><circle cx="11.8" cy="11.8" r="10.8" class="f"/></g><g class="c" transform="rotate(180 780 383)"><circle cx="11.8" cy="11.8" r="11.8" class="e"/><circle cx="11.8" cy="11.8" r="10.8" class="f"/></g><g class="c" transform="rotate(180 783 469)"><circle cx="11.8" cy="11.8" r="11.8" class="e"/><circle cx="11.8" cy="11.8" r="10.8" class="f"/></g><path d="M1420 690l-34-185M1426 711l12 176M1448 901l97 21M1537 750l-103-51M1448 894l93-132M1394 499l131 104M1431 692l94-81M1394 488l93-23M1426 690l67-222M1442 886l93-269" class="d"/></g></svg>
