<svg class="graph-upper-hero" xmlns="http://www.w3.org/2000/svg" width="889" height="469.3" viewBox="0 0 889 469"><defs><style>.a,.b,.c,.d,.e,.f,.h{fill:none}.a,.f{stroke:rgba(195,0,10,.2)}.b{stroke:rgba(249,183,0,.1)}.c{stroke:rgba(255,215,0,.3)}.c,.f{stroke-width:2px}.d{stroke:gold}.e{stroke:rgba(195,0,10,.5)}.g{stroke:none}</style></defs><g transform="translate(132 116)"><g class="a" transform="rotate(-30 200 -605)"><circle cx="13.7" cy="13.7" r="13.7" class="g"/><circle cx="13.7" cy="13.7" r="13.2" class="h"/></g><g class="a" transform="rotate(-30 440 -198)"><circle cx="13.7" cy="13.7" r="13.7" class="g"/><circle cx="13.7" cy="13.7" r="13.2" class="h"/></g><g class="a" transform="rotate(-30 224 112)"><circle cx="13.7" cy="13.7" r="13.7" class="g"/><circle cx="13.7" cy="13.7" r="13.2" class="h"/></g><g class="a" transform="rotate(-30 170 -210)"><circle cx="13.7" cy="13.7" r="13.7" class="g"/><circle cx="13.7" cy="13.7" r="13.2" class="h"/></g><g class="a" transform="rotate(-30 499 144)"><circle cx="13.7" cy="13.7" r="13.7" class="g"/><circle cx="13.7" cy="13.7" r="13.2" class="h"/></g><path d="M170-65l166 85M148 77l27 110M6 128l127-59M155 49l1-105M135 53L5-34M-10 118l1-147M352 11l8-114M188 192L339 34M25 267l140-62M7 262l-17-117" class="b"/><g class="c" transform="translate(462 45)"><circle cx="11.9" cy="11.9" r="11.9" class="g"/><circle cx="11.9" cy="11.9" r="10.9" class="h"/></g><g class="c" transform="translate(71 87)"><circle cx="11.9" cy="11.9" r="11.9" class="g"/><circle cx="11.9" cy="11.9" r="10.9" class="h"/></g><g class="c" transform="translate(109 295)"><circle cx="11.9" cy="11.9" r="11.9" class="g"/><circle cx="11.9" cy="11.9" r="10.9" class="h"/></g><g class="c" transform="translate(263 132)"><circle cx="11.9" cy="11.9" r="11.9" class="g"/><circle cx="11.9" cy="11.9" r="10.9" class="h"/></g><g class="c" transform="translate(622 -4)"><circle cx="11.9" cy="11.9" r="11.9" class="g"/><circle cx="11.9" cy="11.9" r="10.9" class="h"/></g><g class="c" transform="translate(-4 329)"><circle cx="11.9" cy="11.9" r="11.9" class="g"/><circle cx="11.9" cy="11.9" r="10.9" class="h"/></g><g class="d" transform="translate(700 37)"><circle cx="11.1" cy="11.1" r="11.1" class="g"/><circle cx="11.1" cy="11.1" r="10.6" class="h"/></g><g class="d" transform="translate(499 84)"><circle cx="11.1" cy="11.1" r="11.1" class="g"/><circle cx="11.1" cy="11.1" r="10.6" class="h"/></g><path d="M517 87l78-126M606-39l96 81M715 38l42-123M521 95l181-42M505 84L481-60" class="e"/><g class="d" transform="translate(377 38)"><circle cx="8.1" cy="8.1" r="8.1" class="g"/><circle cx="8.1" cy="8.1" r="7.6" class="h"/></g><g class="d" transform="translate(230 72)"><circle cx="8.1" cy="8.1" r="8.1" class="g"/><circle cx="8.1" cy="8.1" r="7.6" class="h"/></g><path d="M244 75l57-92M309-17l69 59M388 39l30-89M247 80l131-30M235 72L217-33" class="e"/><g class="d" transform="translate(122 -9)"><circle cx="15.8" cy="15.8" r="15.8" class="g"/><circle cx="15.8" cy="15.8" r="15.3" class="h"/></g><path d="M-131 73l255-60" class="e"/><path d="M193-27l76 161M180-28L91 92M86 110l33 186M129 299l139-148M95 102l368-43M285 140l186-73M79 88L67-89M473 45l-54-94M465 51L198-31M-32 49l104 51M57-96L-36 37M111 301L-20 197M75 107l-95 82M111 312l-93 23M80 110L12 333M64-88l-94 270M643 1l60-74M485 54l140-40M480 50l77-157M695-76L484 50" class="f"/><g class="d" transform="translate(297 -32)"><circle cx="8.1" cy="8.1" r="8.1" class="g"/><circle cx="8.1" cy="8.1" r="7.6" class="h"/></g></g></svg>
