<svg id="Camada_1" data-name="Camada 1" xmlns="http://www.w3.org/2000/svg" viewBox="0 0 1080 249.38"><defs><style>.cls-1{fill:#fff;}.cls-2{fill:#f7b600;}</style></defs><path class="cls-1" d="M631.91,75.47a4.92,4.92,0,0,0-4.63,4l-18.76,97.17a3.19,3.19,0,0,0,3.13,4h22.26a4.91,4.91,0,0,0,4.62-4l18.76-97.17a3.18,3.18,0,0,0-3.12-4Z"/><path class="cls-1" d="M378.56,154.25c-2.25,2-9.25,2.63-9.25,2.63-2.13.12-5.63.37-7.76.37h-6.62a3.18,3.18,0,0,1-3.13-4l9.75-50.39a4.91,4.91,0,0,1,4.51-4h7.37a51.56,51.56,0,0,1,7.63.62s6.88.88,7.88,2.13a5.72,5.72,0,0,1,1.5,3.87,59,59,0,0,1-1,8l-5.5,28.63a78.27,78.27,0,0,1-2,7.63,11.68,11.68,0,0,1-3.38,4.5Zm42.52-61A18.12,18.12,0,0,0,415.2,84a32.16,32.16,0,0,0-11.88-6.13c-5-1.63-15-2.13-15-2.13-2.12-.12-5.62-.25-7.75-.25H340.67a4.92,4.92,0,0,0-4.63,4l-18.75,97.17a3.18,3.18,0,0,0,3.12,4h40.52c2.12,0,5.63-.13,7.75-.25,0,0,10.26-.5,15.76-2a48.26,48.26,0,0,0,14-6.13,31.36,31.36,0,0,0,9.13-9,28.7,28.7,0,0,0,3.13-6.51c.62-2.12,1.5-5.62,1.87-7.75l8-41.26c.37-2.13.87-5.76,1.12-7.88a22.9,22.9,0,0,0-.62-6.63Z"/><path class="cls-1" d="M499.73,138a4.92,4.92,0,0,0,4.63-4l3-15.51a3.14,3.14,0,0,0-3.13-3.88h-37a3.06,3.06,0,0,1-3-4l1.5-7.75a5,5,0,0,1,4.63-4h40.76a4.78,4.78,0,0,0,4.5-3.88l3-15.51a3.06,3.06,0,0,0-3-4H444.84a4.91,4.91,0,0,0-4.63,4l-18.76,97.17a3.19,3.19,0,0,0,3.13,4h70.77a5,5,0,0,0,4.63-4l2.88-15.51a3,3,0,0,0-3-3.88H459.09a3.24,3.24,0,0,1-3.13-4l2.13-11.38a5,5,0,0,1,4.63-3.87Z"/><path class="cls-1" d="M611.9,77.47c-.38,0-2.5-.37-4.63-.75,0,0-9-1.5-15.13-2s-11.75-.75-17-.75A111.26,111.26,0,0,0,554,75.6a41.5,41.5,0,0,0-14.13,5.25,27.21,27.21,0,0,0-8.75,9.38,51.7,51.7,0,0,0-4.38,13.5,63.25,63.25,0,0,0-1.5,13.88,15.92,15.92,0,0,0,3.38,9.88c2,2.38,5.25,4.5,9.63,6A115.62,115.62,0,0,0,555,137.87c4.63.88,8.38,1.63,10.88,2.38a14.64,14.64,0,0,1,5,2.12,2.86,2.86,0,0,1,1.13,2.25,34.9,34.9,0,0,1-.63,5.38,18.54,18.54,0,0,1-1.62,4.88,6.63,6.63,0,0,1-2.5,2.75,11.16,11.16,0,0,1-4.88,1.63,73.59,73.59,0,0,1-8.25.37,94.14,94.14,0,0,1-17.38-1.38c-5.38-.87-12.26-2.5-12.26-2.5-2-.5-4-1-4.25-1.12s-1.38,1.5-2.25,3.5l-5.88,13c-.87,2.13-1.25,3.88-.87,4s2.37.87,4.37,1.62a114.55,114.55,0,0,0,13.76,3.63A124.75,124.75,0,0,0,550,182.14a114.28,114.28,0,0,0,22.63-1.88,42.21,42.21,0,0,0,15.14-5.87,26.26,26.26,0,0,0,8.87-10,53.22,53.22,0,0,0,4.51-13.63A85.47,85.47,0,0,0,602.9,138a13.41,13.41,0,0,0-2.88-9.63c-2-2.5-5.13-4.63-9.63-6.38-4.13-1.75-10.38-3.38-18.26-5.13-4.62-.87-8-1.62-10.5-2.25a13,13,0,0,1-4.88-2.12,2.35,2.35,0,0,1-1-2.13,29.26,29.26,0,0,1,.75-5.5,12.23,12.23,0,0,1,1.38-4.13,5.82,5.82,0,0,1,2.25-2.37,11.34,11.34,0,0,1,4.25-1.25,57.74,57.74,0,0,1,7.25-.38,150.77,150.77,0,0,1,15.38.75c4.76.38,13.38,1.63,13.38,1.63,2.13.25,4.13.62,4.38.62s1.25-1.62,1.88-3.62l4.87-14.63c.63-2.13.88-3.88.38-4Z"/><path class="cls-1" d="M723.32,78.47c1.37-1.62.75-3-1.38-3H695.31a9.59,9.59,0,0,0-6.38,3l-38,45.27a6.64,6.64,0,0,0-.87,6.63L672.42,177a6.59,6.59,0,0,0,5.5,3.63h26c2.13,0,3.13-1.63,2.13-3.63L682.8,130.74a6.44,6.44,0,0,1,.75-6.5Z"/><path class="cls-2" d="M821.23,79.47a3.19,3.19,0,0,0-3.13-4H731.32a4.92,4.92,0,0,0-4.63,4l-3,15.51a3.14,3.14,0,0,0,3.13,3.88h24.51a3.23,3.23,0,0,1,3.12,4L740.2,176.64a3.18,3.18,0,0,0,3.12,4h22.26a4.92,4.92,0,0,0,4.63-4l14.26-73.78a5,5,0,0,1,4.62-4H813.6A4.93,4.93,0,0,0,818.23,95Z"/><path class="cls-2" d="M856.49,158.75c-6.5,0-11-1-13.25-3.12a5.69,5.69,0,0,1-2.25-4,41.87,41.87,0,0,1,.62-7.88l6-30.76a41,41,0,0,1,2.26-7.63,11.1,11.1,0,0,1,4.25-4.75c3.25-2.13,8.25-3.25,14.75-3.25s10.88,1,13.26,3.12a5.69,5.69,0,0,1,2.25,4,42,42,0,0,1-.75,7.88l-5.88,30.76a52.64,52.64,0,0,1-2.25,7.63,11.51,11.51,0,0,1-4.25,4.75c-3.25,2.13-8.25,3.25-14.76,3.25ZM914.39,95a22.8,22.8,0,0,0-6.63-10.75c-3.12-3.13-7.75-5.63-13.38-7.51S881.38,74,872.75,74a80.18,80.18,0,0,0-22.38,2.75,50.18,50.18,0,0,0-16.26,7.38,37.12,37.12,0,0,0-10.38,10.38,35.51,35.51,0,0,0-3.75,8.13c-.63,2.12-1.5,5.63-1.88,7.75l-6.75,34.76c-.37,2.13-.87,5.76-1.12,8a29.5,29.5,0,0,0,.75,8,22.53,22.53,0,0,0,6.5,10.75c3.25,3.13,7.75,5.63,13.63,7.51,5.63,1.87,12.88,2.75,21.38,2.75s16.26-.88,22.51-2.75a52,52,0,0,0,16.13-7.25,39.3,39.3,0,0,0,10.38-10.51,35.51,35.51,0,0,0,3.75-8.13c.63-2.12,1.5-5.62,2-7.75L913.89,111a58,58,0,0,0,1.13-7.88,27.77,27.77,0,0,0-.63-8.13Z"/><path class="cls-2" d="M980.92,126.12a18.71,18.71,0,0,1-3.26.37c-2.12.13-5.62.25-7.75.25h-11a3.19,3.19,0,0,1-3.13-4l3.88-19.88a5,5,0,0,1,4.62-4h11.63c1.38,0,3.51.12,5.26.25a28.62,28.62,0,0,1,11.75,2.75c6.63,3.37,8.13,21-12,24.26Zm39.76-35.39a18.31,18.31,0,0,0-5.13-7.63c-2.87-2.5-6.87-4.38-11.88-5.75S989,75.72,989,75.72c-2.12-.12-5.62-.25-7.75-.25H938.77a4.91,4.91,0,0,0-4.62,4l-18.76,97.17a3.19,3.19,0,0,0,3.13,4h22.26a4.91,4.91,0,0,0,4.62-4l4.5-23a4.92,4.92,0,0,1,4.63-4h11.63s47.52,6.37,55.27-31.89c2.38-11.63,1.5-20.88-.75-27Z"/><path class="cls-1" d="M154.35,53.34a19.94,19.94,0,0,0-6.5,10.5l-5,21.51C141.09,93.35,146,100,154,100h21a18,18,0,0,0,11.13-4.25,18.84,18.84,0,0,0,6.5-10.38l5-21.51c1.75-8.12-3.13-14.75-11.13-14.75h-21a18,18,0,0,0-11.13,4.25Z"/><path class="cls-2" d="M262.39,58.72H243.63a15.7,15.7,0,0,0-9.88,3.87,17.3,17.3,0,0,0-5.87,9.13l-2.63,11.63h0a46.17,46.17,0,0,1-15.63,24c-14.26,11.75-27.76,10.25-28.64,10.25H147.47c-.75,0-15.13,1.5-24-10.25-5.5-7.5-5.62-15.88-5-21.26l5.75-25.38c2.25-9.76-3.62-17.63-13.13-17.63H86a21.26,21.26,0,0,0-13.26,5.12,23,23,0,0,0-7.88,12.51L58.94,86.35C56.69,96.11,62.56,104,72.07,104H95.83c5.12.38,13.5,2.25,19.38,10.26,8.88,11.75,4.13,26,4,26.88l-7.88,34.27c-1.37,6.37-.37,12.25,3,16.63s8.51,6.88,14.63,6.88h33.52A27.6,27.6,0,0,0,180.23,192a30.26,30.26,0,0,0,10.51-16.63l7.88-34.27c.12-.87,1.87-15.13,16.13-26.88,9.75-8.13,19.13-9.88,24.38-10.26H252a15.66,15.66,0,0,0,9.88-3.87,16.88,16.88,0,0,0,5.88-9.26l4.37-19.13c1.63-7.13-2.75-13-9.75-13Z"/></svg>