<svg xmlns="http://www.w3.org/2000/svg" width="452.466" height="1076.956" viewBox="0 0 452.466 1076.956"><defs><style>.a,.b,.c,.d,.e,.g{fill:none;}.a,.d{stroke:rgba(195,0,10,0.2);}.b{stroke:rgba(249,183,0,0.1);}.c{stroke:rgba(255,215,0,0.3);}.c,.d{stroke-width:2px;}.e{stroke:gold;}.f{stroke:none;}</style></defs><g transform="translate(-1112.627 -1876.164)"><g class="a" transform="translate(1244.917 2510.659) rotate(90)"><circle class="f" cx="15.941" cy="15.941" r="15.941"/><circle class="g" cx="15.941" cy="15.941" r="15.441"/></g><g class="a" transform="translate(1340.237 2091.327) rotate(90)"><circle class="f" cx="15.941" cy="15.941" r="15.941"/><circle class="g" cx="15.941" cy="15.941" r="15.441"/></g><g class="a" transform="translate(1322.144 2285.492) rotate(90)"><circle class="f" cx="15.941" cy="15.941" r="15.941"/><circle class="g" cx="15.941" cy="15.941" r="15.441"/></g><g class="a" transform="translate(1374.221 2609.078) rotate(90)"><circle class="f" cx="15.941" cy="15.941" r="15.941"/><circle class="g" cx="15.941" cy="15.941" r="15.441"/></g><g class="a" transform="translate(1388.95 1876.164) rotate(90)"><circle class="f" cx="15.941" cy="15.941" r="15.941"/><circle class="g" cx="15.941" cy="15.941" r="15.441"/></g><path class="b" d="M240.451,3307.587,358.393,3490.4" transform="translate(4727.801 2160.035) rotate(90)"/><path class="b" d="M211.213,3369l-37.348,125.991" transform="translate(4658.679 2085.09) rotate(90)"/><path class="b" d="M110,3354l162.282,15.36" transform="translate(4675.563 2013.209) rotate(90)"/><path class="b" d="M202,3413.4l63.054-105.349" transform="translate(4727.279 2116.757) rotate(90)"/><path class="b" d="M233.592,3440.589l-79.611-163.52" transform="translate(4762.15 2062.711) rotate(90)"/><path class="b" d="M104.966,3423.02l87.474-147.339" transform="translate(4763.711 2007.543) rotate(90)"/><path class="b" d="M305.65,3451.885l74.7-110.08" transform="translate(4689.287 2233.418) rotate(90)"/><path class="b" d="M179,3472.213l243.643-71.219" transform="translate(4622.67 2090.87) rotate(90)"/><path class="b" d="M73.5,3485.645,125.541,3357.9" transform="translate(4671.174 1972.128) rotate(90)"/><path class="b" d="M29.5,3341.805l79.123,168.368" transform="translate(4689.287 1922.605) rotate(90)"/><path class="b" d="M37,3334.5l124.512,35.681" transform="translate(4697.51 1931.046) rotate(90)"/><g class="c" transform="matrix(-0.259, 0.966, -0.966, -0.259, 1382.997, 2781.676)"><circle class="f" cx="11.86" cy="11.86" r="11.86"/><circle class="g" cx="11.86" cy="11.86" r="10.86"/></g><g class="c" transform="matrix(-0.259, 0.966, -0.966, -0.259, 1308.746, 2521.126)"><circle class="f" cx="11.86" cy="11.86" r="11.86"/><circle class="g" cx="11.86" cy="11.86" r="10.86"/></g><g class="c" transform="matrix(-0.259, 0.966, -0.966, -0.259, 1368.596, 2132.798)"><circle class="f" cx="11.86" cy="11.86" r="11.86"/><circle class="g" cx="11.86" cy="11.86" r="10.86"/></g><g class="c" transform="matrix(-0.259, 0.966, -0.966, -0.259, 1276.306, 2306.158)"><circle class="f" cx="11.86" cy="11.86" r="11.86"/><circle class="g" cx="11.86" cy="11.86" r="10.86"/></g><g class="c" transform="matrix(-0.259, 0.966, -0.966, -0.259, 1314.76, 2688.085)"><circle class="f" cx="11.86" cy="11.86" r="11.86"/><circle class="g" cx="11.86" cy="11.86" r="10.86"/></g><g class="c" transform="matrix(-0.259, 0.966, -0.966, -0.259, 1308.354, 1997.148)"><circle class="f" cx="11.86" cy="11.86" r="11.86"/><circle class="g" cx="11.86" cy="11.86" r="10.86"/></g><path class="d" d="M2770.108-129l75.14,161.253" transform="matrix(-0.259, 0.966, -0.966, -0.259, 2039.728, -428.966)"/><path class="d" d="M2794.033-129,2705.358-8.949" transform="matrix(-0.259, 0.966, -0.966, -0.259, 2050.94, -464.93)"/><path class="d" d="M2701.914-42.655l33.726,185.822" transform="matrix(-0.259, 0.966, -0.966, -0.259, 2001.507, -480.248)"/><path class="d" d="M2729.222,131.158,2868.555-16.309" transform="matrix(-0.259, 0.966, -0.966, -0.259, 1982.604, -468.878)"/><path class="d" d="M2707.895-31.179l367.942-43.844" transform="matrix(-0.259, 0.966, -0.966, -0.259, 2018.782, -472.02)"/><path class="d" d="M2828.04,3.486l185.69-73.073" transform="matrix(-0.259, 0.966, -0.966, -0.259, 1997.652, -405.375)"/><path class="d" d="M2967.253-48.971l-54.781-94.3" transform="matrix(-0.259, 0.966, -0.966, -0.259, 2026.325, -346.879)"/><path class="d" d="M3039.774-49.471l-266.864-82.172" transform="matrix(-0.259, 0.966, -0.966, -0.259, 2040.793, -426.993)"/><path class="d" d="M-32.5,262,71.418,312.718" transform="matrix(-0.259, 0.966, -0.966, -0.259, 1677.09, 2141.875)"/><path class="d" d="M106.661,459.6-24.954,355.5" transform="matrix(-0.259, 0.966, -0.966, -0.259, 1623.449, 2132.043)"/><path class="d" d="M70.1,301.239l-95.056,82.044" transform="matrix(-0.259, 0.966, -0.966, -0.259, 1657.756, 2141.235)"/><path class="d" d="M63.066,301.239-4.839,524.383" transform="matrix(-0.259, 0.966, -0.966, -0.259, 1652.347, 2151.892)"/><path class="d" d="M62.549,175.239-31.478,445.681" transform="matrix(-0.259, 0.966, -0.966, -0.259, 1725.652, 2155.502)"/><path class="d" d="M3055.286-84.075l59.934-74" transform="matrix(-0.259, 0.966, -0.966, -0.259, 2013.43, -265.503)"/><path class="d" d="M2954.293-63.516l140.476-39.423" transform="matrix(-0.259, 0.966, -0.966, -0.259, 1997.385, -329.464)"/><path class="d" d="M2951.77-22.824l77.32-156.675" transform="matrix(-0.259, 0.966, -0.966, -0.259, 2041.018, -320.345)"/><path class="d" d="M3073.825-74.875l-70.908-104.946" transform="matrix(-0.259, 0.966, -0.966, -0.259, 2033.239, -290.594)"/><path class="d" d="M3165.259-159.877,2953.7-34.232" transform="matrix(-0.259, 0.966, -0.966, -0.259, 2029.445, -321.23)"/><path class="d" d="M3100.954-146.96l117.856-45.49" transform="matrix(-0.259, 0.966, -0.966, -0.259, 2031.81, -231.976)"/><g class="e" transform="matrix(-0.259, 0.966, -0.966, -0.259, 1496.802, 2931.581)"><circle class="f" cx="11.149" cy="11.149" r="11.149"/><circle class="g" cx="11.149" cy="11.149" r="10.649"/></g><g class="e" transform="matrix(-0.259, 0.966, -0.966, -0.259, 1503.512, 2725.623)"><circle class="f" cx="11.149" cy="11.149" r="11.149"/><circle class="g" cx="11.149" cy="11.149" r="10.649"/></g><g class="a" transform="translate(1456.967 2314.021) rotate(90)"><circle class="f" cx="15.941" cy="15.941" r="15.941"/><circle class="g" cx="15.941" cy="15.941" r="15.441"/></g><path class="b" d="M159,3271.5l148.554,59.013" transform="translate(4768.418 2068.36) rotate(90)"/><g class="c" transform="matrix(-0.259, 0.966, -0.966, -0.259, 1472.943, 2268.807)"><circle class="f" cx="11.86" cy="11.86" r="11.86"/><circle class="g" cx="11.86" cy="11.86" r="10.86"/></g><g class="c" transform="matrix(-0.259, 0.966, -0.966, -0.259, 1455.072, 2647.1)"><circle class="f" cx="11.86" cy="11.86" r="11.86"/><circle class="g" cx="11.86" cy="11.86" r="10.86"/></g><g class="c" transform="matrix(-0.259, 0.966, -0.966, -0.259, 1436.211, 2491.433)"><circle class="f" cx="11.86" cy="11.86" r="11.86"/><circle class="g" cx="11.86" cy="11.86" r="10.86"/></g><g class="c" transform="matrix(-0.259, 0.966, -0.966, -0.259, 1403.986, 2929.404)"><circle class="f" cx="11.86" cy="11.86" r="11.86"/><circle class="g" cx="11.86" cy="11.86" r="10.86"/></g><g class="c" transform="matrix(-0.259, 0.966, -0.966, -0.259, 1454.239, 2023.959)"><circle class="f" cx="11.86" cy="11.86" r="11.86"/><circle class="g" cx="11.86" cy="11.86" r="10.86"/></g><path class="d" d="M2774-128.32,2976.1-147.2" transform="matrix(-0.259, 0.966, -0.966, -0.259, 2049.365, -424.041)"/><path class="d" d="M2914.356-136.876l126.307-46.29" transform="matrix(-0.259, 0.966, -0.966, -0.259, 2048.442, -339.818)"/><path class="d" d="M3008.03-184.14l125.645,33.281" transform="matrix(-0.259, 0.966, -0.966, -0.259, 2034.896, -287.073)"/><path class="d" d="M3008.03-179.4l262.693-16.852" transform="matrix(-0.259, 0.966, -0.966, -0.259, 2047.181, -283.781)"/><path class="d" d="M3252.785-195.151l-210.277-28.178" transform="matrix(-0.259, 0.966, -0.966, -0.259, 2051.713, -261.817)"/><g class="a" transform="translate(1165.439 2238.217) rotate(90)"><circle class="f" cx="15.941" cy="15.941" r="15.941"/><circle class="g" cx="15.941" cy="15.941" r="15.441"/></g><g class="a" transform="translate(1186.426 2029.687) rotate(90)"><circle class="f" cx="15.941" cy="15.941" r="15.941"/><circle class="g" cx="15.941" cy="15.941" r="15.441"/></g><path class="b" d="M81,3425.5l176.648,18.583" transform="translate(4595.088 1980.569) rotate(90)"/><g class="c" transform="matrix(-0.259, 0.966, -0.966, -0.259, 1158.679, 2115.841)"><circle class="f" cx="11.86" cy="11.86" r="11.86"/><circle class="g" cx="11.86" cy="11.86" r="10.86"/></g><g class="c" transform="matrix(-0.259, 0.966, -0.966, -0.259, 1154.543, 1996.862)"><circle class="f" cx="11.86" cy="11.86" r="11.86"/><circle class="g" cx="11.86" cy="11.86" r="10.86"/></g><path class="d" d="M92.756,429.983l-93.79,23.195" transform="matrix(-0.259, 0.966, -0.966, -0.259, 1580.504, 2134.932)"/></g></svg>