<svg xmlns="http://www.w3.org/2000/svg" width="561.312" height="739.464" viewBox="0 0 561.312 739.464">
  <g id="Fundo_7" data-name="Fundo 7" transform="translate(228.061 -4468.987)">
    <g id="Elipse_15" data-name="Elipse 15" transform="matrix(-0.259, -0.966, 0.966, -0.259, 103.73, 5058.179)" fill="none" stroke="rgba(255,215,0,0.3)" stroke-width="2">
      <circle cx="11.784" cy="11.784" r="11.784" stroke="none"/>
      <circle cx="11.784" cy="11.784" r="10.784" fill="none"/>
    </g>
    <g id="Elipse_16" data-name="Elipse 16" transform="matrix(-0.259, -0.966, 0.966, -0.259, 292.789, 4968.481)" fill="none" stroke="rgba(255,215,0,0.3)" stroke-width="2">
      <circle cx="11.784" cy="11.784" r="11.784" stroke="none"/>
      <circle cx="11.784" cy="11.784" r="10.784" fill="none"/>
    </g>
    <g id="Elipse_17" data-name="Elipse 17" transform="matrix(-0.259, -0.966, 0.966, -0.259, 97.02, 4863.15)" fill="none" stroke="rgba(255,215,0,0.3)" stroke-width="2">
      <circle cx="11.784" cy="11.784" r="11.784" stroke="none"/>
      <circle cx="11.784" cy="11.784" r="10.784" fill="none"/>
    </g>
    <g id="Elipse_23" data-name="Elipse 23" transform="matrix(-0.259, -0.966, 0.966, -0.259, 222.961, 5144.978)" fill="none" stroke="rgba(255,215,0,0.3)" stroke-width="2">
      <circle cx="11.784" cy="11.784" r="11.784" stroke="none"/>
      <circle cx="11.784" cy="11.784" r="10.784" fill="none"/>
    </g>
    <path id="Caminho_35" data-name="Caminho 35" d="M0,0,74.661,160.225" transform="matrix(-0.259, -0.966, 0.966, -0.259, -37.256, 4970.528)" fill="none" stroke="rgba(195,0,10,0.2)" stroke-width="2"/>
    <path id="Caminho_36" data-name="Caminho 36" d="M88.11,0,0,119.281" transform="matrix(-0.259, -0.966, 0.966, -0.259, -12.386, 5069.191)" fill="none" stroke="rgba(195,0,10,0.2)" stroke-width="2"/>
    <path id="Caminho_37" data-name="Caminho 37" d="M0,0,33.511,184.638" transform="matrix(-0.259, -0.966, 0.966, -0.259, 121.515, 5038.915)" fill="none" stroke="rgba(195,0,10,0.2)" stroke-width="2"/>
    <path id="Caminho_38" data-name="Caminho 38" d="M0,146.528,138.445,0" transform="matrix(-0.259, -0.966, 0.966, -0.259, 150.395, 4986.755)" fill="none" stroke="rgba(195,0,10,0.2)" stroke-width="2"/>
    <path id="Caminho_39" data-name="Caminho 39" d="M0,43.564,365.6,0" transform="matrix(-0.259, -0.966, 0.966, -0.259, 69.957, 5043)" fill="none" stroke="rgba(195,0,10,0.2)" stroke-width="2"/>
    <path id="Caminho_40" data-name="Caminho 40" d="M0,72.607,184.506,0" transform="matrix(-0.259, -0.966, 0.966, -0.259, 29.35, 4858.444)" fill="none" stroke="rgba(195,0,10,0.2)" stroke-width="2"/>
    <path id="Caminho_41" data-name="Caminho 41" d="M12.195,176.4,0,0" transform="matrix(-0.259, -0.966, 0.966, -0.259, -64.826, 5107.836)" fill="none" stroke="rgba(195,0,10,0.2)" stroke-width="2"/>
    <path id="Caminho_43" data-name="Caminho 43" d="M265.163,81.648,0,0" transform="matrix(-0.259, -0.966, 0.966, -0.259, -42.414, 4967.351)" fill="none" stroke="rgba(195,0,10,0.2)" stroke-width="2"/>
    <path id="Caminho_47" data-name="Caminho 47" d="M130.777,103.436,0,0" transform="matrix(-0.259, -0.966, 0.966, -0.259, 232.422, 5117.969)" fill="none" stroke="rgba(195,0,10,0.2)" stroke-width="2"/>
    <path id="Caminho_48" data-name="Caminho 48" d="M94.45,0,0,81.521" transform="matrix(-0.259, -0.966, 0.966, -0.259, 146.253, 5141.058)" fill="none" stroke="rgba(195,0,10,0.2)" stroke-width="2"/>
    <path id="Caminho_51" data-name="Caminho 51" d="M93.428,0,0,268.718" transform="matrix(-0.259, -0.966, 0.966, -0.259, -38.514, 5201.178)" fill="none" stroke="rgba(195,0,10,0.2)" stroke-width="2"/>
    <path id="Caminho_71" data-name="Caminho 71" d="M0,291.589,490.07,0" transform="matrix(-0.259, -0.966, 0.966, -0.259, 18.208, 5018.543)" fill="none" stroke="rgba(195,0,10,0.2)" stroke-width="2"/>
    <g id="Elipse_27" data-name="Elipse 27" transform="translate(216.105 4756.321) rotate(-60)" fill="none" stroke="rgba(195,0,10,0.2)" stroke-width="1">
      <circle cx="13.927" cy="13.927" r="13.927" stroke="none"/>
      <circle cx="13.927" cy="13.927" r="13.427" fill="none"/>
    </g>
    <g id="Elipse_28" data-name="Elipse 28" transform="translate(1.367 4771.719) rotate(-60)" fill="none" stroke="rgba(195,0,10,0.2)" stroke-width="1">
      <circle cx="13.927" cy="13.927" r="13.927" stroke="none"/>
      <circle cx="13.927" cy="13.927" r="13.427" fill="none"/>
    </g>
    <g id="Elipse_29" data-name="Elipse 29" transform="translate(154.226 4997.204) rotate(-60)" fill="none" stroke="rgba(195,0,10,0.2)" stroke-width="1">
      <circle cx="13.927" cy="13.927" r="13.927" stroke="none"/>
      <circle cx="13.927" cy="13.927" r="13.427" fill="none"/>
    </g>
    <g id="Elipse_31" data-name="Elipse 31" transform="translate(58.182 4892.436) rotate(-60)" fill="none" stroke="rgba(195,0,10,0.2)" stroke-width="1">
      <circle cx="13.927" cy="13.927" r="13.927" stroke="none"/>
      <circle cx="13.927" cy="13.927" r="13.427" fill="none"/>
    </g>
    <g id="Elipse_32" data-name="Elipse 32" transform="translate(160.716 4625.706) rotate(-60)" fill="none" stroke="rgba(195,0,10,0.2)" stroke-width="1">
      <circle cx="13.927" cy="13.927" r="13.927" stroke="none"/>
      <circle cx="13.927" cy="13.927" r="13.427" fill="none"/>
    </g>
    <g id="Elipse_33" data-name="Elipse 33" transform="translate(-18.758 4635.732) rotate(-60)" fill="none" stroke="rgba(195,0,10,0.2)" stroke-width="1">
      <circle cx="13.927" cy="13.927" r="13.927" stroke="none"/>
      <circle cx="13.927" cy="13.927" r="13.427" fill="none"/>
    </g>
    <g id="Elipse_34" data-name="Elipse 34" transform="translate(48.759 5146.451) rotate(-60)" fill="none" stroke="rgba(195,0,10,0.2)" stroke-width="1">
      <circle cx="13.927" cy="13.927" r="13.927" stroke="none"/>
      <circle cx="13.927" cy="13.927" r="13.427" fill="none"/>
    </g>
    <path id="Caminho_74" data-name="Caminho 74" d="M159,3271.5l129.786,51.557" transform="translate(-3013.193 3362.813) rotate(-60)" fill="none" stroke="rgba(249,183,0,0.1)" stroke-width="1"/>
    <path id="Caminho_75" data-name="Caminho 75" d="M243,3332.551l82.852-72.129" transform="translate(-2985.422 3295.724) rotate(-60)" fill="none" stroke="rgba(249,183,0,0.1)" stroke-width="1"/>
    <path id="Caminho_76" data-name="Caminho 76" d="M300.5,3260.422l76.541,130.519" transform="translate(-2960.784 3253.048) rotate(-60)" fill="none" stroke="rgba(249,183,0,0.1)" stroke-width="1"/>
    <path id="Caminho_77" data-name="Caminho 77" d="M240.451,3307.587,343.493,3467.3" transform="translate(-2951.51 3317.825) rotate(-60)" fill="none" stroke="rgba(249,183,0,0.1)" stroke-width="1"/>
    <path id="Caminho_78" data-name="Caminho 78" d="M206.494,3369l-32.63,110.073" transform="translate(-2934.462 3393.559) rotate(-60)" fill="none" stroke="rgba(249,183,0,0.1)" stroke-width="1"/>
    <path id="Caminho_79" data-name="Caminho 79" d="M110,3354l141.78,13.419" transform="translate(-2972.961 3434.53) rotate(-60)" fill="none" stroke="rgba(249,183,0,0.1)" stroke-width="1"/>
    <path id="Caminho_80" data-name="Caminho 80" d="M202,3400.089l55.088-92.04" transform="translate(-2967.642 3346.561) rotate(-60)" fill="none" stroke="rgba(249,183,0,0.1)" stroke-width="1"/>
    <path id="Caminho_81" data-name="Caminho 81" d="M223.534,3419.93l-69.553-142.861" transform="translate(-3011.212 3368.923) rotate(-60)" fill="none" stroke="rgba(249,183,0,0.1)" stroke-width="1"/>
    <path id="Caminho_82" data-name="Caminho 82" d="M104.966,3404.406l76.423-128.724" transform="translate(-3033.243 3404.707) rotate(-60)" fill="none" stroke="rgba(249,183,0,0.1)" stroke-width="1"/>
    <path id="Caminho_83" data-name="Caminho 83" d="M305.65,3437.978l65.26-96.172" transform="translate(-2898.176 3284.099) rotate(-60)" fill="none" stroke="rgba(249,183,0,0.1)" stroke-width="1"/>
    <path id="Caminho_84" data-name="Caminho 84" d="M179,3463.215l212.862-62.222" transform="translate(-2908.518 3403.456) rotate(-60)" fill="none" stroke="rgba(249,183,0,0.1)" stroke-width="1"/>
    <path id="Caminho_85" data-name="Caminho 85" d="M81,3425.5l154.33,16.235" transform="translate(-2932.322 3486.69) rotate(-60)" fill="none" stroke="rgba(249,183,0,0.1)" stroke-width="1"/>
    <path id="Caminho_86" data-name="Caminho 86" d="M73.5,3469.506,118.966,3357.9" transform="translate(-2985.707 3463.29) rotate(-60)" fill="none" stroke="rgba(249,183,0,0.1)" stroke-width="1"/>
    <path id="Caminho_87" data-name="Caminho 87" d="M29.5,3341.805l69.127,147.1" transform="translate(-3016.505 3489.049) rotate(-60)" fill="none" stroke="rgba(249,183,0,0.1)" stroke-width="1"/>
    <path id="Caminho_32" data-name="Caminho 32" d="M0,0,98.115,52.011" transform="matrix(-0.259, -0.966, 0.966, -0.259, -72.838, 5097.358)" fill="none" stroke="rgba(195,0,10,0.2)" stroke-width="2"/>
    <path id="Caminho_33" data-name="Caminho 33" d="M0,94.144,111.656,0" transform="matrix(-0.259, -0.966, 0.966, -0.259, -146.764, 4999.871)" fill="none" stroke="rgba(195,0,10,0.2)" stroke-width="2"/>
    <path id="Caminho_34" data-name="Caminho 34" d="M0,18.762,200.816,0" transform="matrix(-0.259, -0.966, 0.966, -0.259, -66.472, 4972.025)" fill="none" stroke="rgba(195,0,10,0.2)" stroke-width="2"/>
    <path id="Caminho_42" data-name="Caminho 42" d="M54.432,93.7,0,0" transform="matrix(-0.259, -0.966, 0.966, -0.259, -116.82, 4760.268)" fill="none" stroke="rgba(195,0,10,0.2)" stroke-width="2"/>
    <path id="Caminho_52" data-name="Caminho 52" d="M0,40.739,224.826,0" transform="matrix(-0.259, -0.966, 0.966, -0.259, -122.631, 5115.324)" fill="none" stroke="rgba(195,0,10,0.25)" stroke-width="2"/>
    <path id="Caminho_53" data-name="Caminho 53" d="M0,0,82.135,74.249" transform="matrix(-0.259, -0.966, 0.966, -0.259, -179.574, 4877.417)" fill="none" stroke="rgba(195,0,10,0.25)" stroke-width="2"/>
    <path id="Caminho_57" data-name="Caminho 57" d="M0,39.172,139.581,0" transform="matrix(-0.259, -0.966, 0.966, -0.259, -72.612, 4680.394)" fill="none" stroke="rgba(195,0,10,0.2)" stroke-width="2"/>
    <path id="Caminho_58" data-name="Caminho 58" d="M0,155.676,76.827,0" transform="matrix(-0.259, -0.966, 0.966, -0.259, -187.521, 4716.335)" fill="none" stroke="rgba(195,0,10,0.2)" stroke-width="2"/>
    <path id="Caminho_59" data-name="Caminho 59" d="M70.456,104.277,0,0" transform="matrix(-0.259, -0.966, 0.966, -0.259, -209.07, 4637.862)" fill="none" stroke="rgba(195,0,10,0.25)" stroke-width="2"/>
    <g id="Elipse_11" data-name="Elipse 11" transform="matrix(-0.259, -0.966, 0.966, -0.259, -53.633, 4992.984)" fill="none" stroke="rgba(255,215,0,0.3)" stroke-width="2">
      <circle cx="11.784" cy="11.784" r="11.784" stroke="none"/>
      <circle cx="11.784" cy="11.784" r="10.784" fill="none"/>
    </g>
    <g id="Elipse_12" data-name="Elipse 12" transform="matrix(-0.259, -0.966, 0.966, -0.259, -37.694, 4694.287)" fill="none" stroke="rgba(255,215,0,0.3)" stroke-width="2">
      <circle cx="11.784" cy="11.784" r="11.784" stroke="none"/>
      <circle cx="11.784" cy="11.784" r="10.784" fill="none"/>
    </g>
    <g id="Elipse_18" data-name="Elipse 18" transform="matrix(-0.259, -0.966, 0.966, -0.259, -83.434, 5124.597)" fill="none" stroke="rgba(255,215,0,0.3)" stroke-width="2">
      <circle cx="11.784" cy="11.784" r="11.784" stroke="none"/>
      <circle cx="11.784" cy="11.784" r="10.784" fill="none"/>
    </g>
    <g id="Elipse_19" data-name="Elipse 19" transform="matrix(-0.259, -0.966, 0.966, -0.259, -132.627, 4783.164)" fill="none" stroke="rgba(255,215,0,0.3)" stroke-width="2">
      <circle cx="11.784" cy="11.784" r="11.784" stroke="none"/>
      <circle cx="11.784" cy="11.784" r="10.784" fill="none"/>
    </g>
    <g id="Elipse_20" data-name="Elipse 20" transform="matrix(-0.259, -0.966, 0.966, -0.259, -125.816, 4553.606)" fill="none" stroke="rgba(255,215,0,0.3)" stroke-width="2">
      <circle cx="11.784" cy="11.784" r="11.784" stroke="none"/>
      <circle cx="11.784" cy="11.784" r="10.784" fill="none"/>
    </g>
    <g id="Elipse_26" data-name="Elipse 26" transform="translate(-126.48 4878.024) rotate(-60)" fill="none" stroke="rgba(195,0,10,0.2)" stroke-width="1">
      <circle cx="13.927" cy="13.927" r="13.927" stroke="none"/>
      <circle cx="13.927" cy="13.927" r="13.427" fill="none"/>
    </g>
    <g id="Elipse_30" data-name="Elipse 30" transform="translate(-41.713 5032.033) rotate(-60)" fill="none" stroke="rgba(195,0,10,0.2)" stroke-width="1">
      <circle cx="13.927" cy="13.927" r="13.927" stroke="none"/>
      <circle cx="13.927" cy="13.927" r="13.427" fill="none"/>
    </g>
    <g id="Elipse_35" data-name="Elipse 35" transform="translate(-138.44 5132.719) rotate(-60)" fill="none" stroke="rgba(195,0,10,0.2)" stroke-width="1">
      <circle cx="13.927" cy="13.927" r="13.927" stroke="none"/>
      <circle cx="13.927" cy="13.927" r="13.427" fill="none"/>
    </g>
    <path id="Caminho_88" data-name="Caminho 88" d="M37,3334.5l108.781,31.173" transform="translate(-3018.713 3480.353) rotate(-60)" fill="none" stroke="rgba(249,183,0,0.1)" stroke-width="1"/>
  </g>
</svg>
