<svg xmlns="http://www.w3.org/2000/svg" width="476.085" height="706.204" viewBox="0 0 476.085 706.204">
  <g id="Fundo_6" data-name="Fundo 6" transform="translate(-1051.374 -3815.676)">
    <g id="Elipse_12" data-name="Elipse 12" transform="translate(1323.198 4339.616) rotate(90)" fill="none" stroke="rgba(255,215,0,0.3)" stroke-width="2">
      <circle cx="11.784" cy="11.784" r="11.784" stroke="none"/>
      <circle cx="11.784" cy="11.784" r="10.784" fill="none"/>
    </g>
    <g id="Elipse_15" data-name="Elipse 15" transform="translate(1280.774 3951.52) rotate(90)" fill="none" stroke="rgba(255,215,0,0.4)" stroke-width="2">
      <circle cx="11.784" cy="11.784" r="11.784" stroke="none"/>
      <circle cx="11.784" cy="11.784" r="10.784" fill="none"/>
    </g>
    <g id="Elipse_16" data-name="Elipse 16" transform="translate(1074.942 3989.229) rotate(90)" fill="none" stroke="rgba(255,215,0,0.4)" stroke-width="2">
      <circle cx="11.784" cy="11.784" r="11.784" stroke="none"/>
      <circle cx="11.784" cy="11.784" r="10.784" fill="none"/>
    </g>
    <g id="Elipse_17" data-name="Elipse 17" transform="translate(1236.78 4141.639) rotate(90)" fill="none" stroke="rgba(255,215,0,0.3)" stroke-width="2">
      <circle cx="11.784" cy="11.784" r="11.784" stroke="none"/>
      <circle cx="11.784" cy="11.784" r="10.784" fill="none"/>
    </g>
    <g id="Elipse_20" data-name="Elipse 20" transform="translate(1371.906 4498.311) rotate(90)" fill="none" stroke="rgba(255,215,0,0.3)" stroke-width="2">
      <circle cx="11.784" cy="11.784" r="11.784" stroke="none"/>
      <circle cx="11.784" cy="11.784" r="10.784" fill="none"/>
    </g>
    <g id="Elipse_23" data-name="Elipse 23" transform="translate(1188.071 3836.819) rotate(90)" fill="none" stroke="rgba(255,215,0,0.4)" stroke-width="2">
      <circle cx="11.784" cy="11.784" r="11.784" stroke="none"/>
      <circle cx="11.784" cy="11.784" r="10.784" fill="none"/>
    </g>
    <path id="Caminho_35" data-name="Caminho 35" d="M0,0,74.661,160.225" transform="translate(1394.271 4072.674) rotate(90)" fill="none" stroke="rgba(195,0,10,0.25)" stroke-width="2"/>
    <path id="Caminho_36" data-name="Caminho 36" d="M88.11,0,0,119.281" transform="translate(1395.784 3970.936) rotate(90)" fill="none" stroke="rgba(195,0,10,0.2)" stroke-width="2"/>
    <path id="Caminho_37" data-name="Caminho 37" d="M0,0,33.511,184.638" transform="translate(1258.61 3965.525) rotate(90)" fill="none" stroke="rgba(195,0,10,0.25)" stroke-width="2"/>
    <path id="Caminho_38" data-name="Caminho 38" d="M0,146.528,138.445,0" transform="translate(1217.215 4008.433) rotate(90)" fill="none" stroke="rgba(195,0,10,0.25)" stroke-width="2"/>
    <path id="Caminho_39" data-name="Caminho 39" d="M0,43.564,365.6,0" transform="translate(1309.469 3974.922) rotate(90)" fill="none" stroke="rgba(195,0,10,0.2)" stroke-width="2"/>
    <path id="Caminho_40" data-name="Caminho 40" d="M0,72.607,184.506,0" transform="translate(1300.926 4163.7) rotate(90)" fill="none" stroke="rgba(195,0,10,0.25)" stroke-width="2"/>
    <path id="Caminho_41" data-name="Caminho 41" d="M12.195,176.4,0,0" transform="translate(1456.44 3947.18) rotate(90)" fill="none" stroke="rgba(195,0,10,0.2)" stroke-width="2"/>
    <path id="Caminho_42" data-name="Caminho 42" d="M54.432,93.7,0,0" transform="translate(1416.705 4296.362) rotate(90)" fill="none" stroke="rgba(195,0,10,0.2)" stroke-width="2"/>
    <path id="Caminho_43" data-name="Caminho 43" d="M265.163,81.648,0,0" transform="translate(1398.432 4077.078) rotate(90)" fill="none" stroke="rgba(195,0,10,0.2)" stroke-width="2"/>
    <path id="Caminho_47" data-name="Caminho 47" d="M130.777,103.436,0,0" transform="translate(1171.942 3860.459) rotate(90)" fill="none" stroke="rgba(195,0,10,0.25)" stroke-width="2"/>
    <path id="Caminho_48" data-name="Caminho 48" d="M94.45,0,0,81.521" transform="translate(1261.152 3860.459) rotate(90)" fill="none" stroke="rgba(195,0,10,0.25)" stroke-width="2"/>
    <path id="Caminho_51" data-name="Caminho 51" d="M93.428,0,0,268.718" transform="translate(1455.183 3850.209) rotate(90)" fill="none" stroke="rgba(195,0,10,0.2)" stroke-width="2"/>
    <path id="Caminho_57" data-name="Caminho 57" d="M0,39.172,139.581,0" transform="translate(1353.33 4362.073) rotate(90)" fill="none" stroke="rgba(195,0,10,0.2)" stroke-width="2"/>
    <path id="Caminho_58" data-name="Caminho 58" d="M0,155.676,76.827,0" transform="translate(1473.626 4357.097) rotate(90)" fill="none" stroke="rgba(195,0,10,0.2)" stroke-width="2"/>
    <path id="Caminho_71" data-name="Caminho 71" d="M0,291.849,483.495,0" transform="translate(1353.125 4018.515) rotate(90)" fill="none" stroke="rgba(195,0,10,0.2)" stroke-width="2"/>
    <g id="Elipse_26" data-name="Elipse 26" transform="translate(1101.097 4205.643) rotate(-90)" fill="none" stroke="rgba(195,0,10,0.2)" stroke-width="1">
      <circle cx="13.927" cy="13.927" r="13.927" stroke="none"/>
      <circle cx="13.927" cy="13.927" r="13.427" fill="none"/>
    </g>
    <g id="Elipse_27" data-name="Elipse 27" transform="translate(1336.935 3928.952) rotate(-90)" fill="none" stroke="rgba(195,0,10,0.2)" stroke-width="1">
      <circle cx="13.927" cy="13.927" r="13.927" stroke="none"/>
      <circle cx="13.927" cy="13.927" r="13.427" fill="none"/>
    </g>
    <g id="Elipse_28" data-name="Elipse 28" transform="translate(1158.664 4049.656) rotate(-90)" fill="none" stroke="rgba(195,0,10,0.2)" stroke-width="1">
      <circle cx="13.927" cy="13.927" r="13.927" stroke="none"/>
      <circle cx="13.927" cy="13.927" r="13.427" fill="none"/>
    </g>
    <g id="Elipse_30" data-name="Elipse 30" transform="translate(1251.513 4296.635) rotate(-90)" fill="none" stroke="rgba(195,0,10,0.2)" stroke-width="1">
      <circle cx="13.927" cy="13.927" r="13.927" stroke="none"/>
      <circle cx="13.927" cy="13.927" r="13.427" fill="none"/>
    </g>
    <g id="Elipse_31" data-name="Elipse 31" transform="translate(1268.226 4125.792) rotate(-90)" fill="none" stroke="rgba(195,0,10,0.2)" stroke-width="1">
      <circle cx="13.927" cy="13.927" r="13.927" stroke="none"/>
      <circle cx="13.927" cy="13.927" r="13.427" fill="none"/>
    </g>
    <g id="Elipse_32" data-name="Elipse 32" transform="translate(1223.658 3843.53) rotate(-90)" fill="none" stroke="rgba(195,0,10,0.2)" stroke-width="1">
      <circle cx="13.927" cy="13.927" r="13.927" stroke="none"/>
      <circle cx="13.927" cy="13.927" r="13.427" fill="none"/>
    </g>
    <g id="Elipse_33" data-name="Elipse 33" transform="translate(1073.242 3941.951) rotate(-90)" fill="none" stroke="rgba(195,0,10,0.2)" stroke-width="1">
      <circle cx="13.927" cy="13.927" r="13.927" stroke="none"/>
      <circle cx="13.927" cy="13.927" r="13.427" fill="none"/>
    </g>
    <g id="Elipse_35" data-name="Elipse 35" transform="translate(1218.087 4432.195) rotate(-90)" fill="none" stroke="rgba(195,0,10,0.2)" stroke-width="1">
      <circle cx="13.927" cy="13.927" r="13.927" stroke="none"/>
      <circle cx="13.927" cy="13.927" r="13.427" fill="none"/>
    </g>
    <path id="Caminho_74" data-name="Caminho 74" d="M159,3271.5l129.786,51.557" transform="translate(-2156.477 4336.788) rotate(-90)" fill="none" stroke="rgba(249,183,0,0.1)" stroke-width="1"/>
    <path id="Caminho_75" data-name="Caminho 75" d="M243,3332.551l82.852-72.129" transform="translate(-2165.97 4264.801) rotate(-90)" fill="none" stroke="rgba(249,183,0,0.1)" stroke-width="1"/>
    <path id="Caminho_76" data-name="Caminho 76" d="M300.5,3260.422l76.541,130.519" transform="translate(-2165.97 4215.524) rotate(-90)" fill="none" stroke="rgba(249,183,0,0.1)" stroke-width="1"/>
    <path id="Caminho_77" data-name="Caminho 77" d="M240.451,3307.587,343.493,3467.3" transform="translate(-2125.55 4266.986) rotate(-90)" fill="none" stroke="rgba(249,183,0,0.1)" stroke-width="1"/>
    <path id="Caminho_78" data-name="Caminho 78" d="M206.494,3369l-32.63,110.073" transform="translate(-2072.92 4324.049) rotate(-90)" fill="none" stroke="rgba(249,183,0,0.1)" stroke-width="1"/>
    <path id="Caminho_79" data-name="Caminho 79" d="M110,3354l141.78,13.419" transform="translate(-2085.775 4378.78) rotate(-90)" fill="none" stroke="rgba(249,183,0,0.1)" stroke-width="1"/>
    <path id="Caminho_80" data-name="Caminho 80" d="M202,3400.089l55.088-92.04" transform="translate(-2125.153 4299.938) rotate(-90)" fill="none" stroke="rgba(249,183,0,0.1)" stroke-width="1"/>
    <path id="Caminho_81" data-name="Caminho 81" d="M223.534,3419.93l-69.553-142.861" transform="translate(-2151.705 4341.089) rotate(-90)" fill="none" stroke="rgba(249,183,0,0.1)" stroke-width="1"/>
    <path id="Caminho_82" data-name="Caminho 82" d="M104.966,3404.406l76.423-128.724" transform="translate(-2152.893 4383.094) rotate(-90)" fill="none" stroke="rgba(249,183,0,0.1)" stroke-width="1"/>
    <path id="Caminho_83" data-name="Caminho 83" d="M305.65,3437.978l65.26-96.172" transform="translate(-2096.226 4211.111) rotate(-90)" fill="none" stroke="rgba(249,183,0,0.1)" stroke-width="1"/>
    <path id="Caminho_84" data-name="Caminho 84" d="M179,3463.215l212.862-62.222" transform="translate(-2045.503 4319.648) rotate(-90)" fill="none" stroke="rgba(249,183,0,0.1)" stroke-width="1"/>
    <path id="Caminho_86" data-name="Caminho 86" d="M73.5,3469.506,118.966,3357.9" transform="translate(-2082.434 4410.06) rotate(-90)" fill="none" stroke="rgba(249,183,0,0.1)" stroke-width="1"/>
    <path id="Caminho_87" data-name="Caminho 87" d="M29.5,3341.805l69.127,147.1" transform="translate(-2096.226 4447.768) rotate(-90)" fill="none" stroke="rgba(249,183,0,0.1)" stroke-width="1"/>
    <path id="Caminho_88" data-name="Caminho 88" d="M37,3334.5l108.781,31.173" transform="translate(-2102.486 4441.34) rotate(-90)" fill="none" stroke="rgba(249,183,0,0.1)" stroke-width="1"/>
    <g id="Elipse_11" data-name="Elipse 11" transform="translate(1415.901 4055.221) rotate(90)" fill="none" stroke="rgba(255,215,0,0.4)" stroke-width="2">
      <circle cx="11.784" cy="11.784" r="11.784" stroke="none"/>
      <circle cx="11.784" cy="11.784" r="10.784" fill="none"/>
    </g>
    <g id="Elipse_13" data-name="Elipse 13" transform="translate(1496.035 4422.892) rotate(90)" fill="none" stroke="rgba(255,215,0,0.4)" stroke-width="2">
      <circle cx="11.784" cy="11.784" r="11.784" stroke="none"/>
      <circle cx="11.784" cy="11.784" r="10.784" fill="none"/>
    </g>
    <g id="Elipse_14" data-name="Elipse 14" transform="translate(1527.459 4179.349) rotate(90)" fill="none" stroke="rgba(255,215,0,0.4)" stroke-width="2">
      <circle cx="11.784" cy="11.784" r="11.784" stroke="none"/>
      <circle cx="11.784" cy="11.784" r="10.784" fill="none"/>
    </g>
    <g id="Elipse_18" data-name="Elipse 18" transform="translate(1478.751 3935.807) rotate(90)" fill="none" stroke="rgba(255,215,0,0.4)" stroke-width="2">
      <circle cx="11.784" cy="11.784" r="11.784" stroke="none"/>
      <circle cx="11.784" cy="11.784" r="10.784" fill="none"/>
    </g>
    <g id="Elipse_19" data-name="Elipse 19" transform="translate(1437.898 4278.337) rotate(90)" fill="none" stroke="rgba(255,215,0,0.4)" stroke-width="2">
      <circle cx="11.784" cy="11.784" r="11.784" stroke="none"/>
      <circle cx="11.784" cy="11.784" r="10.784" fill="none"/>
    </g>
    <path id="Caminho_32" data-name="Caminho 32" d="M0,0,98.115,52.011" transform="translate(1461.467 3959.375) rotate(90)" fill="none" stroke="rgba(195,0,10,0.25)" stroke-width="2"/>
    <path id="Caminho_33" data-name="Caminho 33" d="M0,94.144,111.656,0" transform="translate(1507.642 4072.674) rotate(90)" fill="none" stroke="rgba(195,0,10,0.25)" stroke-width="2"/>
    <path id="Caminho_34" data-name="Caminho 34" d="M0,18.762,200.816,0" transform="translate(1422.879 4078.79) rotate(90)" fill="none" stroke="rgba(195,0,10,0.25)" stroke-width="2"/>
    <path id="Caminho_52" data-name="Caminho 52" d="M0,40.739,224.826,0" transform="translate(1514.213 3954.909) rotate(90)" fill="none" stroke="rgba(195,0,10,0.25)" stroke-width="2"/>
    <path id="Caminho_53" data-name="Caminho 53" d="M0,0,82.135,74.249" transform="translate(1507.642 4199.447) rotate(90)" fill="none" stroke="rgba(195,0,10,0.25)" stroke-width="2"/>
    <path id="Caminho_54" data-name="Caminho 54" d="M0,46,125.5,0" transform="translate(1479.388 4299.322) rotate(90)" fill="none" stroke="rgba(195,0,10,0.25)" stroke-width="2"/>
    <path id="Caminho_59" data-name="Caminho 59" d="M70.456,104.277,0,0" transform="translate(1474.131 4438.473) rotate(90)" fill="none" stroke="rgba(195,0,10,0.2)" stroke-width="2"/>
    <path id="Caminho_62" data-name="Caminho 62" d="M0,0,224.788,25.363" transform="translate(1514.213 4199.447) rotate(90)" fill="none" stroke="rgba(195,0,10,0.25)" stroke-width="2"/>
    <g id="Elipse_29" data-name="Elipse 29" transform="translate(1403.785 4168.503) rotate(-90)" fill="none" stroke="rgba(195,0,10,0.2)" stroke-width="1">
      <circle cx="13.927" cy="13.927" r="13.927" stroke="none"/>
      <circle cx="13.927" cy="13.927" r="13.427" fill="none"/>
    </g>
    <g id="Elipse_34" data-name="Elipse 34" transform="translate(1387.072 4350.487) rotate(-90)" fill="none" stroke="rgba(195,0,10,0.2)" stroke-width="1">
      <circle cx="13.927" cy="13.927" r="13.927" stroke="none"/>
      <circle cx="13.927" cy="13.927" r="13.427" fill="none"/>
    </g>
    <path id="Caminho_85" data-name="Caminho 85" d="M81,3425.5l154.33,16.235" transform="translate(-2024.501 4403.633) rotate(-90)" fill="none" stroke="rgba(249,183,0,0.1)" stroke-width="1"/>
  </g>
</svg>
